M48
; DRILL file {KiCad 8.0.4} date 2024-10-06T22:56:50+0300
; FORMAT={-:-/ absolute / inch / decimal}
; #@! TF.CreationDate,2024-10-06T22:56:50+03:00
; #@! TF.GenerationSoftware,Kicad,Pcbnew,8.0.4
; #@! TF.FileFunction,Plated,1,2,PTH
FMAT,2
INCH
; #@! TA.AperFunction,Plated,PTH,ComponentDrill
T1C0.0394
; #@! TA.AperFunction,Plated,PTH,ComponentDrill
T2C0.1181
%
G90
G05
T1
X1.9132Y-2.4224
X1.9132Y-2.5224
X1.9132Y-2.6224
X1.9132Y-2.7224
X1.9132Y-2.8224
X1.9132Y-2.9224
X2.0132Y-2.4224
X2.0132Y-2.5224
X2.0132Y-2.6224
X2.0132Y-2.7224
X2.0132Y-2.8224
X2.0132Y-2.9224
X2.1132Y-2.4224
X2.1132Y-2.5224
X2.1132Y-2.6224
X2.1132Y-2.7224
X2.1132Y-2.8224
X2.1132Y-2.9224
X2.2132Y-2.1224
X2.2132Y-2.2224
X2.2132Y-2.3224
X2.2132Y-2.4224
X2.2132Y-2.5224
X2.2132Y-2.6224
X2.2132Y-2.7224
X2.2132Y-2.8224
X2.2132Y-3.1217
X2.2142Y-3.2217
X2.3132Y-2.1224
X2.3132Y-2.2224
X2.3132Y-2.3224
X2.3132Y-2.4224
X2.3132Y-2.5224
X2.3132Y-2.6224
X2.3132Y-2.7224
X2.3132Y-2.8224
X2.3132Y-3.1217
X2.3142Y-3.2217
X2.4132Y-2.1224
X2.4132Y-2.2224
X2.4132Y-2.3224
X2.4132Y-2.4224
X2.4132Y-2.5224
X2.4132Y-2.6224
X2.4132Y-2.7224
X2.4132Y-2.8224
X2.4132Y-3.1217
X2.4142Y-3.2217
X2.5132Y-2.1224
X2.5132Y-2.2224
X2.5132Y-2.3224
X2.5132Y-2.4224
X2.5132Y-2.5224
X2.5132Y-2.6224
X2.5132Y-2.7224
X2.5132Y-2.8224
X2.5132Y-3.1217
X2.5142Y-3.2217
X2.6132Y-2.1224
X2.6132Y-2.2224
X2.6132Y-2.3224
X2.6132Y-2.4224
X2.6132Y-2.5224
X2.6132Y-2.6224
X2.6132Y-2.7224
X2.6132Y-2.8224
X2.6132Y-3.1217
X2.6142Y-3.2217
X2.7132Y-2.1224
X2.7132Y-2.2224
X2.7132Y-2.3224
X2.7132Y-2.4224
X2.7132Y-2.5224
X2.7132Y-2.6224
X2.7132Y-2.7224
X2.7132Y-2.8224
X2.7132Y-3.1217
X2.7142Y-3.2217
X2.8132Y-2.1224
X2.8132Y-2.2224
X2.8132Y-2.3224
X2.8132Y-2.4224
X2.8132Y-2.5224
X2.8132Y-2.6224
X2.8132Y-2.7224
X2.8132Y-2.8224
X2.8132Y-3.1217
X2.8142Y-3.2217
X2.9132Y-2.1224
X2.9132Y-2.2224
X2.9132Y-2.3224
X2.9132Y-2.4224
X2.9132Y-2.5224
X2.9132Y-2.6224
X2.9132Y-2.7224
X2.9132Y-2.8224
X2.9132Y-3.1217
X2.9142Y-3.2217
X3.0132Y-2.1224
X3.0132Y-2.2224
X3.0132Y-2.3224
X3.0132Y-2.4224
X3.0132Y-2.5224
X3.0132Y-2.6224
X3.0132Y-2.7224
X3.0132Y-2.8224
X3.0132Y-2.9224
X3.0132Y-3.0224
X3.1132Y-2.1224
X3.1132Y-2.2224
X3.1132Y-2.3224
X3.1132Y-2.4224
X3.1132Y-2.5224
X3.1132Y-2.6224
X3.1132Y-2.7224
X3.1132Y-2.8224
X3.1132Y-2.9224
X3.1132Y-3.0224
X3.2132Y-2.1224
X3.2132Y-2.2224
X3.2132Y-2.3224
X3.2132Y-2.4224
X3.2132Y-2.5224
X3.2132Y-2.6224
X3.2132Y-2.7224
X3.2132Y-2.8224
X3.2132Y-2.9224
X3.2132Y-3.0224
X3.3132Y-2.1224
X3.3132Y-2.2224
X3.3132Y-2.3224
X3.3132Y-2.4224
X3.3132Y-2.5224
X3.3132Y-2.6224
X3.3132Y-2.7224
X3.3132Y-2.8224
X3.3132Y-2.9224
X3.3132Y-3.0224
X3.4132Y-2.1224
X3.4132Y-2.2224
X3.4132Y-2.3224
X3.4132Y-2.4224
X3.4132Y-2.5224
X3.4132Y-2.6224
X3.4132Y-2.7224
X3.4132Y-2.8224
X3.4132Y-2.9224
X3.4132Y-3.0224
X3.5132Y-2.1224
X3.5132Y-2.2224
X3.5132Y-2.3224
X3.5132Y-2.4224
X3.5132Y-2.5224
X3.5132Y-2.6224
X3.5132Y-2.7224
X3.5132Y-2.8224
X3.5132Y-2.9224
X3.5132Y-3.0224
X3.6132Y-2.1224
X3.6132Y-2.2224
X3.6132Y-2.3224
X3.6132Y-2.4224
X3.6132Y-2.5224
X3.6132Y-2.6224
X3.6132Y-2.7224
X3.6132Y-2.8224
X3.6132Y-3.1217
X3.6142Y-3.2217
X3.7132Y-2.1224
X3.7132Y-2.2224
X3.7132Y-2.3224
X3.7132Y-2.4224
X3.7132Y-2.5224
X3.7132Y-2.6224
X3.7132Y-2.7224
X3.7132Y-2.8224
X3.7132Y-3.1217
X3.7142Y-3.2217
X3.8132Y-2.1224
X3.8132Y-2.2224
X3.8132Y-2.3224
X3.8132Y-2.4224
X3.8132Y-2.5224
X3.8132Y-2.6224
X3.8132Y-2.7224
X3.8132Y-2.8224
X3.8132Y-3.1217
X3.8142Y-3.2217
X3.9132Y-2.1224
X3.9132Y-2.2224
X3.9132Y-2.3224
X3.9132Y-2.4224
X3.9132Y-2.5224
X3.9132Y-2.6224
X3.9132Y-2.7224
X3.9132Y-2.8224
X3.9132Y-3.1217
X3.9142Y-3.2217
X4.0132Y-2.1224
X4.0132Y-2.2224
X4.0132Y-2.3224
X4.0132Y-2.4224
X4.0132Y-2.5224
X4.0132Y-2.6224
X4.0132Y-2.7224
X4.0132Y-2.8224
X4.0132Y-3.1217
X4.0142Y-3.2217
X4.1132Y-2.1224
X4.1132Y-2.2224
X4.1132Y-2.3224
X4.1132Y-2.4224
X4.1132Y-2.5224
X4.1132Y-2.6224
X4.1132Y-2.7224
X4.1132Y-2.8224
X4.1132Y-3.1217
X4.1142Y-3.2217
X4.2132Y-2.1224
X4.2132Y-2.2224
X4.2132Y-2.3224
X4.2132Y-2.4224
X4.2132Y-2.5224
X4.2132Y-2.6224
X4.2132Y-2.7224
X4.2132Y-2.8224
X4.2132Y-3.1217
X4.2142Y-3.2217
X4.3132Y-2.1224
X4.3132Y-2.2224
X4.3132Y-2.3224
X4.3132Y-2.4224
X4.3132Y-2.5224
X4.3132Y-2.6224
X4.3132Y-2.7224
X4.3132Y-2.8224
X4.3132Y-3.1217
X4.3142Y-3.2217
X4.4132Y-2.1224
X4.4132Y-2.2224
X4.4132Y-2.3224
X4.4132Y-2.4224
X4.4132Y-2.5224
X4.4132Y-2.6224
X4.4132Y-2.7224
X4.4132Y-2.8224
X4.4132Y-3.1217
X4.4142Y-3.2217
X4.5132Y-2.1224
X4.5132Y-2.2224
X4.5132Y-2.3224
X4.5132Y-2.4224
X4.5132Y-2.5224
X4.5132Y-2.6224
X4.5132Y-2.7224
X4.5132Y-2.8224
X4.5132Y-3.1217
X4.5142Y-3.2217
X4.6132Y-2.4224
X4.6132Y-2.5224
X4.6132Y-2.6224
X4.6132Y-2.7224
X4.6132Y-2.8224
X4.6132Y-2.9224
X4.7132Y-2.4224
X4.7132Y-2.5224
X4.7132Y-2.6224
X4.7132Y-2.7224
X4.7132Y-2.8224
X4.7132Y-2.9224
X4.8132Y-2.4224
X4.8132Y-2.5224
X4.8132Y-2.6224
X4.8132Y-2.7224
X4.8132Y-2.8224
X4.8132Y-2.9224
T2
X2.0132Y-2.2224
X2.0132Y-3.1217
X4.7132Y-2.2224
X4.7132Y-3.1217
M30
