%TF.GenerationSoftware,KiCad,Pcbnew,8.0.4*%
%TF.CreationDate,2024-10-06T22:56:45+03:00*%
%TF.ProjectId,Flipper Zero Protoboard mini,466c6970-7065-4722-905a-65726f205072,rev?*%
%TF.SameCoordinates,Original*%
%TF.FileFunction,Legend,Top*%
%TF.FilePolarity,Positive*%
%FSLAX46Y46*%
G04 Gerber Fmt 4.6, Leading zero omitted, Abs format (unit mm)*
G04 Created by KiCad (PCBNEW 8.0.4) date 2024-10-06 22:56:45*
%MOMM*%
%LPD*%
G01*
G04 APERTURE LIST*
%ADD10C,0.150000*%
%ADD11C,0.100000*%
G04 APERTURE END LIST*
D10*
X78066779Y-81849819D02*
X78066779Y-80849819D01*
X78066779Y-81230771D02*
X78162017Y-81183152D01*
X78162017Y-81183152D02*
X78352493Y-81183152D01*
X78352493Y-81183152D02*
X78447731Y-81230771D01*
X78447731Y-81230771D02*
X78495350Y-81278390D01*
X78495350Y-81278390D02*
X78542969Y-81373628D01*
X78542969Y-81373628D02*
X78542969Y-81659342D01*
X78542969Y-81659342D02*
X78495350Y-81754580D01*
X78495350Y-81754580D02*
X78447731Y-81802200D01*
X78447731Y-81802200D02*
X78352493Y-81849819D01*
X78352493Y-81849819D02*
X78162017Y-81849819D01*
X78162017Y-81849819D02*
X78066779Y-81802200D01*
X78876303Y-81183152D02*
X79114398Y-81849819D01*
X79352493Y-81183152D02*
X79114398Y-81849819D01*
X79114398Y-81849819D02*
X79019160Y-82087914D01*
X79019160Y-82087914D02*
X78971541Y-82135533D01*
X78971541Y-82135533D02*
X78876303Y-82183152D01*
X81114398Y-81373628D02*
X81066779Y-81326009D01*
X81066779Y-81326009D02*
X80971541Y-81278390D01*
X80971541Y-81278390D02*
X80876303Y-81278390D01*
X80876303Y-81278390D02*
X80781065Y-81326009D01*
X80781065Y-81326009D02*
X80733446Y-81373628D01*
X80733446Y-81373628D02*
X80685827Y-81468866D01*
X80685827Y-81468866D02*
X80685827Y-81564104D01*
X80685827Y-81564104D02*
X80733446Y-81659342D01*
X80733446Y-81659342D02*
X80781065Y-81706961D01*
X80781065Y-81706961D02*
X80876303Y-81754580D01*
X80876303Y-81754580D02*
X80971541Y-81754580D01*
X80971541Y-81754580D02*
X81066779Y-81706961D01*
X81066779Y-81706961D02*
X81114398Y-81659342D01*
X81114398Y-81278390D02*
X81114398Y-81659342D01*
X81114398Y-81659342D02*
X81162017Y-81706961D01*
X81162017Y-81706961D02*
X81209636Y-81706961D01*
X81209636Y-81706961D02*
X81304875Y-81659342D01*
X81304875Y-81659342D02*
X81352494Y-81564104D01*
X81352494Y-81564104D02*
X81352494Y-81326009D01*
X81352494Y-81326009D02*
X81257256Y-81183152D01*
X81257256Y-81183152D02*
X81114398Y-81087914D01*
X81114398Y-81087914D02*
X80923922Y-81040295D01*
X80923922Y-81040295D02*
X80733446Y-81087914D01*
X80733446Y-81087914D02*
X80590589Y-81183152D01*
X80590589Y-81183152D02*
X80495351Y-81326009D01*
X80495351Y-81326009D02*
X80447732Y-81516485D01*
X80447732Y-81516485D02*
X80495351Y-81706961D01*
X80495351Y-81706961D02*
X80590589Y-81849819D01*
X80590589Y-81849819D02*
X80733446Y-81945057D01*
X80733446Y-81945057D02*
X80923922Y-81992676D01*
X80923922Y-81992676D02*
X81114398Y-81945057D01*
X81114398Y-81945057D02*
X81257256Y-81849819D01*
X81685827Y-81849819D02*
X82209636Y-81183152D01*
X81685827Y-81183152D02*
X82209636Y-81849819D01*
X82971541Y-81802200D02*
X82876303Y-81849819D01*
X82876303Y-81849819D02*
X82685827Y-81849819D01*
X82685827Y-81849819D02*
X82590589Y-81802200D01*
X82590589Y-81802200D02*
X82542970Y-81706961D01*
X82542970Y-81706961D02*
X82542970Y-81326009D01*
X82542970Y-81326009D02*
X82590589Y-81230771D01*
X82590589Y-81230771D02*
X82685827Y-81183152D01*
X82685827Y-81183152D02*
X82876303Y-81183152D01*
X82876303Y-81183152D02*
X82971541Y-81230771D01*
X82971541Y-81230771D02*
X83019160Y-81326009D01*
X83019160Y-81326009D02*
X83019160Y-81421247D01*
X83019160Y-81421247D02*
X82542970Y-81516485D01*
X83447732Y-81183152D02*
X83447732Y-81849819D01*
X83447732Y-81278390D02*
X83495351Y-81230771D01*
X83495351Y-81230771D02*
X83590589Y-81183152D01*
X83590589Y-81183152D02*
X83733446Y-81183152D01*
X83733446Y-81183152D02*
X83828684Y-81230771D01*
X83828684Y-81230771D02*
X83876303Y-81326009D01*
X83876303Y-81326009D02*
X83876303Y-81849819D01*
X84495351Y-81849819D02*
X84400113Y-81802200D01*
X84400113Y-81802200D02*
X84352494Y-81754580D01*
X84352494Y-81754580D02*
X84304875Y-81659342D01*
X84304875Y-81659342D02*
X84304875Y-81373628D01*
X84304875Y-81373628D02*
X84352494Y-81278390D01*
X84352494Y-81278390D02*
X84400113Y-81230771D01*
X84400113Y-81230771D02*
X84495351Y-81183152D01*
X84495351Y-81183152D02*
X84638208Y-81183152D01*
X84638208Y-81183152D02*
X84733446Y-81230771D01*
X84733446Y-81230771D02*
X84781065Y-81278390D01*
X84781065Y-81278390D02*
X84828684Y-81373628D01*
X84828684Y-81373628D02*
X84828684Y-81659342D01*
X84828684Y-81659342D02*
X84781065Y-81754580D01*
X84781065Y-81754580D02*
X84733446Y-81802200D01*
X84733446Y-81802200D02*
X84638208Y-81849819D01*
X84638208Y-81849819D02*
X84495351Y-81849819D01*
X85257256Y-81183152D02*
X85257256Y-81849819D01*
X85257256Y-81278390D02*
X85304875Y-81230771D01*
X85304875Y-81230771D02*
X85400113Y-81183152D01*
X85400113Y-81183152D02*
X85542970Y-81183152D01*
X85542970Y-81183152D02*
X85638208Y-81230771D01*
X85638208Y-81230771D02*
X85685827Y-81326009D01*
X85685827Y-81326009D02*
X85685827Y-81849819D01*
X86590589Y-81802200D02*
X86495351Y-81849819D01*
X86495351Y-81849819D02*
X86304875Y-81849819D01*
X86304875Y-81849819D02*
X86209637Y-81802200D01*
X86209637Y-81802200D02*
X86162018Y-81754580D01*
X86162018Y-81754580D02*
X86114399Y-81659342D01*
X86114399Y-81659342D02*
X86114399Y-81373628D01*
X86114399Y-81373628D02*
X86162018Y-81278390D01*
X86162018Y-81278390D02*
X86209637Y-81230771D01*
X86209637Y-81230771D02*
X86304875Y-81183152D01*
X86304875Y-81183152D02*
X86495351Y-81183152D01*
X86495351Y-81183152D02*
X86590589Y-81230771D01*
X87162018Y-81849819D02*
X87066780Y-81802200D01*
X87066780Y-81802200D02*
X87019161Y-81754580D01*
X87019161Y-81754580D02*
X86971542Y-81659342D01*
X86971542Y-81659342D02*
X86971542Y-81373628D01*
X86971542Y-81373628D02*
X87019161Y-81278390D01*
X87019161Y-81278390D02*
X87066780Y-81230771D01*
X87066780Y-81230771D02*
X87162018Y-81183152D01*
X87162018Y-81183152D02*
X87304875Y-81183152D01*
X87304875Y-81183152D02*
X87400113Y-81230771D01*
X87400113Y-81230771D02*
X87447732Y-81278390D01*
X87447732Y-81278390D02*
X87495351Y-81373628D01*
X87495351Y-81373628D02*
X87495351Y-81659342D01*
X87495351Y-81659342D02*
X87447732Y-81754580D01*
X87447732Y-81754580D02*
X87400113Y-81802200D01*
X87400113Y-81802200D02*
X87304875Y-81849819D01*
X87304875Y-81849819D02*
X87162018Y-81849819D01*
X77620112Y-79686009D02*
X77286779Y-79686009D01*
X77286779Y-80209819D02*
X77286779Y-79209819D01*
X77286779Y-79209819D02*
X77762969Y-79209819D01*
X78048684Y-79209819D02*
X78715350Y-79209819D01*
X78715350Y-79209819D02*
X78048684Y-80209819D01*
X78048684Y-80209819D02*
X78715350Y-80209819D01*
X79858208Y-80209819D02*
X79858208Y-79209819D01*
X79858208Y-79209819D02*
X80239160Y-79209819D01*
X80239160Y-79209819D02*
X80334398Y-79257438D01*
X80334398Y-79257438D02*
X80382017Y-79305057D01*
X80382017Y-79305057D02*
X80429636Y-79400295D01*
X80429636Y-79400295D02*
X80429636Y-79543152D01*
X80429636Y-79543152D02*
X80382017Y-79638390D01*
X80382017Y-79638390D02*
X80334398Y-79686009D01*
X80334398Y-79686009D02*
X80239160Y-79733628D01*
X80239160Y-79733628D02*
X79858208Y-79733628D01*
X80858208Y-80209819D02*
X80858208Y-79543152D01*
X80858208Y-79733628D02*
X80905827Y-79638390D01*
X80905827Y-79638390D02*
X80953446Y-79590771D01*
X80953446Y-79590771D02*
X81048684Y-79543152D01*
X81048684Y-79543152D02*
X81143922Y-79543152D01*
X81620113Y-80209819D02*
X81524875Y-80162200D01*
X81524875Y-80162200D02*
X81477256Y-80114580D01*
X81477256Y-80114580D02*
X81429637Y-80019342D01*
X81429637Y-80019342D02*
X81429637Y-79733628D01*
X81429637Y-79733628D02*
X81477256Y-79638390D01*
X81477256Y-79638390D02*
X81524875Y-79590771D01*
X81524875Y-79590771D02*
X81620113Y-79543152D01*
X81620113Y-79543152D02*
X81762970Y-79543152D01*
X81762970Y-79543152D02*
X81858208Y-79590771D01*
X81858208Y-79590771D02*
X81905827Y-79638390D01*
X81905827Y-79638390D02*
X81953446Y-79733628D01*
X81953446Y-79733628D02*
X81953446Y-80019342D01*
X81953446Y-80019342D02*
X81905827Y-80114580D01*
X81905827Y-80114580D02*
X81858208Y-80162200D01*
X81858208Y-80162200D02*
X81762970Y-80209819D01*
X81762970Y-80209819D02*
X81620113Y-80209819D01*
X82239161Y-79543152D02*
X82620113Y-79543152D01*
X82382018Y-79209819D02*
X82382018Y-80066961D01*
X82382018Y-80066961D02*
X82429637Y-80162200D01*
X82429637Y-80162200D02*
X82524875Y-80209819D01*
X82524875Y-80209819D02*
X82620113Y-80209819D01*
X83096304Y-80209819D02*
X83001066Y-80162200D01*
X83001066Y-80162200D02*
X82953447Y-80114580D01*
X82953447Y-80114580D02*
X82905828Y-80019342D01*
X82905828Y-80019342D02*
X82905828Y-79733628D01*
X82905828Y-79733628D02*
X82953447Y-79638390D01*
X82953447Y-79638390D02*
X83001066Y-79590771D01*
X83001066Y-79590771D02*
X83096304Y-79543152D01*
X83096304Y-79543152D02*
X83239161Y-79543152D01*
X83239161Y-79543152D02*
X83334399Y-79590771D01*
X83334399Y-79590771D02*
X83382018Y-79638390D01*
X83382018Y-79638390D02*
X83429637Y-79733628D01*
X83429637Y-79733628D02*
X83429637Y-80019342D01*
X83429637Y-80019342D02*
X83382018Y-80114580D01*
X83382018Y-80114580D02*
X83334399Y-80162200D01*
X83334399Y-80162200D02*
X83239161Y-80209819D01*
X83239161Y-80209819D02*
X83096304Y-80209819D01*
X84620114Y-80209819D02*
X84620114Y-79209819D01*
X84620114Y-79590771D02*
X84715352Y-79543152D01*
X84715352Y-79543152D02*
X84905828Y-79543152D01*
X84905828Y-79543152D02*
X85001066Y-79590771D01*
X85001066Y-79590771D02*
X85048685Y-79638390D01*
X85048685Y-79638390D02*
X85096304Y-79733628D01*
X85096304Y-79733628D02*
X85096304Y-80019342D01*
X85096304Y-80019342D02*
X85048685Y-80114580D01*
X85048685Y-80114580D02*
X85001066Y-80162200D01*
X85001066Y-80162200D02*
X84905828Y-80209819D01*
X84905828Y-80209819D02*
X84715352Y-80209819D01*
X84715352Y-80209819D02*
X84620114Y-80162200D01*
X85667733Y-80209819D02*
X85572495Y-80162200D01*
X85572495Y-80162200D02*
X85524876Y-80114580D01*
X85524876Y-80114580D02*
X85477257Y-80019342D01*
X85477257Y-80019342D02*
X85477257Y-79733628D01*
X85477257Y-79733628D02*
X85524876Y-79638390D01*
X85524876Y-79638390D02*
X85572495Y-79590771D01*
X85572495Y-79590771D02*
X85667733Y-79543152D01*
X85667733Y-79543152D02*
X85810590Y-79543152D01*
X85810590Y-79543152D02*
X85905828Y-79590771D01*
X85905828Y-79590771D02*
X85953447Y-79638390D01*
X85953447Y-79638390D02*
X86001066Y-79733628D01*
X86001066Y-79733628D02*
X86001066Y-80019342D01*
X86001066Y-80019342D02*
X85953447Y-80114580D01*
X85953447Y-80114580D02*
X85905828Y-80162200D01*
X85905828Y-80162200D02*
X85810590Y-80209819D01*
X85810590Y-80209819D02*
X85667733Y-80209819D01*
X86858209Y-80209819D02*
X86858209Y-79686009D01*
X86858209Y-79686009D02*
X86810590Y-79590771D01*
X86810590Y-79590771D02*
X86715352Y-79543152D01*
X86715352Y-79543152D02*
X86524876Y-79543152D01*
X86524876Y-79543152D02*
X86429638Y-79590771D01*
X86858209Y-80162200D02*
X86762971Y-80209819D01*
X86762971Y-80209819D02*
X86524876Y-80209819D01*
X86524876Y-80209819D02*
X86429638Y-80162200D01*
X86429638Y-80162200D02*
X86382019Y-80066961D01*
X86382019Y-80066961D02*
X86382019Y-79971723D01*
X86382019Y-79971723D02*
X86429638Y-79876485D01*
X86429638Y-79876485D02*
X86524876Y-79828866D01*
X86524876Y-79828866D02*
X86762971Y-79828866D01*
X86762971Y-79828866D02*
X86858209Y-79781247D01*
X87334400Y-80209819D02*
X87334400Y-79543152D01*
X87334400Y-79733628D02*
X87382019Y-79638390D01*
X87382019Y-79638390D02*
X87429638Y-79590771D01*
X87429638Y-79590771D02*
X87524876Y-79543152D01*
X87524876Y-79543152D02*
X87620114Y-79543152D01*
X88382019Y-80209819D02*
X88382019Y-79209819D01*
X88382019Y-80162200D02*
X88286781Y-80209819D01*
X88286781Y-80209819D02*
X88096305Y-80209819D01*
X88096305Y-80209819D02*
X88001067Y-80162200D01*
X88001067Y-80162200D02*
X87953448Y-80114580D01*
X87953448Y-80114580D02*
X87905829Y-80019342D01*
X87905829Y-80019342D02*
X87905829Y-79733628D01*
X87905829Y-79733628D02*
X87953448Y-79638390D01*
X87953448Y-79638390D02*
X88001067Y-79590771D01*
X88001067Y-79590771D02*
X88096305Y-79543152D01*
X88096305Y-79543152D02*
X88286781Y-79543152D01*
X88286781Y-79543152D02*
X88382019Y-79590771D01*
X114047438Y-77079411D02*
X113999819Y-77174649D01*
X113999819Y-77174649D02*
X113999819Y-77317506D01*
X113999819Y-77317506D02*
X114047438Y-77460363D01*
X114047438Y-77460363D02*
X114142676Y-77555601D01*
X114142676Y-77555601D02*
X114237914Y-77603220D01*
X114237914Y-77603220D02*
X114428390Y-77650839D01*
X114428390Y-77650839D02*
X114571247Y-77650839D01*
X114571247Y-77650839D02*
X114761723Y-77603220D01*
X114761723Y-77603220D02*
X114856961Y-77555601D01*
X114856961Y-77555601D02*
X114952200Y-77460363D01*
X114952200Y-77460363D02*
X114999819Y-77317506D01*
X114999819Y-77317506D02*
X114999819Y-77222268D01*
X114999819Y-77222268D02*
X114952200Y-77079411D01*
X114952200Y-77079411D02*
X114904580Y-77031792D01*
X114904580Y-77031792D02*
X114571247Y-77031792D01*
X114571247Y-77031792D02*
X114571247Y-77222268D01*
X114999819Y-76603220D02*
X113999819Y-76603220D01*
X113999819Y-76603220D02*
X114999819Y-76031792D01*
X114999819Y-76031792D02*
X113999819Y-76031792D01*
X114999819Y-75555601D02*
X113999819Y-75555601D01*
X113999819Y-75555601D02*
X113999819Y-75317506D01*
X113999819Y-75317506D02*
X114047438Y-75174649D01*
X114047438Y-75174649D02*
X114142676Y-75079411D01*
X114142676Y-75079411D02*
X114237914Y-75031792D01*
X114237914Y-75031792D02*
X114428390Y-74984173D01*
X114428390Y-74984173D02*
X114571247Y-74984173D01*
X114571247Y-74984173D02*
X114761723Y-75031792D01*
X114761723Y-75031792D02*
X114856961Y-75079411D01*
X114856961Y-75079411D02*
X114952200Y-75174649D01*
X114952200Y-75174649D02*
X114999819Y-75317506D01*
X114999819Y-75317506D02*
X114999819Y-75555601D01*
X112459819Y-77079411D02*
X112459819Y-77650839D01*
X112459819Y-77365125D02*
X111459819Y-77365125D01*
X111459819Y-77365125D02*
X111602676Y-77460363D01*
X111602676Y-77460363D02*
X111697914Y-77555601D01*
X111697914Y-77555601D02*
X111745533Y-77650839D01*
X111459819Y-76746077D02*
X112459819Y-76507982D01*
X112459819Y-76507982D02*
X111745533Y-76317506D01*
X111745533Y-76317506D02*
X112459819Y-76127030D01*
X112459819Y-76127030D02*
X111459819Y-75888935D01*
X109824580Y-77041792D02*
X109872200Y-77089411D01*
X109872200Y-77089411D02*
X109919819Y-77232268D01*
X109919819Y-77232268D02*
X109919819Y-77327506D01*
X109919819Y-77327506D02*
X109872200Y-77470363D01*
X109872200Y-77470363D02*
X109776961Y-77565601D01*
X109776961Y-77565601D02*
X109681723Y-77613220D01*
X109681723Y-77613220D02*
X109491247Y-77660839D01*
X109491247Y-77660839D02*
X109348390Y-77660839D01*
X109348390Y-77660839D02*
X109157914Y-77613220D01*
X109157914Y-77613220D02*
X109062676Y-77565601D01*
X109062676Y-77565601D02*
X108967438Y-77470363D01*
X108967438Y-77470363D02*
X108919819Y-77327506D01*
X108919819Y-77327506D02*
X108919819Y-77232268D01*
X108919819Y-77232268D02*
X108967438Y-77089411D01*
X108967438Y-77089411D02*
X109015057Y-77041792D01*
X108919819Y-76422744D02*
X108919819Y-76327506D01*
X108919819Y-76327506D02*
X108967438Y-76232268D01*
X108967438Y-76232268D02*
X109015057Y-76184649D01*
X109015057Y-76184649D02*
X109110295Y-76137030D01*
X109110295Y-76137030D02*
X109300771Y-76089411D01*
X109300771Y-76089411D02*
X109538866Y-76089411D01*
X109538866Y-76089411D02*
X109729342Y-76137030D01*
X109729342Y-76137030D02*
X109824580Y-76184649D01*
X109824580Y-76184649D02*
X109872200Y-76232268D01*
X109872200Y-76232268D02*
X109919819Y-76327506D01*
X109919819Y-76327506D02*
X109919819Y-76422744D01*
X109919819Y-76422744D02*
X109872200Y-76517982D01*
X109872200Y-76517982D02*
X109824580Y-76565601D01*
X109824580Y-76565601D02*
X109729342Y-76613220D01*
X109729342Y-76613220D02*
X109538866Y-76660839D01*
X109538866Y-76660839D02*
X109300771Y-76660839D01*
X109300771Y-76660839D02*
X109110295Y-76613220D01*
X109110295Y-76613220D02*
X109015057Y-76565601D01*
X109015057Y-76565601D02*
X108967438Y-76517982D01*
X108967438Y-76517982D02*
X108919819Y-76422744D01*
X107284580Y-77041792D02*
X107332200Y-77089411D01*
X107332200Y-77089411D02*
X107379819Y-77232268D01*
X107379819Y-77232268D02*
X107379819Y-77327506D01*
X107379819Y-77327506D02*
X107332200Y-77470363D01*
X107332200Y-77470363D02*
X107236961Y-77565601D01*
X107236961Y-77565601D02*
X107141723Y-77613220D01*
X107141723Y-77613220D02*
X106951247Y-77660839D01*
X106951247Y-77660839D02*
X106808390Y-77660839D01*
X106808390Y-77660839D02*
X106617914Y-77613220D01*
X106617914Y-77613220D02*
X106522676Y-77565601D01*
X106522676Y-77565601D02*
X106427438Y-77470363D01*
X106427438Y-77470363D02*
X106379819Y-77327506D01*
X106379819Y-77327506D02*
X106379819Y-77232268D01*
X106379819Y-77232268D02*
X106427438Y-77089411D01*
X106427438Y-77089411D02*
X106475057Y-77041792D01*
X107379819Y-76089411D02*
X107379819Y-76660839D01*
X107379819Y-76375125D02*
X106379819Y-76375125D01*
X106379819Y-76375125D02*
X106522676Y-76470363D01*
X106522676Y-76470363D02*
X106617914Y-76565601D01*
X106617914Y-76565601D02*
X106665533Y-76660839D01*
X104839819Y-77041792D02*
X104363628Y-77375125D01*
X104839819Y-77613220D02*
X103839819Y-77613220D01*
X103839819Y-77613220D02*
X103839819Y-77232268D01*
X103839819Y-77232268D02*
X103887438Y-77137030D01*
X103887438Y-77137030D02*
X103935057Y-77089411D01*
X103935057Y-77089411D02*
X104030295Y-77041792D01*
X104030295Y-77041792D02*
X104173152Y-77041792D01*
X104173152Y-77041792D02*
X104268390Y-77089411D01*
X104268390Y-77089411D02*
X104316009Y-77137030D01*
X104316009Y-77137030D02*
X104363628Y-77232268D01*
X104363628Y-77232268D02*
X104363628Y-77613220D01*
X103839819Y-76708458D02*
X104839819Y-76041792D01*
X103839819Y-76041792D02*
X104839819Y-76708458D01*
X101299819Y-77756077D02*
X101299819Y-77184649D01*
X102299819Y-77470363D02*
X101299819Y-77470363D01*
X101299819Y-76946553D02*
X102299819Y-76279887D01*
X101299819Y-76279887D02*
X102299819Y-76946553D01*
X99712200Y-77660839D02*
X99759819Y-77517982D01*
X99759819Y-77517982D02*
X99759819Y-77279887D01*
X99759819Y-77279887D02*
X99712200Y-77184649D01*
X99712200Y-77184649D02*
X99664580Y-77137030D01*
X99664580Y-77137030D02*
X99569342Y-77089411D01*
X99569342Y-77089411D02*
X99474104Y-77089411D01*
X99474104Y-77089411D02*
X99378866Y-77137030D01*
X99378866Y-77137030D02*
X99331247Y-77184649D01*
X99331247Y-77184649D02*
X99283628Y-77279887D01*
X99283628Y-77279887D02*
X99236009Y-77470363D01*
X99236009Y-77470363D02*
X99188390Y-77565601D01*
X99188390Y-77565601D02*
X99140771Y-77613220D01*
X99140771Y-77613220D02*
X99045533Y-77660839D01*
X99045533Y-77660839D02*
X98950295Y-77660839D01*
X98950295Y-77660839D02*
X98855057Y-77613220D01*
X98855057Y-77613220D02*
X98807438Y-77565601D01*
X98807438Y-77565601D02*
X98759819Y-77470363D01*
X98759819Y-77470363D02*
X98759819Y-77232268D01*
X98759819Y-77232268D02*
X98807438Y-77089411D01*
X99759819Y-76660839D02*
X98759819Y-76660839D01*
X98759819Y-75994173D02*
X98759819Y-75803697D01*
X98759819Y-75803697D02*
X98807438Y-75708459D01*
X98807438Y-75708459D02*
X98902676Y-75613221D01*
X98902676Y-75613221D02*
X99093152Y-75565602D01*
X99093152Y-75565602D02*
X99426485Y-75565602D01*
X99426485Y-75565602D02*
X99616961Y-75613221D01*
X99616961Y-75613221D02*
X99712200Y-75708459D01*
X99712200Y-75708459D02*
X99759819Y-75803697D01*
X99759819Y-75803697D02*
X99759819Y-75994173D01*
X99759819Y-75994173D02*
X99712200Y-76089411D01*
X99712200Y-76089411D02*
X99616961Y-76184649D01*
X99616961Y-76184649D02*
X99426485Y-76232268D01*
X99426485Y-76232268D02*
X99093152Y-76232268D01*
X99093152Y-76232268D02*
X98902676Y-76184649D01*
X98902676Y-76184649D02*
X98807438Y-76089411D01*
X98807438Y-76089411D02*
X98759819Y-75994173D01*
X96267438Y-77089411D02*
X96219819Y-77184649D01*
X96219819Y-77184649D02*
X96219819Y-77327506D01*
X96219819Y-77327506D02*
X96267438Y-77470363D01*
X96267438Y-77470363D02*
X96362676Y-77565601D01*
X96362676Y-77565601D02*
X96457914Y-77613220D01*
X96457914Y-77613220D02*
X96648390Y-77660839D01*
X96648390Y-77660839D02*
X96791247Y-77660839D01*
X96791247Y-77660839D02*
X96981723Y-77613220D01*
X96981723Y-77613220D02*
X97076961Y-77565601D01*
X97076961Y-77565601D02*
X97172200Y-77470363D01*
X97172200Y-77470363D02*
X97219819Y-77327506D01*
X97219819Y-77327506D02*
X97219819Y-77232268D01*
X97219819Y-77232268D02*
X97172200Y-77089411D01*
X97172200Y-77089411D02*
X97124580Y-77041792D01*
X97124580Y-77041792D02*
X96791247Y-77041792D01*
X96791247Y-77041792D02*
X96791247Y-77232268D01*
X97219819Y-76613220D02*
X96219819Y-76613220D01*
X96219819Y-76613220D02*
X97219819Y-76041792D01*
X97219819Y-76041792D02*
X96219819Y-76041792D01*
X97219819Y-75565601D02*
X96219819Y-75565601D01*
X96219819Y-75565601D02*
X96219819Y-75327506D01*
X96219819Y-75327506D02*
X96267438Y-75184649D01*
X96267438Y-75184649D02*
X96362676Y-75089411D01*
X96362676Y-75089411D02*
X96457914Y-75041792D01*
X96457914Y-75041792D02*
X96648390Y-74994173D01*
X96648390Y-74994173D02*
X96791247Y-74994173D01*
X96791247Y-74994173D02*
X96981723Y-75041792D01*
X96981723Y-75041792D02*
X97076961Y-75089411D01*
X97076961Y-75089411D02*
X97172200Y-75184649D01*
X97172200Y-75184649D02*
X97219819Y-75327506D01*
X97219819Y-75327506D02*
X97219819Y-75565601D01*
X94632200Y-77660839D02*
X94679819Y-77517982D01*
X94679819Y-77517982D02*
X94679819Y-77279887D01*
X94679819Y-77279887D02*
X94632200Y-77184649D01*
X94632200Y-77184649D02*
X94584580Y-77137030D01*
X94584580Y-77137030D02*
X94489342Y-77089411D01*
X94489342Y-77089411D02*
X94394104Y-77089411D01*
X94394104Y-77089411D02*
X94298866Y-77137030D01*
X94298866Y-77137030D02*
X94251247Y-77184649D01*
X94251247Y-77184649D02*
X94203628Y-77279887D01*
X94203628Y-77279887D02*
X94156009Y-77470363D01*
X94156009Y-77470363D02*
X94108390Y-77565601D01*
X94108390Y-77565601D02*
X94060771Y-77613220D01*
X94060771Y-77613220D02*
X93965533Y-77660839D01*
X93965533Y-77660839D02*
X93870295Y-77660839D01*
X93870295Y-77660839D02*
X93775057Y-77613220D01*
X93775057Y-77613220D02*
X93727438Y-77565601D01*
X93727438Y-77565601D02*
X93679819Y-77470363D01*
X93679819Y-77470363D02*
X93679819Y-77232268D01*
X93679819Y-77232268D02*
X93727438Y-77089411D01*
X93679819Y-76756077D02*
X94679819Y-76517982D01*
X94679819Y-76517982D02*
X93965533Y-76327506D01*
X93965533Y-76327506D02*
X94679819Y-76137030D01*
X94679819Y-76137030D02*
X93679819Y-75898935D01*
X94584580Y-74946554D02*
X94632200Y-74994173D01*
X94632200Y-74994173D02*
X94679819Y-75137030D01*
X94679819Y-75137030D02*
X94679819Y-75232268D01*
X94679819Y-75232268D02*
X94632200Y-75375125D01*
X94632200Y-75375125D02*
X94536961Y-75470363D01*
X94536961Y-75470363D02*
X94441723Y-75517982D01*
X94441723Y-75517982D02*
X94251247Y-75565601D01*
X94251247Y-75565601D02*
X94108390Y-75565601D01*
X94108390Y-75565601D02*
X93917914Y-75517982D01*
X93917914Y-75517982D02*
X93822676Y-75470363D01*
X93822676Y-75470363D02*
X93727438Y-75375125D01*
X93727438Y-75375125D02*
X93679819Y-75232268D01*
X93679819Y-75232268D02*
X93679819Y-75137030D01*
X93679819Y-75137030D02*
X93727438Y-74994173D01*
X93727438Y-74994173D02*
X93775057Y-74946554D01*
X91139819Y-77708458D02*
X91139819Y-77089411D01*
X91139819Y-77089411D02*
X91520771Y-77422744D01*
X91520771Y-77422744D02*
X91520771Y-77279887D01*
X91520771Y-77279887D02*
X91568390Y-77184649D01*
X91568390Y-77184649D02*
X91616009Y-77137030D01*
X91616009Y-77137030D02*
X91711247Y-77089411D01*
X91711247Y-77089411D02*
X91949342Y-77089411D01*
X91949342Y-77089411D02*
X92044580Y-77137030D01*
X92044580Y-77137030D02*
X92092200Y-77184649D01*
X92092200Y-77184649D02*
X92139819Y-77279887D01*
X92139819Y-77279887D02*
X92139819Y-77565601D01*
X92139819Y-77565601D02*
X92092200Y-77660839D01*
X92092200Y-77660839D02*
X92044580Y-77708458D01*
X91139819Y-76803696D02*
X92139819Y-76470363D01*
X92139819Y-76470363D02*
X91139819Y-76137030D01*
X91139819Y-75898934D02*
X91139819Y-75279887D01*
X91139819Y-75279887D02*
X91520771Y-75613220D01*
X91520771Y-75613220D02*
X91520771Y-75470363D01*
X91520771Y-75470363D02*
X91568390Y-75375125D01*
X91568390Y-75375125D02*
X91616009Y-75327506D01*
X91616009Y-75327506D02*
X91711247Y-75279887D01*
X91711247Y-75279887D02*
X91949342Y-75279887D01*
X91949342Y-75279887D02*
X92044580Y-75327506D01*
X92044580Y-75327506D02*
X92092200Y-75375125D01*
X92092200Y-75375125D02*
X92139819Y-75470363D01*
X92139819Y-75470363D02*
X92139819Y-75756077D01*
X92139819Y-75756077D02*
X92092200Y-75851315D01*
X92092200Y-75851315D02*
X92044580Y-75898934D01*
X73407438Y-77069411D02*
X73359819Y-77164649D01*
X73359819Y-77164649D02*
X73359819Y-77307506D01*
X73359819Y-77307506D02*
X73407438Y-77450363D01*
X73407438Y-77450363D02*
X73502676Y-77545601D01*
X73502676Y-77545601D02*
X73597914Y-77593220D01*
X73597914Y-77593220D02*
X73788390Y-77640839D01*
X73788390Y-77640839D02*
X73931247Y-77640839D01*
X73931247Y-77640839D02*
X74121723Y-77593220D01*
X74121723Y-77593220D02*
X74216961Y-77545601D01*
X74216961Y-77545601D02*
X74312200Y-77450363D01*
X74312200Y-77450363D02*
X74359819Y-77307506D01*
X74359819Y-77307506D02*
X74359819Y-77212268D01*
X74359819Y-77212268D02*
X74312200Y-77069411D01*
X74312200Y-77069411D02*
X74264580Y-77021792D01*
X74264580Y-77021792D02*
X73931247Y-77021792D01*
X73931247Y-77021792D02*
X73931247Y-77212268D01*
X74359819Y-76593220D02*
X73359819Y-76593220D01*
X73359819Y-76593220D02*
X74359819Y-76021792D01*
X74359819Y-76021792D02*
X73359819Y-76021792D01*
X74359819Y-75545601D02*
X73359819Y-75545601D01*
X73359819Y-75545601D02*
X73359819Y-75307506D01*
X73359819Y-75307506D02*
X73407438Y-75164649D01*
X73407438Y-75164649D02*
X73502676Y-75069411D01*
X73502676Y-75069411D02*
X73597914Y-75021792D01*
X73597914Y-75021792D02*
X73788390Y-74974173D01*
X73788390Y-74974173D02*
X73931247Y-74974173D01*
X73931247Y-74974173D02*
X74121723Y-75021792D01*
X74121723Y-75021792D02*
X74216961Y-75069411D01*
X74216961Y-75069411D02*
X74312200Y-75164649D01*
X74312200Y-75164649D02*
X74359819Y-75307506D01*
X74359819Y-75307506D02*
X74359819Y-75545601D01*
X71724580Y-77031792D02*
X71772200Y-77079411D01*
X71772200Y-77079411D02*
X71819819Y-77222268D01*
X71819819Y-77222268D02*
X71819819Y-77317506D01*
X71819819Y-77317506D02*
X71772200Y-77460363D01*
X71772200Y-77460363D02*
X71676961Y-77555601D01*
X71676961Y-77555601D02*
X71581723Y-77603220D01*
X71581723Y-77603220D02*
X71391247Y-77650839D01*
X71391247Y-77650839D02*
X71248390Y-77650839D01*
X71248390Y-77650839D02*
X71057914Y-77603220D01*
X71057914Y-77603220D02*
X70962676Y-77555601D01*
X70962676Y-77555601D02*
X70867438Y-77460363D01*
X70867438Y-77460363D02*
X70819819Y-77317506D01*
X70819819Y-77317506D02*
X70819819Y-77222268D01*
X70819819Y-77222268D02*
X70867438Y-77079411D01*
X70867438Y-77079411D02*
X70915057Y-77031792D01*
X70819819Y-76698458D02*
X70819819Y-76079411D01*
X70819819Y-76079411D02*
X71200771Y-76412744D01*
X71200771Y-76412744D02*
X71200771Y-76269887D01*
X71200771Y-76269887D02*
X71248390Y-76174649D01*
X71248390Y-76174649D02*
X71296009Y-76127030D01*
X71296009Y-76127030D02*
X71391247Y-76079411D01*
X71391247Y-76079411D02*
X71629342Y-76079411D01*
X71629342Y-76079411D02*
X71724580Y-76127030D01*
X71724580Y-76127030D02*
X71772200Y-76174649D01*
X71772200Y-76174649D02*
X71819819Y-76269887D01*
X71819819Y-76269887D02*
X71819819Y-76555601D01*
X71819819Y-76555601D02*
X71772200Y-76650839D01*
X71772200Y-76650839D02*
X71724580Y-76698458D01*
X68756009Y-77269887D02*
X68803628Y-77127030D01*
X68803628Y-77127030D02*
X68851247Y-77079411D01*
X68851247Y-77079411D02*
X68946485Y-77031792D01*
X68946485Y-77031792D02*
X69089342Y-77031792D01*
X69089342Y-77031792D02*
X69184580Y-77079411D01*
X69184580Y-77079411D02*
X69232200Y-77127030D01*
X69232200Y-77127030D02*
X69279819Y-77222268D01*
X69279819Y-77222268D02*
X69279819Y-77603220D01*
X69279819Y-77603220D02*
X68279819Y-77603220D01*
X68279819Y-77603220D02*
X68279819Y-77269887D01*
X68279819Y-77269887D02*
X68327438Y-77174649D01*
X68327438Y-77174649D02*
X68375057Y-77127030D01*
X68375057Y-77127030D02*
X68470295Y-77079411D01*
X68470295Y-77079411D02*
X68565533Y-77079411D01*
X68565533Y-77079411D02*
X68660771Y-77127030D01*
X68660771Y-77127030D02*
X68708390Y-77174649D01*
X68708390Y-77174649D02*
X68756009Y-77269887D01*
X68756009Y-77269887D02*
X68756009Y-77603220D01*
X68375057Y-76650839D02*
X68327438Y-76603220D01*
X68327438Y-76603220D02*
X68279819Y-76507982D01*
X68279819Y-76507982D02*
X68279819Y-76269887D01*
X68279819Y-76269887D02*
X68327438Y-76174649D01*
X68327438Y-76174649D02*
X68375057Y-76127030D01*
X68375057Y-76127030D02*
X68470295Y-76079411D01*
X68470295Y-76079411D02*
X68565533Y-76079411D01*
X68565533Y-76079411D02*
X68708390Y-76127030D01*
X68708390Y-76127030D02*
X69279819Y-76698458D01*
X69279819Y-76698458D02*
X69279819Y-76079411D01*
X66216009Y-77269887D02*
X66263628Y-77127030D01*
X66263628Y-77127030D02*
X66311247Y-77079411D01*
X66311247Y-77079411D02*
X66406485Y-77031792D01*
X66406485Y-77031792D02*
X66549342Y-77031792D01*
X66549342Y-77031792D02*
X66644580Y-77079411D01*
X66644580Y-77079411D02*
X66692200Y-77127030D01*
X66692200Y-77127030D02*
X66739819Y-77222268D01*
X66739819Y-77222268D02*
X66739819Y-77603220D01*
X66739819Y-77603220D02*
X65739819Y-77603220D01*
X65739819Y-77603220D02*
X65739819Y-77269887D01*
X65739819Y-77269887D02*
X65787438Y-77174649D01*
X65787438Y-77174649D02*
X65835057Y-77127030D01*
X65835057Y-77127030D02*
X65930295Y-77079411D01*
X65930295Y-77079411D02*
X66025533Y-77079411D01*
X66025533Y-77079411D02*
X66120771Y-77127030D01*
X66120771Y-77127030D02*
X66168390Y-77174649D01*
X66168390Y-77174649D02*
X66216009Y-77269887D01*
X66216009Y-77269887D02*
X66216009Y-77603220D01*
X65739819Y-76698458D02*
X65739819Y-76079411D01*
X65739819Y-76079411D02*
X66120771Y-76412744D01*
X66120771Y-76412744D02*
X66120771Y-76269887D01*
X66120771Y-76269887D02*
X66168390Y-76174649D01*
X66168390Y-76174649D02*
X66216009Y-76127030D01*
X66216009Y-76127030D02*
X66311247Y-76079411D01*
X66311247Y-76079411D02*
X66549342Y-76079411D01*
X66549342Y-76079411D02*
X66644580Y-76127030D01*
X66644580Y-76127030D02*
X66692200Y-76174649D01*
X66692200Y-76174649D02*
X66739819Y-76269887D01*
X66739819Y-76269887D02*
X66739819Y-76555601D01*
X66739819Y-76555601D02*
X66692200Y-76650839D01*
X66692200Y-76650839D02*
X66644580Y-76698458D01*
X63914104Y-77650839D02*
X63914104Y-77174649D01*
X64199819Y-77746077D02*
X63199819Y-77412744D01*
X63199819Y-77412744D02*
X64199819Y-77079411D01*
X63533152Y-76317506D02*
X64199819Y-76317506D01*
X63152200Y-76555601D02*
X63866485Y-76793696D01*
X63866485Y-76793696D02*
X63866485Y-76174649D01*
X61374104Y-77650839D02*
X61374104Y-77174649D01*
X61659819Y-77746077D02*
X60659819Y-77412744D01*
X60659819Y-77412744D02*
X61659819Y-77079411D01*
X60659819Y-76317506D02*
X60659819Y-76507982D01*
X60659819Y-76507982D02*
X60707438Y-76603220D01*
X60707438Y-76603220D02*
X60755057Y-76650839D01*
X60755057Y-76650839D02*
X60897914Y-76746077D01*
X60897914Y-76746077D02*
X61088390Y-76793696D01*
X61088390Y-76793696D02*
X61469342Y-76793696D01*
X61469342Y-76793696D02*
X61564580Y-76746077D01*
X61564580Y-76746077D02*
X61612200Y-76698458D01*
X61612200Y-76698458D02*
X61659819Y-76603220D01*
X61659819Y-76603220D02*
X61659819Y-76412744D01*
X61659819Y-76412744D02*
X61612200Y-76317506D01*
X61612200Y-76317506D02*
X61564580Y-76269887D01*
X61564580Y-76269887D02*
X61469342Y-76222268D01*
X61469342Y-76222268D02*
X61231247Y-76222268D01*
X61231247Y-76222268D02*
X61136009Y-76269887D01*
X61136009Y-76269887D02*
X61088390Y-76317506D01*
X61088390Y-76317506D02*
X61040771Y-76412744D01*
X61040771Y-76412744D02*
X61040771Y-76603220D01*
X61040771Y-76603220D02*
X61088390Y-76698458D01*
X61088390Y-76698458D02*
X61136009Y-76746077D01*
X61136009Y-76746077D02*
X61231247Y-76793696D01*
X58844104Y-77650839D02*
X58844104Y-77174649D01*
X59129819Y-77746077D02*
X58129819Y-77412744D01*
X58129819Y-77412744D02*
X59129819Y-77079411D01*
X58129819Y-76841315D02*
X58129819Y-76174649D01*
X58129819Y-76174649D02*
X59129819Y-76603220D01*
X55559819Y-77127030D02*
X55559819Y-77603220D01*
X55559819Y-77603220D02*
X56036009Y-77650839D01*
X56036009Y-77650839D02*
X55988390Y-77603220D01*
X55988390Y-77603220D02*
X55940771Y-77507982D01*
X55940771Y-77507982D02*
X55940771Y-77269887D01*
X55940771Y-77269887D02*
X55988390Y-77174649D01*
X55988390Y-77174649D02*
X56036009Y-77127030D01*
X56036009Y-77127030D02*
X56131247Y-77079411D01*
X56131247Y-77079411D02*
X56369342Y-77079411D01*
X56369342Y-77079411D02*
X56464580Y-77127030D01*
X56464580Y-77127030D02*
X56512200Y-77174649D01*
X56512200Y-77174649D02*
X56559819Y-77269887D01*
X56559819Y-77269887D02*
X56559819Y-77507982D01*
X56559819Y-77507982D02*
X56512200Y-77603220D01*
X56512200Y-77603220D02*
X56464580Y-77650839D01*
X55559819Y-76793696D02*
X56559819Y-76460363D01*
X56559819Y-76460363D02*
X55559819Y-76127030D01*
D11*
X100670000Y-70420000D02*
X100660000Y-83260000D01*
X103210000Y-70430000D02*
X103205000Y-83270000D01*
X105745000Y-70425000D02*
X105750000Y-83250000D01*
X108280000Y-70430000D02*
X108280000Y-83240000D01*
X110820000Y-70430000D02*
X110810000Y-83260000D01*
X115900000Y-62800000D02*
X115900000Y-72990000D01*
X113360000Y-62800000D02*
X115900000Y-62800000D01*
X113360000Y-70430000D02*
X113360000Y-62800000D01*
X113360000Y-70430000D02*
X113370000Y-83270000D01*
X98130000Y-70420000D02*
X113360000Y-70430000D01*
X98120000Y-62800000D02*
X98130000Y-83270000D01*
X95580000Y-62800000D02*
X98120000Y-62800000D01*
X95580000Y-70420000D02*
X95580000Y-62800000D01*
X95580000Y-70420000D02*
X95580000Y-72990000D01*
X93050000Y-70420000D02*
X95580000Y-70420000D01*
X95580000Y-72990000D02*
X95580000Y-83260000D01*
X93050000Y-72990000D02*
X93050000Y-83270000D01*
X115900000Y-77990000D02*
X90510000Y-78000000D01*
X90520000Y-80580000D02*
X115900000Y-80580000D01*
X90510000Y-62810000D02*
X90510000Y-72990000D01*
X90510000Y-62810000D02*
X93050000Y-62810000D01*
X93050000Y-62810000D02*
X93050000Y-72990000D01*
X75260000Y-62790000D02*
X75260000Y-72970000D01*
X72730000Y-62790000D02*
X75260000Y-62790000D01*
X72730000Y-70420000D02*
X72730000Y-62790000D01*
X72730000Y-70420000D02*
X72730000Y-72970000D01*
X57490000Y-70420000D02*
X72730000Y-70420000D01*
X54950000Y-62800000D02*
X54950000Y-72970000D01*
X57490000Y-62800000D02*
X57490000Y-72970000D01*
X54950000Y-62800000D02*
X57490000Y-62800000D01*
X57490000Y-72970000D02*
X57490000Y-80590000D01*
X60030000Y-70430000D02*
X60030000Y-80590000D01*
X62570000Y-70430000D02*
X62570000Y-80590000D01*
X65110000Y-70420000D02*
X65105000Y-80590000D01*
X67650000Y-70430000D02*
X67650000Y-80590000D01*
X70190000Y-70430000D02*
X70190000Y-80590000D01*
X72730000Y-72970000D02*
X72730000Y-80590000D01*
X54950000Y-80590000D02*
X75260000Y-80590000D01*
X54950000Y-77990000D02*
X75260000Y-77980000D01*
X90510000Y-72990000D02*
X115900000Y-72990000D01*
X115900000Y-83270000D01*
X90510000Y-83270000D01*
X90510000Y-72990000D01*
X54950000Y-72970000D02*
X75260000Y-72970000D01*
X75260000Y-83260000D01*
X54950000Y-83260000D01*
X54950000Y-72970000D01*
M02*
