%TF.GenerationSoftware,KiCad,Pcbnew,8.0.4*%
%TF.CreationDate,2024-10-06T22:56:45+03:00*%
%TF.ProjectId,Flipper Zero Protoboard mini,466c6970-7065-4722-905a-65726f205072,rev?*%
%TF.SameCoordinates,Original*%
%TF.FileFunction,Legend,Bot*%
%TF.FilePolarity,Positive*%
%FSLAX46Y46*%
G04 Gerber Fmt 4.6, Leading zero omitted, Abs format (unit mm)*
G04 Created by KiCad (PCBNEW 8.0.4) date 2024-10-06 22:56:45*
%MOMM*%
%LPD*%
G01*
G04 APERTURE LIST*
%ADD10C,0.150000*%
%ADD11C,0.250000*%
%ADD12C,0.000000*%
G04 APERTURE END LIST*
D10*
X115084649Y-74579572D02*
X114684649Y-74579572D01*
X114884649Y-75279572D02*
X114884649Y-74579572D01*
X114451316Y-75279572D02*
X114451316Y-74579572D01*
X114151316Y-75279572D02*
X114151316Y-74912905D01*
X114151316Y-74912905D02*
X114184649Y-74846239D01*
X114184649Y-74846239D02*
X114251316Y-74812905D01*
X114251316Y-74812905D02*
X114351316Y-74812905D01*
X114351316Y-74812905D02*
X114417983Y-74846239D01*
X114417983Y-74846239D02*
X114451316Y-74879572D01*
X113551316Y-75246239D02*
X113617983Y-75279572D01*
X113617983Y-75279572D02*
X113751316Y-75279572D01*
X113751316Y-75279572D02*
X113817983Y-75246239D01*
X113817983Y-75246239D02*
X113851316Y-75179572D01*
X113851316Y-75179572D02*
X113851316Y-74912905D01*
X113851316Y-74912905D02*
X113817983Y-74846239D01*
X113817983Y-74846239D02*
X113751316Y-74812905D01*
X113751316Y-74812905D02*
X113617983Y-74812905D01*
X113617983Y-74812905D02*
X113551316Y-74846239D01*
X113551316Y-74846239D02*
X113517983Y-74912905D01*
X113517983Y-74912905D02*
X113517983Y-74979572D01*
X113517983Y-74979572D02*
X113851316Y-75046239D01*
X113217983Y-75279572D02*
X113217983Y-74812905D01*
X113217983Y-74946239D02*
X113184650Y-74879572D01*
X113184650Y-74879572D02*
X113151316Y-74846239D01*
X113151316Y-74846239D02*
X113084650Y-74812905D01*
X113084650Y-74812905D02*
X113017983Y-74812905D01*
X112517983Y-75246239D02*
X112584650Y-75279572D01*
X112584650Y-75279572D02*
X112717983Y-75279572D01*
X112717983Y-75279572D02*
X112784650Y-75246239D01*
X112784650Y-75246239D02*
X112817983Y-75179572D01*
X112817983Y-75179572D02*
X112817983Y-74912905D01*
X112817983Y-74912905D02*
X112784650Y-74846239D01*
X112784650Y-74846239D02*
X112717983Y-74812905D01*
X112717983Y-74812905D02*
X112584650Y-74812905D01*
X112584650Y-74812905D02*
X112517983Y-74846239D01*
X112517983Y-74846239D02*
X112484650Y-74912905D01*
X112484650Y-74912905D02*
X112484650Y-74979572D01*
X112484650Y-74979572D02*
X112817983Y-75046239D01*
X111651317Y-75279572D02*
X111651317Y-74812905D01*
X111651317Y-74579572D02*
X111684650Y-74612905D01*
X111684650Y-74612905D02*
X111651317Y-74646239D01*
X111651317Y-74646239D02*
X111617984Y-74612905D01*
X111617984Y-74612905D02*
X111651317Y-74579572D01*
X111651317Y-74579572D02*
X111651317Y-74646239D01*
X111351317Y-75246239D02*
X111284651Y-75279572D01*
X111284651Y-75279572D02*
X111151317Y-75279572D01*
X111151317Y-75279572D02*
X111084651Y-75246239D01*
X111084651Y-75246239D02*
X111051317Y-75179572D01*
X111051317Y-75179572D02*
X111051317Y-75146239D01*
X111051317Y-75146239D02*
X111084651Y-75079572D01*
X111084651Y-75079572D02*
X111151317Y-75046239D01*
X111151317Y-75046239D02*
X111251317Y-75046239D01*
X111251317Y-75046239D02*
X111317984Y-75012905D01*
X111317984Y-75012905D02*
X111351317Y-74946239D01*
X111351317Y-74946239D02*
X111351317Y-74912905D01*
X111351317Y-74912905D02*
X111317984Y-74846239D01*
X111317984Y-74846239D02*
X111251317Y-74812905D01*
X111251317Y-74812905D02*
X111151317Y-74812905D01*
X111151317Y-74812905D02*
X111084651Y-74846239D01*
X110217984Y-75279572D02*
X110217984Y-74579572D01*
X110217984Y-74846239D02*
X110151317Y-74812905D01*
X110151317Y-74812905D02*
X110017984Y-74812905D01*
X110017984Y-74812905D02*
X109951317Y-74846239D01*
X109951317Y-74846239D02*
X109917984Y-74879572D01*
X109917984Y-74879572D02*
X109884651Y-74946239D01*
X109884651Y-74946239D02*
X109884651Y-75146239D01*
X109884651Y-75146239D02*
X109917984Y-75212905D01*
X109917984Y-75212905D02*
X109951317Y-75246239D01*
X109951317Y-75246239D02*
X110017984Y-75279572D01*
X110017984Y-75279572D02*
X110151317Y-75279572D01*
X110151317Y-75279572D02*
X110217984Y-75246239D01*
X109317984Y-75246239D02*
X109384651Y-75279572D01*
X109384651Y-75279572D02*
X109517984Y-75279572D01*
X109517984Y-75279572D02*
X109584651Y-75246239D01*
X109584651Y-75246239D02*
X109617984Y-75179572D01*
X109617984Y-75179572D02*
X109617984Y-74912905D01*
X109617984Y-74912905D02*
X109584651Y-74846239D01*
X109584651Y-74846239D02*
X109517984Y-74812905D01*
X109517984Y-74812905D02*
X109384651Y-74812905D01*
X109384651Y-74812905D02*
X109317984Y-74846239D01*
X109317984Y-74846239D02*
X109284651Y-74912905D01*
X109284651Y-74912905D02*
X109284651Y-74979572D01*
X109284651Y-74979572D02*
X109617984Y-75046239D01*
X108684651Y-75279572D02*
X108684651Y-74912905D01*
X108684651Y-74912905D02*
X108717984Y-74846239D01*
X108717984Y-74846239D02*
X108784651Y-74812905D01*
X108784651Y-74812905D02*
X108917984Y-74812905D01*
X108917984Y-74812905D02*
X108984651Y-74846239D01*
X108684651Y-75246239D02*
X108751318Y-75279572D01*
X108751318Y-75279572D02*
X108917984Y-75279572D01*
X108917984Y-75279572D02*
X108984651Y-75246239D01*
X108984651Y-75246239D02*
X109017984Y-75179572D01*
X109017984Y-75179572D02*
X109017984Y-75112905D01*
X109017984Y-75112905D02*
X108984651Y-75046239D01*
X108984651Y-75046239D02*
X108917984Y-75012905D01*
X108917984Y-75012905D02*
X108751318Y-75012905D01*
X108751318Y-75012905D02*
X108684651Y-74979572D01*
X108051318Y-74812905D02*
X108051318Y-75279572D01*
X108351318Y-74812905D02*
X108351318Y-75179572D01*
X108351318Y-75179572D02*
X108317985Y-75246239D01*
X108317985Y-75246239D02*
X108251318Y-75279572D01*
X108251318Y-75279572D02*
X108151318Y-75279572D01*
X108151318Y-75279572D02*
X108084651Y-75246239D01*
X108084651Y-75246239D02*
X108051318Y-75212905D01*
X107817985Y-74812905D02*
X107551318Y-74812905D01*
X107717985Y-74579572D02*
X107717985Y-75179572D01*
X107717985Y-75179572D02*
X107684652Y-75246239D01*
X107684652Y-75246239D02*
X107617985Y-75279572D01*
X107617985Y-75279572D02*
X107551318Y-75279572D01*
X107384652Y-74812905D02*
X107217985Y-75279572D01*
X107051318Y-74812905D02*
X107217985Y-75279572D01*
X107217985Y-75279572D02*
X107284652Y-75446239D01*
X107284652Y-75446239D02*
X107317985Y-75479572D01*
X107317985Y-75479572D02*
X107384652Y-75512905D01*
X106251319Y-75279572D02*
X106251319Y-74812905D01*
X106251319Y-74579572D02*
X106284652Y-74612905D01*
X106284652Y-74612905D02*
X106251319Y-74646239D01*
X106251319Y-74646239D02*
X106217986Y-74612905D01*
X106217986Y-74612905D02*
X106251319Y-74579572D01*
X106251319Y-74579572D02*
X106251319Y-74646239D01*
X105917986Y-74812905D02*
X105917986Y-75279572D01*
X105917986Y-74879572D02*
X105884653Y-74846239D01*
X105884653Y-74846239D02*
X105817986Y-74812905D01*
X105817986Y-74812905D02*
X105717986Y-74812905D01*
X105717986Y-74812905D02*
X105651319Y-74846239D01*
X105651319Y-74846239D02*
X105617986Y-74912905D01*
X105617986Y-74912905D02*
X105617986Y-75279572D01*
X104851320Y-74812905D02*
X104584653Y-74812905D01*
X104751320Y-74579572D02*
X104751320Y-75179572D01*
X104751320Y-75179572D02*
X104717987Y-75246239D01*
X104717987Y-75246239D02*
X104651320Y-75279572D01*
X104651320Y-75279572D02*
X104584653Y-75279572D01*
X104351320Y-75279572D02*
X104351320Y-74579572D01*
X104051320Y-75279572D02*
X104051320Y-74912905D01*
X104051320Y-74912905D02*
X104084653Y-74846239D01*
X104084653Y-74846239D02*
X104151320Y-74812905D01*
X104151320Y-74812905D02*
X104251320Y-74812905D01*
X104251320Y-74812905D02*
X104317987Y-74846239D01*
X104317987Y-74846239D02*
X104351320Y-74879572D01*
X103717987Y-75279572D02*
X103717987Y-74812905D01*
X103717987Y-74579572D02*
X103751320Y-74612905D01*
X103751320Y-74612905D02*
X103717987Y-74646239D01*
X103717987Y-74646239D02*
X103684654Y-74612905D01*
X103684654Y-74612905D02*
X103717987Y-74579572D01*
X103717987Y-74579572D02*
X103717987Y-74646239D01*
X103417987Y-75246239D02*
X103351321Y-75279572D01*
X103351321Y-75279572D02*
X103217987Y-75279572D01*
X103217987Y-75279572D02*
X103151321Y-75246239D01*
X103151321Y-75246239D02*
X103117987Y-75179572D01*
X103117987Y-75179572D02*
X103117987Y-75146239D01*
X103117987Y-75146239D02*
X103151321Y-75079572D01*
X103151321Y-75079572D02*
X103217987Y-75046239D01*
X103217987Y-75046239D02*
X103317987Y-75046239D01*
X103317987Y-75046239D02*
X103384654Y-75012905D01*
X103384654Y-75012905D02*
X103417987Y-74946239D01*
X103417987Y-74946239D02*
X103417987Y-74912905D01*
X103417987Y-74912905D02*
X103384654Y-74846239D01*
X103384654Y-74846239D02*
X103317987Y-74812905D01*
X103317987Y-74812905D02*
X103217987Y-74812905D01*
X103217987Y-74812905D02*
X103151321Y-74846239D01*
X101984654Y-75279572D02*
X101984654Y-74579572D01*
X101984654Y-75246239D02*
X102051321Y-75279572D01*
X102051321Y-75279572D02*
X102184654Y-75279572D01*
X102184654Y-75279572D02*
X102251321Y-75246239D01*
X102251321Y-75246239D02*
X102284654Y-75212905D01*
X102284654Y-75212905D02*
X102317987Y-75146239D01*
X102317987Y-75146239D02*
X102317987Y-74946239D01*
X102317987Y-74946239D02*
X102284654Y-74879572D01*
X102284654Y-74879572D02*
X102251321Y-74846239D01*
X102251321Y-74846239D02*
X102184654Y-74812905D01*
X102184654Y-74812905D02*
X102051321Y-74812905D01*
X102051321Y-74812905D02*
X101984654Y-74846239D01*
X101351321Y-75279572D02*
X101351321Y-74912905D01*
X101351321Y-74912905D02*
X101384654Y-74846239D01*
X101384654Y-74846239D02*
X101451321Y-74812905D01*
X101451321Y-74812905D02*
X101584654Y-74812905D01*
X101584654Y-74812905D02*
X101651321Y-74846239D01*
X101351321Y-75246239D02*
X101417988Y-75279572D01*
X101417988Y-75279572D02*
X101584654Y-75279572D01*
X101584654Y-75279572D02*
X101651321Y-75246239D01*
X101651321Y-75246239D02*
X101684654Y-75179572D01*
X101684654Y-75179572D02*
X101684654Y-75112905D01*
X101684654Y-75112905D02*
X101651321Y-75046239D01*
X101651321Y-75046239D02*
X101584654Y-75012905D01*
X101584654Y-75012905D02*
X101417988Y-75012905D01*
X101417988Y-75012905D02*
X101351321Y-74979572D01*
X101017988Y-75279572D02*
X101017988Y-74812905D01*
X101017988Y-74946239D02*
X100984655Y-74879572D01*
X100984655Y-74879572D02*
X100951321Y-74846239D01*
X100951321Y-74846239D02*
X100884655Y-74812905D01*
X100884655Y-74812905D02*
X100817988Y-74812905D01*
X100584655Y-75279572D02*
X100584655Y-74579572D01*
X100517988Y-75012905D02*
X100317988Y-75279572D01*
X100317988Y-74812905D02*
X100584655Y-75079572D01*
X100017988Y-74812905D02*
X100017988Y-75279572D01*
X100017988Y-74879572D02*
X99984655Y-74846239D01*
X99984655Y-74846239D02*
X99917988Y-74812905D01*
X99917988Y-74812905D02*
X99817988Y-74812905D01*
X99817988Y-74812905D02*
X99751321Y-74846239D01*
X99751321Y-74846239D02*
X99717988Y-74912905D01*
X99717988Y-74912905D02*
X99717988Y-75279572D01*
X99117988Y-75246239D02*
X99184655Y-75279572D01*
X99184655Y-75279572D02*
X99317988Y-75279572D01*
X99317988Y-75279572D02*
X99384655Y-75246239D01*
X99384655Y-75246239D02*
X99417988Y-75179572D01*
X99417988Y-75179572D02*
X99417988Y-74912905D01*
X99417988Y-74912905D02*
X99384655Y-74846239D01*
X99384655Y-74846239D02*
X99317988Y-74812905D01*
X99317988Y-74812905D02*
X99184655Y-74812905D01*
X99184655Y-74812905D02*
X99117988Y-74846239D01*
X99117988Y-74846239D02*
X99084655Y-74912905D01*
X99084655Y-74912905D02*
X99084655Y-74979572D01*
X99084655Y-74979572D02*
X99417988Y-75046239D01*
X98817988Y-75246239D02*
X98751322Y-75279572D01*
X98751322Y-75279572D02*
X98617988Y-75279572D01*
X98617988Y-75279572D02*
X98551322Y-75246239D01*
X98551322Y-75246239D02*
X98517988Y-75179572D01*
X98517988Y-75179572D02*
X98517988Y-75146239D01*
X98517988Y-75146239D02*
X98551322Y-75079572D01*
X98551322Y-75079572D02*
X98617988Y-75046239D01*
X98617988Y-75046239D02*
X98717988Y-75046239D01*
X98717988Y-75046239D02*
X98784655Y-75012905D01*
X98784655Y-75012905D02*
X98817988Y-74946239D01*
X98817988Y-74946239D02*
X98817988Y-74912905D01*
X98817988Y-74912905D02*
X98784655Y-74846239D01*
X98784655Y-74846239D02*
X98717988Y-74812905D01*
X98717988Y-74812905D02*
X98617988Y-74812905D01*
X98617988Y-74812905D02*
X98551322Y-74846239D01*
X98251321Y-75246239D02*
X98184655Y-75279572D01*
X98184655Y-75279572D02*
X98051321Y-75279572D01*
X98051321Y-75279572D02*
X97984655Y-75246239D01*
X97984655Y-75246239D02*
X97951321Y-75179572D01*
X97951321Y-75179572D02*
X97951321Y-75146239D01*
X97951321Y-75146239D02*
X97984655Y-75079572D01*
X97984655Y-75079572D02*
X98051321Y-75046239D01*
X98051321Y-75046239D02*
X98151321Y-75046239D01*
X98151321Y-75046239D02*
X98217988Y-75012905D01*
X98217988Y-75012905D02*
X98251321Y-74946239D01*
X98251321Y-74946239D02*
X98251321Y-74912905D01*
X98251321Y-74912905D02*
X98217988Y-74846239D01*
X98217988Y-74846239D02*
X98151321Y-74812905D01*
X98151321Y-74812905D02*
X98051321Y-74812905D01*
X98051321Y-74812905D02*
X97984655Y-74846239D01*
X97217988Y-74812905D02*
X96951321Y-74812905D01*
X97117988Y-74579572D02*
X97117988Y-75179572D01*
X97117988Y-75179572D02*
X97084655Y-75246239D01*
X97084655Y-75246239D02*
X97017988Y-75279572D01*
X97017988Y-75279572D02*
X96951321Y-75279572D01*
X96717988Y-75279572D02*
X96717988Y-74579572D01*
X96417988Y-75279572D02*
X96417988Y-74912905D01*
X96417988Y-74912905D02*
X96451321Y-74846239D01*
X96451321Y-74846239D02*
X96517988Y-74812905D01*
X96517988Y-74812905D02*
X96617988Y-74812905D01*
X96617988Y-74812905D02*
X96684655Y-74846239D01*
X96684655Y-74846239D02*
X96717988Y-74879572D01*
X95784655Y-75279572D02*
X95784655Y-74912905D01*
X95784655Y-74912905D02*
X95817988Y-74846239D01*
X95817988Y-74846239D02*
X95884655Y-74812905D01*
X95884655Y-74812905D02*
X96017988Y-74812905D01*
X96017988Y-74812905D02*
X96084655Y-74846239D01*
X95784655Y-75246239D02*
X95851322Y-75279572D01*
X95851322Y-75279572D02*
X96017988Y-75279572D01*
X96017988Y-75279572D02*
X96084655Y-75246239D01*
X96084655Y-75246239D02*
X96117988Y-75179572D01*
X96117988Y-75179572D02*
X96117988Y-75112905D01*
X96117988Y-75112905D02*
X96084655Y-75046239D01*
X96084655Y-75046239D02*
X96017988Y-75012905D01*
X96017988Y-75012905D02*
X95851322Y-75012905D01*
X95851322Y-75012905D02*
X95784655Y-74979572D01*
X95551322Y-74812905D02*
X95284655Y-74812905D01*
X95451322Y-74579572D02*
X95451322Y-75179572D01*
X95451322Y-75179572D02*
X95417989Y-75246239D01*
X95417989Y-75246239D02*
X95351322Y-75279572D01*
X95351322Y-75279572D02*
X95284655Y-75279572D01*
X94217989Y-75246239D02*
X94284656Y-75279572D01*
X94284656Y-75279572D02*
X94417989Y-75279572D01*
X94417989Y-75279572D02*
X94484656Y-75246239D01*
X94484656Y-75246239D02*
X94517989Y-75212905D01*
X94517989Y-75212905D02*
X94551322Y-75146239D01*
X94551322Y-75146239D02*
X94551322Y-74946239D01*
X94551322Y-74946239D02*
X94517989Y-74879572D01*
X94517989Y-74879572D02*
X94484656Y-74846239D01*
X94484656Y-74846239D02*
X94417989Y-74812905D01*
X94417989Y-74812905D02*
X94284656Y-74812905D01*
X94284656Y-74812905D02*
X94217989Y-74846239D01*
X93617989Y-75279572D02*
X93617989Y-74912905D01*
X93617989Y-74912905D02*
X93651322Y-74846239D01*
X93651322Y-74846239D02*
X93717989Y-74812905D01*
X93717989Y-74812905D02*
X93851322Y-74812905D01*
X93851322Y-74812905D02*
X93917989Y-74846239D01*
X93617989Y-75246239D02*
X93684656Y-75279572D01*
X93684656Y-75279572D02*
X93851322Y-75279572D01*
X93851322Y-75279572D02*
X93917989Y-75246239D01*
X93917989Y-75246239D02*
X93951322Y-75179572D01*
X93951322Y-75179572D02*
X93951322Y-75112905D01*
X93951322Y-75112905D02*
X93917989Y-75046239D01*
X93917989Y-75046239D02*
X93851322Y-75012905D01*
X93851322Y-75012905D02*
X93684656Y-75012905D01*
X93684656Y-75012905D02*
X93617989Y-74979572D01*
X93284656Y-74812905D02*
X93284656Y-75279572D01*
X93284656Y-74879572D02*
X93251323Y-74846239D01*
X93251323Y-74846239D02*
X93184656Y-74812905D01*
X93184656Y-74812905D02*
X93084656Y-74812905D01*
X93084656Y-74812905D02*
X93017989Y-74846239D01*
X93017989Y-74846239D02*
X92984656Y-74912905D01*
X92984656Y-74912905D02*
X92984656Y-75279572D01*
X92117990Y-75279572D02*
X92117990Y-74579572D01*
X92117990Y-74846239D02*
X92051323Y-74812905D01*
X92051323Y-74812905D02*
X91917990Y-74812905D01*
X91917990Y-74812905D02*
X91851323Y-74846239D01*
X91851323Y-74846239D02*
X91817990Y-74879572D01*
X91817990Y-74879572D02*
X91784657Y-74946239D01*
X91784657Y-74946239D02*
X91784657Y-75146239D01*
X91784657Y-75146239D02*
X91817990Y-75212905D01*
X91817990Y-75212905D02*
X91851323Y-75246239D01*
X91851323Y-75246239D02*
X91917990Y-75279572D01*
X91917990Y-75279572D02*
X92051323Y-75279572D01*
X92051323Y-75279572D02*
X92117990Y-75246239D01*
X91217990Y-75246239D02*
X91284657Y-75279572D01*
X91284657Y-75279572D02*
X91417990Y-75279572D01*
X91417990Y-75279572D02*
X91484657Y-75246239D01*
X91484657Y-75246239D02*
X91517990Y-75179572D01*
X91517990Y-75179572D02*
X91517990Y-74912905D01*
X91517990Y-74912905D02*
X91484657Y-74846239D01*
X91484657Y-74846239D02*
X91417990Y-74812905D01*
X91417990Y-74812905D02*
X91284657Y-74812905D01*
X91284657Y-74812905D02*
X91217990Y-74846239D01*
X91217990Y-74846239D02*
X91184657Y-74912905D01*
X91184657Y-74912905D02*
X91184657Y-74979572D01*
X91184657Y-74979572D02*
X91517990Y-75046239D01*
X114984649Y-76406533D02*
X114984649Y-75706533D01*
X114684649Y-76406533D02*
X114684649Y-76039866D01*
X114684649Y-76039866D02*
X114717982Y-75973200D01*
X114717982Y-75973200D02*
X114784649Y-75939866D01*
X114784649Y-75939866D02*
X114884649Y-75939866D01*
X114884649Y-75939866D02*
X114951316Y-75973200D01*
X114951316Y-75973200D02*
X114984649Y-76006533D01*
X114051316Y-76406533D02*
X114051316Y-76039866D01*
X114051316Y-76039866D02*
X114084649Y-75973200D01*
X114084649Y-75973200D02*
X114151316Y-75939866D01*
X114151316Y-75939866D02*
X114284649Y-75939866D01*
X114284649Y-75939866D02*
X114351316Y-75973200D01*
X114051316Y-76373200D02*
X114117983Y-76406533D01*
X114117983Y-76406533D02*
X114284649Y-76406533D01*
X114284649Y-76406533D02*
X114351316Y-76373200D01*
X114351316Y-76373200D02*
X114384649Y-76306533D01*
X114384649Y-76306533D02*
X114384649Y-76239866D01*
X114384649Y-76239866D02*
X114351316Y-76173200D01*
X114351316Y-76173200D02*
X114284649Y-76139866D01*
X114284649Y-76139866D02*
X114117983Y-76139866D01*
X114117983Y-76139866D02*
X114051316Y-76106533D01*
X113717983Y-76406533D02*
X113717983Y-75939866D01*
X113717983Y-76073200D02*
X113684650Y-76006533D01*
X113684650Y-76006533D02*
X113651316Y-75973200D01*
X113651316Y-75973200D02*
X113584650Y-75939866D01*
X113584650Y-75939866D02*
X113517983Y-75939866D01*
X113284650Y-75939866D02*
X113284650Y-76406533D01*
X113284650Y-76006533D02*
X113251317Y-75973200D01*
X113251317Y-75973200D02*
X113184650Y-75939866D01*
X113184650Y-75939866D02*
X113084650Y-75939866D01*
X113084650Y-75939866D02*
X113017983Y-75973200D01*
X113017983Y-75973200D02*
X112984650Y-76039866D01*
X112984650Y-76039866D02*
X112984650Y-76406533D01*
X112384650Y-76373200D02*
X112451317Y-76406533D01*
X112451317Y-76406533D02*
X112584650Y-76406533D01*
X112584650Y-76406533D02*
X112651317Y-76373200D01*
X112651317Y-76373200D02*
X112684650Y-76306533D01*
X112684650Y-76306533D02*
X112684650Y-76039866D01*
X112684650Y-76039866D02*
X112651317Y-75973200D01*
X112651317Y-75973200D02*
X112584650Y-75939866D01*
X112584650Y-75939866D02*
X112451317Y-75939866D01*
X112451317Y-75939866D02*
X112384650Y-75973200D01*
X112384650Y-75973200D02*
X112351317Y-76039866D01*
X112351317Y-76039866D02*
X112351317Y-76106533D01*
X112351317Y-76106533D02*
X112684650Y-76173200D01*
X112084650Y-76373200D02*
X112017984Y-76406533D01*
X112017984Y-76406533D02*
X111884650Y-76406533D01*
X111884650Y-76406533D02*
X111817984Y-76373200D01*
X111817984Y-76373200D02*
X111784650Y-76306533D01*
X111784650Y-76306533D02*
X111784650Y-76273200D01*
X111784650Y-76273200D02*
X111817984Y-76206533D01*
X111817984Y-76206533D02*
X111884650Y-76173200D01*
X111884650Y-76173200D02*
X111984650Y-76173200D01*
X111984650Y-76173200D02*
X112051317Y-76139866D01*
X112051317Y-76139866D02*
X112084650Y-76073200D01*
X112084650Y-76073200D02*
X112084650Y-76039866D01*
X112084650Y-76039866D02*
X112051317Y-75973200D01*
X112051317Y-75973200D02*
X111984650Y-75939866D01*
X111984650Y-75939866D02*
X111884650Y-75939866D01*
X111884650Y-75939866D02*
X111817984Y-75973200D01*
X111517983Y-76373200D02*
X111451317Y-76406533D01*
X111451317Y-76406533D02*
X111317983Y-76406533D01*
X111317983Y-76406533D02*
X111251317Y-76373200D01*
X111251317Y-76373200D02*
X111217983Y-76306533D01*
X111217983Y-76306533D02*
X111217983Y-76273200D01*
X111217983Y-76273200D02*
X111251317Y-76206533D01*
X111251317Y-76206533D02*
X111317983Y-76173200D01*
X111317983Y-76173200D02*
X111417983Y-76173200D01*
X111417983Y-76173200D02*
X111484650Y-76139866D01*
X111484650Y-76139866D02*
X111517983Y-76073200D01*
X111517983Y-76073200D02*
X111517983Y-76039866D01*
X111517983Y-76039866D02*
X111484650Y-75973200D01*
X111484650Y-75973200D02*
X111417983Y-75939866D01*
X111417983Y-75939866D02*
X111317983Y-75939866D01*
X111317983Y-75939866D02*
X111251317Y-75973200D01*
X110651316Y-76373200D02*
X110717983Y-76406533D01*
X110717983Y-76406533D02*
X110851316Y-76406533D01*
X110851316Y-76406533D02*
X110917983Y-76373200D01*
X110917983Y-76373200D02*
X110951316Y-76306533D01*
X110951316Y-76306533D02*
X110951316Y-76039866D01*
X110951316Y-76039866D02*
X110917983Y-75973200D01*
X110917983Y-75973200D02*
X110851316Y-75939866D01*
X110851316Y-75939866D02*
X110717983Y-75939866D01*
X110717983Y-75939866D02*
X110651316Y-75973200D01*
X110651316Y-75973200D02*
X110617983Y-76039866D01*
X110617983Y-76039866D02*
X110617983Y-76106533D01*
X110617983Y-76106533D02*
X110951316Y-76173200D01*
X110017983Y-76406533D02*
X110017983Y-75706533D01*
X110017983Y-76373200D02*
X110084650Y-76406533D01*
X110084650Y-76406533D02*
X110217983Y-76406533D01*
X110217983Y-76406533D02*
X110284650Y-76373200D01*
X110284650Y-76373200D02*
X110317983Y-76339866D01*
X110317983Y-76339866D02*
X110351316Y-76273200D01*
X110351316Y-76273200D02*
X110351316Y-76073200D01*
X110351316Y-76073200D02*
X110317983Y-76006533D01*
X110317983Y-76006533D02*
X110284650Y-75973200D01*
X110284650Y-75973200D02*
X110217983Y-75939866D01*
X110217983Y-75939866D02*
X110084650Y-75939866D01*
X110084650Y-75939866D02*
X110017983Y-75973200D01*
X108851317Y-76406533D02*
X108851317Y-76039866D01*
X108851317Y-76039866D02*
X108884650Y-75973200D01*
X108884650Y-75973200D02*
X108951317Y-75939866D01*
X108951317Y-75939866D02*
X109084650Y-75939866D01*
X109084650Y-75939866D02*
X109151317Y-75973200D01*
X108851317Y-76373200D02*
X108917984Y-76406533D01*
X108917984Y-76406533D02*
X109084650Y-76406533D01*
X109084650Y-76406533D02*
X109151317Y-76373200D01*
X109151317Y-76373200D02*
X109184650Y-76306533D01*
X109184650Y-76306533D02*
X109184650Y-76239866D01*
X109184650Y-76239866D02*
X109151317Y-76173200D01*
X109151317Y-76173200D02*
X109084650Y-76139866D01*
X109084650Y-76139866D02*
X108917984Y-76139866D01*
X108917984Y-76139866D02*
X108851317Y-76106533D01*
X108517984Y-75939866D02*
X108517984Y-76406533D01*
X108517984Y-76006533D02*
X108484651Y-75973200D01*
X108484651Y-75973200D02*
X108417984Y-75939866D01*
X108417984Y-75939866D02*
X108317984Y-75939866D01*
X108317984Y-75939866D02*
X108251317Y-75973200D01*
X108251317Y-75973200D02*
X108217984Y-76039866D01*
X108217984Y-76039866D02*
X108217984Y-76406533D01*
X107584651Y-76406533D02*
X107584651Y-75706533D01*
X107584651Y-76373200D02*
X107651318Y-76406533D01*
X107651318Y-76406533D02*
X107784651Y-76406533D01*
X107784651Y-76406533D02*
X107851318Y-76373200D01*
X107851318Y-76373200D02*
X107884651Y-76339866D01*
X107884651Y-76339866D02*
X107917984Y-76273200D01*
X107917984Y-76273200D02*
X107917984Y-76073200D01*
X107917984Y-76073200D02*
X107884651Y-76006533D01*
X107884651Y-76006533D02*
X107851318Y-75973200D01*
X107851318Y-75973200D02*
X107784651Y-75939866D01*
X107784651Y-75939866D02*
X107651318Y-75939866D01*
X107651318Y-75939866D02*
X107584651Y-75973200D01*
X106417985Y-75939866D02*
X106417985Y-76406533D01*
X106717985Y-75939866D02*
X106717985Y-76306533D01*
X106717985Y-76306533D02*
X106684652Y-76373200D01*
X106684652Y-76373200D02*
X106617985Y-76406533D01*
X106617985Y-76406533D02*
X106517985Y-76406533D01*
X106517985Y-76406533D02*
X106451318Y-76373200D01*
X106451318Y-76373200D02*
X106417985Y-76339866D01*
X106117985Y-76373200D02*
X106051319Y-76406533D01*
X106051319Y-76406533D02*
X105917985Y-76406533D01*
X105917985Y-76406533D02*
X105851319Y-76373200D01*
X105851319Y-76373200D02*
X105817985Y-76306533D01*
X105817985Y-76306533D02*
X105817985Y-76273200D01*
X105817985Y-76273200D02*
X105851319Y-76206533D01*
X105851319Y-76206533D02*
X105917985Y-76173200D01*
X105917985Y-76173200D02*
X106017985Y-76173200D01*
X106017985Y-76173200D02*
X106084652Y-76139866D01*
X106084652Y-76139866D02*
X106117985Y-76073200D01*
X106117985Y-76073200D02*
X106117985Y-76039866D01*
X106117985Y-76039866D02*
X106084652Y-75973200D01*
X106084652Y-75973200D02*
X106017985Y-75939866D01*
X106017985Y-75939866D02*
X105917985Y-75939866D01*
X105917985Y-75939866D02*
X105851319Y-75973200D01*
X105251318Y-76373200D02*
X105317985Y-76406533D01*
X105317985Y-76406533D02*
X105451318Y-76406533D01*
X105451318Y-76406533D02*
X105517985Y-76373200D01*
X105517985Y-76373200D02*
X105551318Y-76306533D01*
X105551318Y-76306533D02*
X105551318Y-76039866D01*
X105551318Y-76039866D02*
X105517985Y-75973200D01*
X105517985Y-75973200D02*
X105451318Y-75939866D01*
X105451318Y-75939866D02*
X105317985Y-75939866D01*
X105317985Y-75939866D02*
X105251318Y-75973200D01*
X105251318Y-75973200D02*
X105217985Y-76039866D01*
X105217985Y-76039866D02*
X105217985Y-76106533D01*
X105217985Y-76106533D02*
X105551318Y-76173200D01*
X104617985Y-76406533D02*
X104617985Y-75706533D01*
X104617985Y-76373200D02*
X104684652Y-76406533D01*
X104684652Y-76406533D02*
X104817985Y-76406533D01*
X104817985Y-76406533D02*
X104884652Y-76373200D01*
X104884652Y-76373200D02*
X104917985Y-76339866D01*
X104917985Y-76339866D02*
X104951318Y-76273200D01*
X104951318Y-76273200D02*
X104951318Y-76073200D01*
X104951318Y-76073200D02*
X104917985Y-76006533D01*
X104917985Y-76006533D02*
X104884652Y-75973200D01*
X104884652Y-75973200D02*
X104817985Y-75939866D01*
X104817985Y-75939866D02*
X104684652Y-75939866D01*
X104684652Y-75939866D02*
X104617985Y-75973200D01*
X103851319Y-75939866D02*
X103584652Y-75939866D01*
X103751319Y-75706533D02*
X103751319Y-76306533D01*
X103751319Y-76306533D02*
X103717986Y-76373200D01*
X103717986Y-76373200D02*
X103651319Y-76406533D01*
X103651319Y-76406533D02*
X103584652Y-76406533D01*
X103251319Y-76406533D02*
X103317986Y-76373200D01*
X103317986Y-76373200D02*
X103351319Y-76339866D01*
X103351319Y-76339866D02*
X103384652Y-76273200D01*
X103384652Y-76273200D02*
X103384652Y-76073200D01*
X103384652Y-76073200D02*
X103351319Y-76006533D01*
X103351319Y-76006533D02*
X103317986Y-75973200D01*
X103317986Y-75973200D02*
X103251319Y-75939866D01*
X103251319Y-75939866D02*
X103151319Y-75939866D01*
X103151319Y-75939866D02*
X103084652Y-75973200D01*
X103084652Y-75973200D02*
X103051319Y-76006533D01*
X103051319Y-76006533D02*
X103017986Y-76073200D01*
X103017986Y-76073200D02*
X103017986Y-76273200D01*
X103017986Y-76273200D02*
X103051319Y-76339866D01*
X103051319Y-76339866D02*
X103084652Y-76373200D01*
X103084652Y-76373200D02*
X103151319Y-76406533D01*
X103151319Y-76406533D02*
X103251319Y-76406533D01*
X101884653Y-75939866D02*
X101884653Y-76406533D01*
X102184653Y-75939866D02*
X102184653Y-76306533D01*
X102184653Y-76306533D02*
X102151320Y-76373200D01*
X102151320Y-76373200D02*
X102084653Y-76406533D01*
X102084653Y-76406533D02*
X101984653Y-76406533D01*
X101984653Y-76406533D02*
X101917986Y-76373200D01*
X101917986Y-76373200D02*
X101884653Y-76339866D01*
X101584653Y-76373200D02*
X101517987Y-76406533D01*
X101517987Y-76406533D02*
X101384653Y-76406533D01*
X101384653Y-76406533D02*
X101317987Y-76373200D01*
X101317987Y-76373200D02*
X101284653Y-76306533D01*
X101284653Y-76306533D02*
X101284653Y-76273200D01*
X101284653Y-76273200D02*
X101317987Y-76206533D01*
X101317987Y-76206533D02*
X101384653Y-76173200D01*
X101384653Y-76173200D02*
X101484653Y-76173200D01*
X101484653Y-76173200D02*
X101551320Y-76139866D01*
X101551320Y-76139866D02*
X101584653Y-76073200D01*
X101584653Y-76073200D02*
X101584653Y-76039866D01*
X101584653Y-76039866D02*
X101551320Y-75973200D01*
X101551320Y-75973200D02*
X101484653Y-75939866D01*
X101484653Y-75939866D02*
X101384653Y-75939866D01*
X101384653Y-75939866D02*
X101317987Y-75973200D01*
X100984653Y-76406533D02*
X100984653Y-75706533D01*
X100684653Y-76406533D02*
X100684653Y-76039866D01*
X100684653Y-76039866D02*
X100717986Y-75973200D01*
X100717986Y-75973200D02*
X100784653Y-75939866D01*
X100784653Y-75939866D02*
X100884653Y-75939866D01*
X100884653Y-75939866D02*
X100951320Y-75973200D01*
X100951320Y-75973200D02*
X100984653Y-76006533D01*
X100084653Y-76373200D02*
X100151320Y-76406533D01*
X100151320Y-76406533D02*
X100284653Y-76406533D01*
X100284653Y-76406533D02*
X100351320Y-76373200D01*
X100351320Y-76373200D02*
X100384653Y-76306533D01*
X100384653Y-76306533D02*
X100384653Y-76039866D01*
X100384653Y-76039866D02*
X100351320Y-75973200D01*
X100351320Y-75973200D02*
X100284653Y-75939866D01*
X100284653Y-75939866D02*
X100151320Y-75939866D01*
X100151320Y-75939866D02*
X100084653Y-75973200D01*
X100084653Y-75973200D02*
X100051320Y-76039866D01*
X100051320Y-76039866D02*
X100051320Y-76106533D01*
X100051320Y-76106533D02*
X100384653Y-76173200D01*
X99751320Y-76406533D02*
X99751320Y-75939866D01*
X99751320Y-76073200D02*
X99717987Y-76006533D01*
X99717987Y-76006533D02*
X99684653Y-75973200D01*
X99684653Y-75973200D02*
X99617987Y-75939866D01*
X99617987Y-75939866D02*
X99551320Y-75939866D01*
X98817987Y-76373200D02*
X98751321Y-76406533D01*
X98751321Y-76406533D02*
X98617987Y-76406533D01*
X98617987Y-76406533D02*
X98551321Y-76373200D01*
X98551321Y-76373200D02*
X98517987Y-76306533D01*
X98517987Y-76306533D02*
X98517987Y-76273200D01*
X98517987Y-76273200D02*
X98551321Y-76206533D01*
X98551321Y-76206533D02*
X98617987Y-76173200D01*
X98617987Y-76173200D02*
X98717987Y-76173200D01*
X98717987Y-76173200D02*
X98784654Y-76139866D01*
X98784654Y-76139866D02*
X98817987Y-76073200D01*
X98817987Y-76073200D02*
X98817987Y-76039866D01*
X98817987Y-76039866D02*
X98784654Y-75973200D01*
X98784654Y-75973200D02*
X98717987Y-75939866D01*
X98717987Y-75939866D02*
X98617987Y-75939866D01*
X98617987Y-75939866D02*
X98551321Y-75973200D01*
X98117987Y-76406533D02*
X98184654Y-76373200D01*
X98184654Y-76373200D02*
X98217987Y-76339866D01*
X98217987Y-76339866D02*
X98251320Y-76273200D01*
X98251320Y-76273200D02*
X98251320Y-76073200D01*
X98251320Y-76073200D02*
X98217987Y-76006533D01*
X98217987Y-76006533D02*
X98184654Y-75973200D01*
X98184654Y-75973200D02*
X98117987Y-75939866D01*
X98117987Y-75939866D02*
X98017987Y-75939866D01*
X98017987Y-75939866D02*
X97951320Y-75973200D01*
X97951320Y-75973200D02*
X97917987Y-76006533D01*
X97917987Y-76006533D02*
X97884654Y-76073200D01*
X97884654Y-76073200D02*
X97884654Y-76273200D01*
X97884654Y-76273200D02*
X97917987Y-76339866D01*
X97917987Y-76339866D02*
X97951320Y-76373200D01*
X97951320Y-76373200D02*
X98017987Y-76406533D01*
X98017987Y-76406533D02*
X98117987Y-76406533D01*
X97584654Y-76406533D02*
X97584654Y-75939866D01*
X97584654Y-76006533D02*
X97551321Y-75973200D01*
X97551321Y-75973200D02*
X97484654Y-75939866D01*
X97484654Y-75939866D02*
X97384654Y-75939866D01*
X97384654Y-75939866D02*
X97317987Y-75973200D01*
X97317987Y-75973200D02*
X97284654Y-76039866D01*
X97284654Y-76039866D02*
X97284654Y-76406533D01*
X97284654Y-76039866D02*
X97251321Y-75973200D01*
X97251321Y-75973200D02*
X97184654Y-75939866D01*
X97184654Y-75939866D02*
X97084654Y-75939866D01*
X97084654Y-75939866D02*
X97017987Y-75973200D01*
X97017987Y-75973200D02*
X96984654Y-76039866D01*
X96984654Y-76039866D02*
X96984654Y-76406533D01*
X96384654Y-76373200D02*
X96451321Y-76406533D01*
X96451321Y-76406533D02*
X96584654Y-76406533D01*
X96584654Y-76406533D02*
X96651321Y-76373200D01*
X96651321Y-76373200D02*
X96684654Y-76306533D01*
X96684654Y-76306533D02*
X96684654Y-76039866D01*
X96684654Y-76039866D02*
X96651321Y-75973200D01*
X96651321Y-75973200D02*
X96584654Y-75939866D01*
X96584654Y-75939866D02*
X96451321Y-75939866D01*
X96451321Y-75939866D02*
X96384654Y-75973200D01*
X96384654Y-75973200D02*
X96351321Y-76039866D01*
X96351321Y-76039866D02*
X96351321Y-76106533D01*
X96351321Y-76106533D02*
X96684654Y-76173200D01*
X96151321Y-75939866D02*
X95884654Y-75939866D01*
X96051321Y-75706533D02*
X96051321Y-76306533D01*
X96051321Y-76306533D02*
X96017988Y-76373200D01*
X96017988Y-76373200D02*
X95951321Y-76406533D01*
X95951321Y-76406533D02*
X95884654Y-76406533D01*
X95651321Y-76406533D02*
X95651321Y-75706533D01*
X95351321Y-76406533D02*
X95351321Y-76039866D01*
X95351321Y-76039866D02*
X95384654Y-75973200D01*
X95384654Y-75973200D02*
X95451321Y-75939866D01*
X95451321Y-75939866D02*
X95551321Y-75939866D01*
X95551321Y-75939866D02*
X95617988Y-75973200D01*
X95617988Y-75973200D02*
X95651321Y-76006533D01*
X95017988Y-76406533D02*
X95017988Y-75939866D01*
X95017988Y-75706533D02*
X95051321Y-75739866D01*
X95051321Y-75739866D02*
X95017988Y-75773200D01*
X95017988Y-75773200D02*
X94984655Y-75739866D01*
X94984655Y-75739866D02*
X95017988Y-75706533D01*
X95017988Y-75706533D02*
X95017988Y-75773200D01*
X94684655Y-75939866D02*
X94684655Y-76406533D01*
X94684655Y-76006533D02*
X94651322Y-75973200D01*
X94651322Y-75973200D02*
X94584655Y-75939866D01*
X94584655Y-75939866D02*
X94484655Y-75939866D01*
X94484655Y-75939866D02*
X94417988Y-75973200D01*
X94417988Y-75973200D02*
X94384655Y-76039866D01*
X94384655Y-76039866D02*
X94384655Y-76406533D01*
X93751322Y-75939866D02*
X93751322Y-76506533D01*
X93751322Y-76506533D02*
X93784655Y-76573200D01*
X93784655Y-76573200D02*
X93817989Y-76606533D01*
X93817989Y-76606533D02*
X93884655Y-76639866D01*
X93884655Y-76639866D02*
X93984655Y-76639866D01*
X93984655Y-76639866D02*
X94051322Y-76606533D01*
X93751322Y-76373200D02*
X93817989Y-76406533D01*
X93817989Y-76406533D02*
X93951322Y-76406533D01*
X93951322Y-76406533D02*
X94017989Y-76373200D01*
X94017989Y-76373200D02*
X94051322Y-76339866D01*
X94051322Y-76339866D02*
X94084655Y-76273200D01*
X94084655Y-76273200D02*
X94084655Y-76073200D01*
X94084655Y-76073200D02*
X94051322Y-76006533D01*
X94051322Y-76006533D02*
X94017989Y-75973200D01*
X94017989Y-75973200D02*
X93951322Y-75939866D01*
X93951322Y-75939866D02*
X93817989Y-75939866D01*
X93817989Y-75939866D02*
X93751322Y-75973200D01*
X92884656Y-75939866D02*
X92884656Y-76406533D01*
X92884656Y-76006533D02*
X92851323Y-75973200D01*
X92851323Y-75973200D02*
X92784656Y-75939866D01*
X92784656Y-75939866D02*
X92684656Y-75939866D01*
X92684656Y-75939866D02*
X92617989Y-75973200D01*
X92617989Y-75973200D02*
X92584656Y-76039866D01*
X92584656Y-76039866D02*
X92584656Y-76406533D01*
X91984656Y-76373200D02*
X92051323Y-76406533D01*
X92051323Y-76406533D02*
X92184656Y-76406533D01*
X92184656Y-76406533D02*
X92251323Y-76373200D01*
X92251323Y-76373200D02*
X92284656Y-76306533D01*
X92284656Y-76306533D02*
X92284656Y-76039866D01*
X92284656Y-76039866D02*
X92251323Y-75973200D01*
X92251323Y-75973200D02*
X92184656Y-75939866D01*
X92184656Y-75939866D02*
X92051323Y-75939866D01*
X92051323Y-75939866D02*
X91984656Y-75973200D01*
X91984656Y-75973200D02*
X91951323Y-76039866D01*
X91951323Y-76039866D02*
X91951323Y-76106533D01*
X91951323Y-76106533D02*
X92284656Y-76173200D01*
X91717990Y-75939866D02*
X91584656Y-76406533D01*
X91584656Y-76406533D02*
X91451323Y-76073200D01*
X91451323Y-76073200D02*
X91317990Y-76406533D01*
X91317990Y-76406533D02*
X91184656Y-75939866D01*
D11*
X83000000Y-82000000D02*
X80500000Y-80500000D01*
X80500000Y-78000000D02*
X83000000Y-80500000D01*
X85500000Y-83000000D02*
X85500000Y-78000000D01*
X83000000Y-80500000D02*
X85500000Y-78000000D01*
X80500000Y-83000000D02*
X80500000Y-78000000D01*
X85500000Y-80500000D02*
X80500000Y-80500000D01*
X85500000Y-80500000D02*
X83000000Y-82000000D01*
D12*
%TO.C,G\u002A\u002A\u002A*%
G36*
X58230262Y-73308546D02*
G01*
X58424301Y-73364737D01*
X58665881Y-73409734D01*
X58901286Y-73405857D01*
X59209259Y-73357005D01*
X59558430Y-73302827D01*
X60324173Y-73277587D01*
X61051543Y-73392247D01*
X61431382Y-73481606D01*
X62296853Y-73626955D01*
X63158345Y-73697301D01*
X63972739Y-73690150D01*
X64696913Y-73603010D01*
X65336242Y-73511218D01*
X65962332Y-73504835D01*
X66529380Y-73602310D01*
X67070581Y-73806487D01*
X67075860Y-73809012D01*
X67249006Y-73880474D01*
X67412393Y-73909581D01*
X67620320Y-73899239D01*
X67927087Y-73852356D01*
X67988825Y-73838889D01*
X68851851Y-73838889D01*
X68857509Y-73880391D01*
X68904115Y-73891153D01*
X68913497Y-73879663D01*
X68904115Y-73786626D01*
X68880535Y-73774361D01*
X68851851Y-73838889D01*
X67988825Y-73838889D01*
X68234958Y-73785200D01*
X68529768Y-73694942D01*
X68734226Y-73603725D01*
X68991595Y-73476955D01*
X69371940Y-73365894D01*
X69748249Y-73325226D01*
X70059206Y-73365955D01*
X70161010Y-73408689D01*
X70309148Y-73526561D01*
X70430858Y-73721588D01*
X70540530Y-74020014D01*
X70652557Y-74448088D01*
X70691299Y-74596651D01*
X70792402Y-74832571D01*
X70938864Y-74947925D01*
X71161960Y-74958842D01*
X71425498Y-74897223D01*
X72536419Y-74897223D01*
X72575617Y-74936420D01*
X72614814Y-74897223D01*
X72575617Y-74858025D01*
X72536419Y-74897223D01*
X71425498Y-74897223D01*
X71492966Y-74881448D01*
X71891618Y-74789827D01*
X72338210Y-74751699D01*
X72715031Y-74792373D01*
X72988812Y-74911185D01*
X73041064Y-74954424D01*
X73238785Y-75227177D01*
X73349146Y-75574961D01*
X73368427Y-75949774D01*
X73292906Y-76303615D01*
X73118860Y-76588481D01*
X72964760Y-76707200D01*
X72683875Y-76856994D01*
X72355012Y-76991158D01*
X72122402Y-77060736D01*
X72036558Y-77086413D01*
X71786897Y-77119485D01*
X71727380Y-77120669D01*
X71515985Y-77139229D01*
X71359985Y-77160075D01*
X71259704Y-77173476D01*
X71215644Y-77180156D01*
X70987906Y-77199362D01*
X70838052Y-77163754D01*
X70701804Y-77060291D01*
X70519075Y-76888627D01*
X70175433Y-77241656D01*
X70015490Y-77389854D01*
X69783906Y-77558223D01*
X69596604Y-77642803D01*
X69549054Y-77652190D01*
X69463105Y-77661119D01*
X69505055Y-77626218D01*
X69682755Y-77537929D01*
X69768730Y-77490514D01*
X70022243Y-77281609D01*
X70250811Y-77003735D01*
X70375145Y-76790375D01*
X70850925Y-76790375D01*
X71113458Y-76851267D01*
X71145194Y-76857999D01*
X71359985Y-76864525D01*
X71491808Y-76799968D01*
X71506504Y-76679276D01*
X71497730Y-76667325D01*
X71381265Y-76652260D01*
X71164506Y-76697850D01*
X70850925Y-76790375D01*
X70375145Y-76790375D01*
X70429237Y-76697551D01*
X70532324Y-76403717D01*
X70534672Y-76182038D01*
X70898275Y-76182038D01*
X71007716Y-76197641D01*
X71102983Y-76202497D01*
X71223302Y-76200025D01*
X71237925Y-76200186D01*
X71282098Y-76269136D01*
X71252698Y-76314701D01*
X71125308Y-76347531D01*
X71033876Y-76369357D01*
X70968518Y-76465124D01*
X71016988Y-76547657D01*
X71203703Y-76582716D01*
X71206463Y-76582712D01*
X71370711Y-76563425D01*
X71438888Y-76517899D01*
X71438959Y-76516309D01*
X71509662Y-76481983D01*
X71673274Y-76487482D01*
X71683820Y-76489115D01*
X71827499Y-76536205D01*
X71859801Y-76599318D01*
X71875270Y-76626653D01*
X71987654Y-76582716D01*
X72038490Y-76556318D01*
X72121512Y-76528882D01*
X72101847Y-76588217D01*
X72086117Y-76651916D01*
X72185985Y-76631863D01*
X72272514Y-76602959D01*
X72277952Y-76630993D01*
X72179246Y-76749609D01*
X72168381Y-76762129D01*
X72098409Y-76858616D01*
X72122402Y-76867458D01*
X72130309Y-76863230D01*
X72280300Y-76819758D01*
X72494064Y-76789924D01*
X72594647Y-76771652D01*
X72798280Y-76689185D01*
X72982132Y-76569762D01*
X73103752Y-76443760D01*
X73120687Y-76341553D01*
X73112497Y-76317487D01*
X73162301Y-76230729D01*
X73213335Y-76153256D01*
X73241975Y-75984844D01*
X73239675Y-75917680D01*
X73196554Y-75825195D01*
X73065586Y-75837816D01*
X73052628Y-75841410D01*
X72954951Y-75857743D01*
X72996746Y-75812968D01*
X73004842Y-75807109D01*
X73064888Y-75700577D01*
X73030328Y-75513851D01*
X72992569Y-75425169D01*
X72859642Y-75285422D01*
X72771604Y-75247223D01*
X72616420Y-75179890D01*
X72582081Y-75168946D01*
X72575617Y-75167225D01*
X72378914Y-75114854D01*
X72265124Y-75119805D01*
X72190863Y-75184320D01*
X72069086Y-75258299D01*
X71848986Y-75244431D01*
X71840465Y-75242673D01*
X71635277Y-75229408D01*
X71530509Y-75301978D01*
X71477972Y-75355987D01*
X71327875Y-75359270D01*
X71262384Y-75324885D01*
X71280591Y-75276182D01*
X71432411Y-75202390D01*
X71444349Y-75197479D01*
X71645209Y-75141812D01*
X71793313Y-75143887D01*
X71864281Y-75150267D01*
X71909259Y-75053901D01*
X71906922Y-75016981D01*
X71880842Y-74986132D01*
X72707076Y-74986132D01*
X72771604Y-75014815D01*
X72813107Y-75009158D01*
X72823868Y-74962552D01*
X72812378Y-74953169D01*
X72719341Y-74962552D01*
X72707076Y-74986132D01*
X71880842Y-74986132D01*
X71853220Y-74953459D01*
X71698013Y-74972442D01*
X71500226Y-75026847D01*
X71194439Y-75146679D01*
X71022400Y-75282876D01*
X70968518Y-75445551D01*
X70990971Y-75573022D01*
X71124383Y-75795518D01*
X71334861Y-75967350D01*
X71572516Y-76039461D01*
X71677665Y-76044179D01*
X71724778Y-76062853D01*
X71634876Y-76106682D01*
X71510551Y-76128358D01*
X71310255Y-76092488D01*
X71210015Y-76061133D01*
X70996674Y-76101278D01*
X70931818Y-76140071D01*
X70898275Y-76182038D01*
X70534672Y-76182038D01*
X70534875Y-76162894D01*
X70534468Y-76161436D01*
X70516591Y-76059966D01*
X70560498Y-76099320D01*
X70626554Y-76159303D01*
X70680765Y-76079722D01*
X70719274Y-76019247D01*
X70848465Y-75955556D01*
X70889938Y-75954347D01*
X70956136Y-75926489D01*
X70943123Y-75834470D01*
X70851213Y-75642532D01*
X70786419Y-75469338D01*
X70812015Y-75367415D01*
X70891914Y-75284228D01*
X70865564Y-75220966D01*
X70742378Y-75245159D01*
X70689757Y-75270247D01*
X70626815Y-75265877D01*
X70600155Y-75166912D01*
X70594634Y-74942313D01*
X70593121Y-74888251D01*
X70562406Y-74635800D01*
X70500889Y-74340986D01*
X70420140Y-74043169D01*
X70331726Y-73781710D01*
X70247215Y-73595969D01*
X70178176Y-73525309D01*
X70161139Y-73527540D01*
X70106172Y-73603704D01*
X70091214Y-73641169D01*
X69983953Y-73682099D01*
X69927957Y-73670818D01*
X69910185Y-73603704D01*
X69918101Y-73563945D01*
X69838877Y-73525309D01*
X69776869Y-73542029D01*
X69764242Y-73642902D01*
X69772401Y-73712292D01*
X69683387Y-73760494D01*
X69620973Y-73773099D01*
X69551218Y-73858488D01*
X69540907Y-73916258D01*
X69505487Y-73858488D01*
X69475656Y-73812199D01*
X69347024Y-73760788D01*
X69201159Y-73799367D01*
X69109751Y-73917284D01*
X69053690Y-74015646D01*
X68904115Y-74065952D01*
X68879965Y-74074074D01*
X68744451Y-74105331D01*
X68619562Y-74262447D01*
X68582183Y-74344529D01*
X68493818Y-74471750D01*
X68415349Y-74526056D01*
X68381481Y-74476276D01*
X68357380Y-74406314D01*
X68258289Y-74275662D01*
X68211531Y-74227548D01*
X68176639Y-74164768D01*
X68258289Y-74152470D01*
X68317607Y-74142719D01*
X68381481Y-74074074D01*
X68347620Y-74009238D01*
X68215917Y-73980370D01*
X68026406Y-74008087D01*
X67823962Y-74079791D01*
X67653455Y-74182884D01*
X67559758Y-74304769D01*
X67555259Y-74318324D01*
X67475694Y-74445898D01*
X67397585Y-74444303D01*
X67362345Y-74312018D01*
X67361431Y-74292399D01*
X67280833Y-74134799D01*
X67112581Y-74041546D01*
X66917253Y-74048502D01*
X66773580Y-74120402D01*
X66587421Y-74244209D01*
X66417068Y-74338799D01*
X66234643Y-74378561D01*
X66165319Y-74374256D01*
X66118832Y-74361201D01*
X66223627Y-74330224D01*
X66249919Y-74322291D01*
X66430808Y-74239232D01*
X66639357Y-74113674D01*
X66900287Y-73936368D01*
X66680545Y-73883906D01*
X66503033Y-73839517D01*
X66320547Y-73789714D01*
X66261536Y-73777211D01*
X66207476Y-73816395D01*
X66220839Y-73969825D01*
X66261385Y-74191667D01*
X66169840Y-73976844D01*
X66090908Y-73853206D01*
X65927842Y-73748908D01*
X65675428Y-73699944D01*
X65313416Y-73702977D01*
X64821557Y-73754672D01*
X64706022Y-73769866D01*
X64335949Y-73816646D01*
X63998959Y-73856750D01*
X63756172Y-73882825D01*
X63712131Y-73887072D01*
X63376470Y-73928199D01*
X63173966Y-73976238D01*
X63083247Y-74038833D01*
X63082941Y-74123629D01*
X63099155Y-74188124D01*
X63083089Y-74320141D01*
X63041924Y-74352288D01*
X62949631Y-74323089D01*
X62875054Y-74225227D01*
X62867676Y-74107540D01*
X62876848Y-74052030D01*
X62819192Y-73995679D01*
X62787142Y-73989313D01*
X62776234Y-73917284D01*
X62781195Y-73903262D01*
X62715112Y-73857177D01*
X62526077Y-73841373D01*
X62227469Y-73843856D01*
X62443055Y-74004702D01*
X62594120Y-74165007D01*
X62653672Y-74335397D01*
X62650425Y-74418610D01*
X62634067Y-74456861D01*
X62584047Y-74345735D01*
X62511348Y-74214849D01*
X62392053Y-74081682D01*
X62278896Y-74013205D01*
X62212230Y-74042346D01*
X62181631Y-74073153D01*
X62070679Y-74077451D01*
X62042011Y-74078561D01*
X61776722Y-74022747D01*
X61757098Y-74018585D01*
X61640875Y-73993933D01*
X61375327Y-73957580D01*
X61362114Y-73956482D01*
X62031481Y-73956482D01*
X62070679Y-73995679D01*
X62109876Y-73956482D01*
X62070679Y-73917284D01*
X62031481Y-73956482D01*
X61362114Y-73956482D01*
X61073996Y-73932540D01*
X60768863Y-73919347D01*
X60659567Y-73919025D01*
X60491914Y-73918532D01*
X60275131Y-73930628D01*
X60150498Y-73956166D01*
X60150000Y-73995679D01*
X60257633Y-74041202D01*
X60457047Y-74072874D01*
X60475899Y-74073067D01*
X60605194Y-74084140D01*
X60589497Y-74108937D01*
X60438712Y-74143696D01*
X60162741Y-74184657D01*
X60003881Y-74200835D01*
X59830897Y-74199605D01*
X59789914Y-74164294D01*
X59795910Y-74119374D01*
X59714305Y-74043990D01*
X59653585Y-74030376D01*
X59640987Y-74074972D01*
X59650114Y-74091148D01*
X59652396Y-74132749D01*
X59589461Y-74145100D01*
X59439626Y-74125854D01*
X59181204Y-74072666D01*
X58792512Y-73983190D01*
X58400471Y-73876588D01*
X58379111Y-73868690D01*
X58192503Y-73799692D01*
X61717901Y-73799692D01*
X61757098Y-73838889D01*
X61796296Y-73799692D01*
X61757098Y-73760494D01*
X61717901Y-73799692D01*
X58192503Y-73799692D01*
X58064065Y-73752202D01*
X58009980Y-73721297D01*
X60620370Y-73721297D01*
X60659567Y-73760494D01*
X60698765Y-73721297D01*
X60659567Y-73682099D01*
X60620370Y-73721297D01*
X58009980Y-73721297D01*
X57850929Y-73630412D01*
X57682522Y-73509266D01*
X57556283Y-73449768D01*
X57503196Y-73461292D01*
X57552141Y-73551468D01*
X57589916Y-73667881D01*
X57551553Y-73848055D01*
X57448230Y-74005605D01*
X57310937Y-74073463D01*
X57216579Y-74102826D01*
X57095350Y-74225711D01*
X57049740Y-74366474D01*
X57019161Y-74639543D01*
X57022440Y-74950281D01*
X57058036Y-75234783D01*
X57124405Y-75429147D01*
X57138704Y-75456155D01*
X57197244Y-75645630D01*
X57250978Y-75928591D01*
X57289805Y-76254621D01*
X57321495Y-76571920D01*
X57356288Y-76767864D01*
X57400251Y-76856301D01*
X57460391Y-76862183D01*
X57530321Y-76841694D01*
X57720565Y-76817902D01*
X57805106Y-76804389D01*
X57969713Y-76713532D01*
X58104595Y-76626270D01*
X58308331Y-76550369D01*
X58324362Y-76546388D01*
X58467374Y-76519501D01*
X58481904Y-76543172D01*
X58363266Y-76622318D01*
X58106773Y-76761855D01*
X58002939Y-76811443D01*
X57720797Y-76912870D01*
X57476613Y-76961092D01*
X57194277Y-76978035D01*
X57143732Y-76380097D01*
X57141349Y-76352994D01*
X57100433Y-76033041D01*
X57044035Y-75754461D01*
X56983614Y-75574876D01*
X56929916Y-75408158D01*
X56886040Y-75109770D01*
X56867147Y-74740432D01*
X56860255Y-74113272D01*
X57310545Y-73638515D01*
X57521027Y-73416595D01*
X57954938Y-73416595D01*
X57958231Y-73428817D01*
X58047805Y-73498504D01*
X58210346Y-73569045D01*
X58379111Y-73615720D01*
X58487357Y-73613806D01*
X58502445Y-73596646D01*
X58446914Y-73538046D01*
X58267135Y-73473632D01*
X58190340Y-73453944D01*
X58022053Y-73418269D01*
X57954938Y-73416595D01*
X57521027Y-73416595D01*
X57760834Y-73163757D01*
X58230262Y-73308546D01*
G37*
G36*
X57955671Y-74259856D02*
G01*
X58043695Y-74268150D01*
X57994135Y-74282847D01*
X57871782Y-74303603D01*
X57593283Y-74383056D01*
X57400085Y-74486065D01*
X57327777Y-74595911D01*
X57361618Y-74722795D01*
X57454386Y-74899981D01*
X57521631Y-75038963D01*
X57496087Y-75093210D01*
X57494488Y-75093173D01*
X57399975Y-75028552D01*
X57292388Y-74877624D01*
X57216566Y-74678595D01*
X57191890Y-74466050D01*
X57194202Y-74443175D01*
X57218923Y-74346678D01*
X57290275Y-74293549D01*
X57444979Y-74269458D01*
X57719753Y-74260080D01*
X57749199Y-74259551D01*
X57955671Y-74259856D01*
G37*
G36*
X57484567Y-75681173D02*
G01*
X57445370Y-75720371D01*
X57406172Y-75681173D01*
X57445370Y-75641976D01*
X57484567Y-75681173D01*
G37*
G36*
X58503517Y-75113326D02*
G01*
X58425352Y-75168475D01*
X58287996Y-75237959D01*
X58140854Y-75297432D01*
X58033333Y-75322549D01*
X58013989Y-75319697D01*
X58040093Y-75279738D01*
X58179525Y-75207734D01*
X58216559Y-75191891D01*
X58394688Y-75122656D01*
X58493105Y-75095988D01*
X58503517Y-75113326D01*
G37*
G36*
X58514532Y-75817366D02*
G01*
X58460550Y-75920150D01*
X58453275Y-76072150D01*
X58465794Y-76133201D01*
X58422848Y-76190741D01*
X58373721Y-76169906D01*
X58347710Y-76062029D01*
X58387566Y-75914894D01*
X58484104Y-75788766D01*
X58540569Y-75745229D01*
X58581589Y-75725358D01*
X58514532Y-75817366D01*
G37*
G36*
X58660493Y-76543519D02*
G01*
X58621296Y-76582716D01*
X58582098Y-76543519D01*
X58621296Y-76504321D01*
X58660493Y-76543519D01*
G37*
G36*
X58845118Y-75312456D02*
G01*
X58777201Y-75436336D01*
X58772728Y-75443136D01*
X58670539Y-75583801D01*
X58609521Y-75641976D01*
X58603187Y-75604326D01*
X58656353Y-75494175D01*
X58742268Y-75368006D01*
X58825837Y-75283912D01*
X58834340Y-75279369D01*
X58845118Y-75312456D01*
G37*
G36*
X58817283Y-76465124D02*
G01*
X58778086Y-76504321D01*
X58738888Y-76465124D01*
X58778086Y-76425926D01*
X58817283Y-76465124D01*
G37*
G36*
X59059186Y-74302051D02*
G01*
X59248456Y-74377716D01*
X59045936Y-74382686D01*
X58901086Y-74372209D01*
X58786252Y-74330492D01*
X58772164Y-74314508D01*
X58777610Y-74259234D01*
X58886395Y-74253716D01*
X59059186Y-74302051D01*
G37*
G36*
X60956962Y-76039738D02*
G01*
X60981518Y-76051406D01*
X61005902Y-76084157D01*
X60896381Y-76092137D01*
X60642306Y-76076593D01*
X60551787Y-76070418D01*
X60113195Y-76085872D01*
X59662368Y-76191176D01*
X59414859Y-76265961D01*
X59204191Y-76323945D01*
X59095586Y-76346520D01*
X59064449Y-76344854D01*
X59053007Y-76312707D01*
X59160684Y-76248689D01*
X59364238Y-76164512D01*
X59640432Y-76071891D01*
X59754423Y-76039741D01*
X60209008Y-75960181D01*
X60625893Y-75959789D01*
X60956962Y-76039738D01*
G37*
G36*
X59758024Y-75759568D02*
G01*
X59718827Y-75798766D01*
X59679629Y-75759568D01*
X59718827Y-75720371D01*
X59758024Y-75759568D01*
G37*
G36*
X59758024Y-74662037D02*
G01*
X59718827Y-74701235D01*
X59679629Y-74662037D01*
X59718827Y-74622840D01*
X59758024Y-74662037D01*
G37*
G36*
X62031481Y-75469649D02*
G01*
X62017742Y-75486709D01*
X61889122Y-75529144D01*
X61653458Y-75569492D01*
X61345524Y-75601091D01*
X61236726Y-75609908D01*
X60902368Y-75644492D01*
X60620834Y-75684048D01*
X60443981Y-75721643D01*
X60292865Y-75752083D01*
X60228395Y-75714799D01*
X60167303Y-75674098D01*
X60012808Y-75681483D01*
X59930373Y-75696689D01*
X59872312Y-75697601D01*
X59954012Y-75655239D01*
X60022005Y-75635462D01*
X60237431Y-75598661D01*
X60541707Y-75562677D01*
X60892177Y-75533064D01*
X61098830Y-75517833D01*
X61433121Y-75488477D01*
X61699041Y-75459265D01*
X61852516Y-75434710D01*
X61968089Y-75424650D01*
X62031481Y-75469649D01*
G37*
G36*
X60150000Y-74505247D02*
G01*
X60110802Y-74544445D01*
X60071604Y-74505247D01*
X60110802Y-74466050D01*
X60150000Y-74505247D01*
G37*
G36*
X61540521Y-74246745D02*
G01*
X61725259Y-74267758D01*
X61796296Y-74301420D01*
X61795576Y-74306731D01*
X61714968Y-74353182D01*
X61541512Y-74372595D01*
X61536967Y-74372608D01*
X61336589Y-74377981D01*
X61208333Y-74389718D01*
X61143457Y-74394975D01*
X60952499Y-74396854D01*
X60698765Y-74391428D01*
X60675214Y-74390584D01*
X60452320Y-74375319D01*
X60372813Y-74349440D01*
X60424382Y-74309260D01*
X60515718Y-74284318D01*
X60729681Y-74257167D01*
X61000174Y-74241693D01*
X61284640Y-74238138D01*
X61540521Y-74246745D01*
G37*
G36*
X60777160Y-74535306D02*
G01*
X60728373Y-74590232D01*
X60581172Y-74642027D01*
X60561874Y-74645430D01*
X60417126Y-74641809D01*
X60393731Y-74587473D01*
X60509189Y-74513635D01*
X60541214Y-74501866D01*
X60716773Y-74469997D01*
X60777160Y-74535306D01*
G37*
G36*
X60986214Y-74570577D02*
G01*
X60998478Y-74594156D01*
X60933950Y-74622840D01*
X60892448Y-74617182D01*
X60881687Y-74570577D01*
X60893177Y-74561194D01*
X60986214Y-74570577D01*
G37*
G36*
X61620012Y-75988499D02*
G01*
X61913888Y-76190249D01*
X62069724Y-76291777D01*
X62295515Y-76380256D01*
X62299422Y-76381188D01*
X62444698Y-76429099D01*
X62483978Y-76469931D01*
X62444710Y-76476692D01*
X62295287Y-76449633D01*
X62087386Y-76389173D01*
X61873677Y-76313080D01*
X61706827Y-76239120D01*
X61639506Y-76185061D01*
X61638592Y-76179750D01*
X61557333Y-76122608D01*
X61384722Y-76068282D01*
X61243543Y-76032349D01*
X61201658Y-75997144D01*
X61286728Y-75954309D01*
X61370816Y-75935440D01*
X61620012Y-75988499D01*
G37*
G36*
X62345061Y-74182414D02*
G01*
X62341534Y-74196197D01*
X62266666Y-74270062D01*
X62238910Y-74284664D01*
X62188271Y-74279315D01*
X62191799Y-74265532D01*
X62266666Y-74191667D01*
X62294422Y-74177065D01*
X62345061Y-74182414D01*
G37*
G36*
X62521753Y-75453805D02*
G01*
X62534644Y-75580959D01*
X62521459Y-75700265D01*
X62508384Y-75818365D01*
X62508034Y-75820973D01*
X62440466Y-75877161D01*
X62435142Y-75876651D01*
X62393703Y-75803987D01*
X62390440Y-75657759D01*
X62419736Y-75508935D01*
X62475975Y-75428482D01*
X62521753Y-75453805D01*
G37*
G36*
X62710905Y-76530453D02*
G01*
X62723170Y-76554033D01*
X62658642Y-76582716D01*
X62617139Y-76577059D01*
X62606378Y-76530453D01*
X62617868Y-76521071D01*
X62710905Y-76530453D01*
G37*
G36*
X64163809Y-76563082D02*
G01*
X64230416Y-76594205D01*
X64487894Y-76696575D01*
X64765476Y-76788740D01*
X65128086Y-76895140D01*
X64721814Y-76854524D01*
X64496805Y-76834104D01*
X64134864Y-76805737D01*
X63781073Y-76782004D01*
X63502888Y-76759129D01*
X63248483Y-76725992D01*
X63093778Y-76691219D01*
X63049990Y-76672807D01*
X62991558Y-76625326D01*
X63054650Y-76604089D01*
X63213225Y-76612030D01*
X63441245Y-76652081D01*
X63539136Y-76671840D01*
X63798030Y-76692855D01*
X63944728Y-76648523D01*
X63962560Y-76542352D01*
X63955993Y-76516357D01*
X64003416Y-76496226D01*
X64163809Y-76563082D01*
G37*
G36*
X64750499Y-75059018D02*
G01*
X64666034Y-75138628D01*
X64503218Y-75258290D01*
X64435501Y-75306635D01*
X64286687Y-75433452D01*
X64227078Y-75518817D01*
X64243311Y-75558181D01*
X64345554Y-75686885D01*
X64510779Y-75851996D01*
X64651835Y-75985536D01*
X64731641Y-76080047D01*
X64696227Y-76093057D01*
X64538964Y-76025212D01*
X64253223Y-75877161D01*
X64246312Y-75873476D01*
X63931634Y-75717877D01*
X63734691Y-75651376D01*
X63645548Y-75672348D01*
X63654266Y-75779167D01*
X63647392Y-75807988D01*
X63563789Y-75752171D01*
X63417698Y-75608234D01*
X63306913Y-75482371D01*
X63196853Y-75334606D01*
X63170190Y-75261086D01*
X63201707Y-75249593D01*
X63354313Y-75236404D01*
X63580687Y-75238614D01*
X63687894Y-75238957D01*
X64022970Y-75206422D01*
X64340477Y-75137865D01*
X64487401Y-75095856D01*
X64671420Y-75052078D01*
X64753808Y-75045579D01*
X64750499Y-75059018D01*
G37*
G36*
X63599382Y-74226238D02*
G01*
X63596370Y-74248993D01*
X63520987Y-74309260D01*
X63503246Y-74308361D01*
X63442592Y-74274689D01*
X63446200Y-74262113D01*
X63520987Y-74191667D01*
X63551354Y-74179418D01*
X63599382Y-74226238D01*
G37*
G36*
X67164093Y-75847942D02*
G01*
X67218912Y-75879875D01*
X67243814Y-75957075D01*
X67243714Y-75957238D01*
X67279726Y-76024185D01*
X67420653Y-76095985D01*
X67636728Y-76171410D01*
X67430112Y-76226520D01*
X67355086Y-76252074D01*
X67259959Y-76328551D01*
X67193425Y-76479577D01*
X67132186Y-76745754D01*
X67076997Y-76990611D01*
X67022134Y-77159381D01*
X66985022Y-77197979D01*
X66974001Y-77099515D01*
X66997412Y-76857099D01*
X67010243Y-76749140D01*
X67019671Y-76573612D01*
X67004945Y-76504321D01*
X66986143Y-76508850D01*
X66860436Y-76561715D01*
X66669003Y-76654881D01*
X66652049Y-76663348D01*
X66384164Y-76767615D01*
X66062430Y-76854740D01*
X65737006Y-76915236D01*
X65458055Y-76939616D01*
X65275736Y-76918393D01*
X65219965Y-76880913D01*
X65279152Y-76843931D01*
X65480864Y-76804990D01*
X65830332Y-76744504D01*
X66354411Y-76619097D01*
X66754261Y-76473300D01*
X67021753Y-76311309D01*
X67148757Y-76137319D01*
X67127143Y-75955524D01*
X67110249Y-75923002D01*
X67086543Y-75837194D01*
X67164093Y-75847942D01*
G37*
G36*
X66473868Y-73943416D02*
G01*
X66486132Y-73966996D01*
X66421604Y-73995679D01*
X66380102Y-73990022D01*
X66369341Y-73943416D01*
X66380831Y-73934034D01*
X66473868Y-73943416D01*
G37*
G36*
X68417826Y-75872545D02*
G01*
X68437187Y-75920868D01*
X68430086Y-76076903D01*
X68408775Y-76184875D01*
X68483082Y-76380031D01*
X68704561Y-76548432D01*
X68740466Y-76568724D01*
X68868006Y-76676901D01*
X68930991Y-76784704D01*
X68915832Y-76853543D01*
X68808939Y-76844826D01*
X68803656Y-76843049D01*
X68660556Y-76835429D01*
X68417145Y-76855242D01*
X68122982Y-76898604D01*
X67558333Y-76998933D01*
X67538151Y-77339590D01*
X67517969Y-77680247D01*
X68297876Y-77680247D01*
X68497400Y-77677851D01*
X68809705Y-77662533D01*
X69030435Y-77635731D01*
X69127024Y-77600573D01*
X69153736Y-77573444D01*
X69263639Y-77574899D01*
X69301182Y-77612191D01*
X69249044Y-77668346D01*
X69056367Y-77711790D01*
X68733276Y-77740670D01*
X68289899Y-77753132D01*
X67934507Y-77753432D01*
X67633528Y-77741527D01*
X67479938Y-77714032D01*
X67442899Y-77707401D01*
X67337389Y-77641673D01*
X67291770Y-77534959D01*
X67280811Y-77377878D01*
X67277673Y-77092284D01*
X67160715Y-77307871D01*
X67156996Y-77314692D01*
X67065733Y-77462368D01*
X67007064Y-77523457D01*
X66986810Y-77519510D01*
X66978883Y-77481043D01*
X67020220Y-77381725D01*
X67122034Y-77197481D01*
X67295544Y-76904238D01*
X67334227Y-76840347D01*
X67375261Y-76778704D01*
X67440740Y-76778704D01*
X67479938Y-76817902D01*
X67519135Y-76778704D01*
X67479938Y-76739507D01*
X67440740Y-76778704D01*
X67375261Y-76778704D01*
X67513696Y-76570740D01*
X67644967Y-76430447D01*
X67739297Y-76406853D01*
X67760577Y-76415631D01*
X67796061Y-76460076D01*
X67688505Y-76515010D01*
X67592335Y-76564518D01*
X67520474Y-76670891D01*
X67585289Y-76771138D01*
X67605756Y-76777762D01*
X67748994Y-76771201D01*
X67957665Y-76726198D01*
X67975034Y-76721306D01*
X68147595Y-76664827D01*
X68185747Y-76622838D01*
X68107098Y-76577857D01*
X68033775Y-76547207D01*
X68010231Y-76518961D01*
X68135422Y-76509831D01*
X68243874Y-76495400D01*
X68292770Y-76424209D01*
X68273909Y-76249537D01*
X68261066Y-76054440D01*
X68289795Y-75899185D01*
X68346794Y-75826120D01*
X68417826Y-75872545D01*
G37*
G36*
X67440062Y-75366776D02*
G01*
X67463193Y-75395210D01*
X67496761Y-75459869D01*
X67409711Y-75438275D01*
X67294973Y-75434859D01*
X67124240Y-75527026D01*
X67015126Y-75616553D01*
X66973514Y-75627811D01*
X67021841Y-75554963D01*
X67154591Y-75417844D01*
X67265046Y-75322636D01*
X67356469Y-75295104D01*
X67440062Y-75366776D01*
G37*
G36*
X67362345Y-74583642D02*
G01*
X67323148Y-74622840D01*
X67283950Y-74583642D01*
X67323148Y-74544445D01*
X67362345Y-74583642D01*
G37*
G36*
X67488487Y-74818516D02*
G01*
X67513625Y-74956019D01*
X67509988Y-75040015D01*
X67492273Y-75081418D01*
X67440740Y-74975618D01*
X67399168Y-74877507D01*
X67367855Y-74799229D01*
X67368752Y-74794635D01*
X67440740Y-74779630D01*
X67488487Y-74818516D01*
G37*
G36*
X67580781Y-74582067D02*
G01*
X67571399Y-74675103D01*
X67547819Y-74687368D01*
X67519135Y-74622840D01*
X67524793Y-74581338D01*
X67571399Y-74570577D01*
X67580781Y-74582067D01*
G37*
G36*
X67832716Y-74191667D02*
G01*
X67793518Y-74230865D01*
X67754321Y-74191667D01*
X67793518Y-74152470D01*
X67832716Y-74191667D01*
G37*
G36*
X68067901Y-74191667D02*
G01*
X68028703Y-74230865D01*
X67989506Y-74191667D01*
X68028703Y-74152470D01*
X68067901Y-74191667D01*
G37*
G36*
X68492866Y-75504325D02*
G01*
X68490740Y-75596227D01*
X68457147Y-75657556D01*
X68366561Y-75720371D01*
X68360748Y-75720172D01*
X68315024Y-75669451D01*
X68351210Y-75574945D01*
X68445230Y-75503133D01*
X68492866Y-75504325D01*
G37*
G36*
X69337978Y-73923186D02*
G01*
X69400617Y-73987292D01*
X69391416Y-74019462D01*
X69296090Y-74097410D01*
X69246369Y-74103147D01*
X69191563Y-74027403D01*
X69201942Y-73979706D01*
X69296090Y-73917284D01*
X69337978Y-73923186D01*
G37*
G36*
X70027777Y-74113272D02*
G01*
X69988580Y-74152470D01*
X69949382Y-74113272D01*
X69988580Y-74074074D01*
X70027777Y-74113272D01*
G37*
G36*
X70262962Y-74034877D02*
G01*
X70223765Y-74074074D01*
X70184567Y-74034877D01*
X70223765Y-73995679D01*
X70262962Y-74034877D01*
G37*
G36*
X71375192Y-76764349D02*
G01*
X71411479Y-76792567D01*
X71327829Y-76811713D01*
X71248316Y-76806169D01*
X71224935Y-76770538D01*
X71252670Y-76755003D01*
X71375192Y-76764349D01*
G37*
G36*
X71438888Y-76308334D02*
G01*
X71399691Y-76347531D01*
X71360493Y-76308334D01*
X71399691Y-76269136D01*
X71438888Y-76308334D01*
G37*
G36*
X72108879Y-75590301D02*
G01*
X72104740Y-75700772D01*
X72074935Y-75777664D01*
X72008814Y-75975155D01*
X71961522Y-76059873D01*
X71946897Y-76086072D01*
X71868568Y-76100729D01*
X71830864Y-75994753D01*
X71817205Y-75939914D01*
X71713271Y-75877161D01*
X71679912Y-75874816D01*
X71657119Y-75833126D01*
X71752469Y-75720371D01*
X71909259Y-75720371D01*
X71914916Y-75761873D01*
X71961522Y-75772634D01*
X71970905Y-75761144D01*
X71961522Y-75668107D01*
X71937942Y-75655843D01*
X71909259Y-75720371D01*
X71752469Y-75720371D01*
X71877420Y-75620570D01*
X72020403Y-75564274D01*
X72108879Y-75590301D01*
G37*
G36*
X72105246Y-76190741D02*
G01*
X72042899Y-76236120D01*
X71885033Y-76263626D01*
X71804099Y-76260154D01*
X71762516Y-76242764D01*
X71870061Y-76190741D01*
X71987275Y-76144721D01*
X72110054Y-76124242D01*
X72105246Y-76190741D01*
G37*
G36*
X72269985Y-75253608D02*
G01*
X72340432Y-75328395D01*
X72352681Y-75358763D01*
X72305861Y-75406791D01*
X72283105Y-75403778D01*
X72222839Y-75328395D01*
X72223738Y-75310654D01*
X72257410Y-75250000D01*
X72269985Y-75253608D01*
G37*
G36*
X72496667Y-75956454D02*
G01*
X72481308Y-75977014D01*
X72375003Y-76033951D01*
X72331037Y-76029812D01*
X72312552Y-75988905D01*
X72422898Y-75925644D01*
X72484048Y-75911906D01*
X72496667Y-75956454D01*
G37*
G36*
X72458024Y-75602778D02*
G01*
X72418827Y-75641976D01*
X72379629Y-75602778D01*
X72418827Y-75563581D01*
X72458024Y-75602778D01*
G37*
G36*
X72823868Y-75903293D02*
G01*
X72836132Y-75926872D01*
X72771604Y-75955556D01*
X72730102Y-75949898D01*
X72719341Y-75903293D01*
X72730831Y-75893910D01*
X72823868Y-75903293D01*
G37*
G36*
X72928395Y-76229939D02*
G01*
X72889197Y-76269136D01*
X72850000Y-76229939D01*
X72889197Y-76190741D01*
X72928395Y-76229939D01*
G37*
%TD*%
M02*
