M48
; DRILL file {KiCad 8.0.4} date 2024-10-07T01:35:37+0300
; FORMAT={-:-/ absolute / inch / decimal}
; #@! TF.CreationDate,2024-10-07T01:35:37+03:00
; #@! TF.GenerationSoftware,Kicad,Pcbnew,8.0.4
; #@! TF.FileFunction,Plated,1,2,PTH
FMAT,2
INCH
; #@! TA.AperFunction,Plated,PTH,ComponentDrill
T1C0.0394
; #@! TA.AperFunction,Plated,PTH,ComponentDrill
T2C0.1181
%
G90
G05
T1
X1.4411Y-2.45
X1.4413Y-2.55
X1.4413Y-2.65
X1.4413Y-2.75
X1.4415Y-2.85
X1.4415Y-2.95
X1.4417Y-3.05
X1.4417Y-3.15
X1.4417Y-3.25
X1.4419Y-3.35
X1.4419Y-3.45
X1.4419Y-3.55
X1.4419Y-3.65
X1.4419Y-3.75
X1.4419Y-3.85
X1.5411Y-2.45
X1.5413Y-2.55
X1.5413Y-2.65
X1.5413Y-2.75
X1.5415Y-2.85
X1.5415Y-2.95
X1.5417Y-3.05
X1.5417Y-3.15
X1.5417Y-3.25
X1.5419Y-3.35
X1.5419Y-3.45
X1.5419Y-3.55
X1.5419Y-3.65
X1.5419Y-3.75
X1.5419Y-3.85
X1.6411Y-2.45
X1.6413Y-2.55
X1.6413Y-2.65
X1.6413Y-2.75
X1.6415Y-2.85
X1.6415Y-2.95
X1.6417Y-3.05
X1.6417Y-3.15
X1.6417Y-3.25
X1.6419Y-3.35
X1.6419Y-3.45
X1.6419Y-3.55
X1.6419Y-3.65
X1.6419Y-3.75
X1.6419Y-3.85
X1.7413Y-2.25
X1.7413Y-2.35
X1.7413Y-2.45
X1.7415Y-2.55
X1.7415Y-2.65
X1.7415Y-2.75
X1.7417Y-2.85
X1.7417Y-2.95
X1.7417Y-4.1492
X1.7419Y-3.05
X1.7419Y-3.15
X1.7419Y-3.25
X1.7419Y-3.35
X1.7419Y-3.45
X1.7419Y-3.55
X1.7419Y-3.65
X1.7419Y-3.75
X1.7419Y-4.0492
X1.8413Y-2.25
X1.8413Y-2.35
X1.8413Y-2.45
X1.8415Y-2.55
X1.8415Y-2.65
X1.8415Y-2.75
X1.8417Y-2.85
X1.8417Y-2.95
X1.8419Y-3.05
X1.8419Y-3.15
X1.8419Y-3.25
X1.8419Y-3.35
X1.8419Y-3.45
X1.8419Y-3.55
X1.8419Y-3.65
X1.8419Y-3.75
X1.8419Y-4.0492
X1.8419Y-4.1492
X1.9413Y-2.25
X1.9413Y-2.35
X1.9413Y-2.45
X1.9415Y-2.55
X1.9415Y-2.65
X1.9415Y-2.75
X1.9417Y-2.85
X1.9417Y-2.95
X1.9419Y-3.05
X1.9419Y-3.15
X1.9419Y-3.25
X1.9419Y-3.35
X1.9419Y-3.45
X1.9419Y-3.55
X1.9419Y-3.65
X1.9419Y-3.75
X1.9419Y-4.0492
X1.9419Y-4.1492
X2.0413Y-2.25
X2.0413Y-2.35
X2.0413Y-2.45
X2.0415Y-2.55
X2.0415Y-2.65
X2.0415Y-2.75
X2.0417Y-2.85
X2.0417Y-2.95
X2.0419Y-3.05
X2.0419Y-3.15
X2.0419Y-3.25
X2.0419Y-3.35
X2.0419Y-3.45
X2.0419Y-3.55
X2.0419Y-3.65
X2.0419Y-3.75
X2.0419Y-4.0492
X2.0419Y-4.1492
X2.1413Y-2.25
X2.1413Y-2.35
X2.1413Y-2.45
X2.1415Y-2.55
X2.1415Y-2.65
X2.1415Y-2.75
X2.1417Y-2.85
X2.1417Y-2.95
X2.1419Y-3.05
X2.1419Y-3.15
X2.1419Y-3.25
X2.1419Y-3.35
X2.1419Y-3.45
X2.1419Y-3.55
X2.1419Y-3.65
X2.1419Y-3.75
X2.1419Y-4.0492
X2.1419Y-4.1492
X2.2413Y-2.25
X2.2413Y-2.35
X2.2413Y-2.45
X2.2415Y-2.55
X2.2415Y-2.65
X2.2415Y-2.75
X2.2417Y-2.85
X2.2417Y-2.95
X2.2419Y-3.05
X2.2419Y-3.15
X2.2419Y-3.25
X2.2419Y-3.35
X2.2419Y-3.45
X2.2419Y-3.55
X2.2419Y-3.65
X2.2419Y-3.75
X2.2419Y-4.0492
X2.2419Y-4.1492
X2.3413Y-2.25
X2.3413Y-2.35
X2.3413Y-2.45
X2.3415Y-2.55
X2.3415Y-2.65
X2.3415Y-2.75
X2.3417Y-2.85
X2.3417Y-2.95
X2.3419Y-3.05
X2.3419Y-3.15
X2.3419Y-3.25
X2.3419Y-3.35
X2.3419Y-3.45
X2.3419Y-3.55
X2.3419Y-3.65
X2.3419Y-3.75
X2.3419Y-4.0492
X2.3419Y-4.1492
X2.4413Y-2.25
X2.4413Y-2.35
X2.4413Y-2.45
X2.4415Y-2.55
X2.4415Y-2.65
X2.4415Y-2.75
X2.4417Y-2.85
X2.4417Y-2.95
X2.4419Y-3.05
X2.4419Y-3.15
X2.4419Y-3.25
X2.4419Y-3.35
X2.4419Y-3.45
X2.4419Y-3.55
X2.4419Y-3.65
X2.4419Y-3.75
X2.4419Y-4.0492
X2.4419Y-4.1492
X2.5413Y-2.25
X2.5413Y-2.35
X2.5413Y-2.45
X2.5415Y-2.55
X2.5415Y-2.65
X2.5415Y-2.75
X2.5417Y-2.85
X2.5417Y-2.95
X2.5419Y-3.05
X2.5419Y-3.15
X2.5419Y-3.25
X2.5419Y-3.35
X2.5419Y-3.45
X2.5419Y-3.55
X2.5419Y-3.65
X2.5419Y-3.75
X2.5419Y-3.85
X2.5419Y-3.95
X2.6413Y-2.25
X2.6413Y-2.35
X2.6413Y-2.45
X2.6415Y-2.55
X2.6415Y-2.65
X2.6415Y-2.75
X2.6417Y-2.85
X2.6417Y-2.95
X2.6419Y-3.05
X2.6419Y-3.15
X2.6419Y-3.25
X2.6419Y-3.35
X2.6419Y-3.45
X2.6419Y-3.55
X2.6419Y-3.65
X2.6419Y-3.75
X2.6419Y-3.85
X2.6419Y-3.95
X2.7413Y-2.25
X2.7413Y-2.35
X2.7413Y-2.45
X2.7415Y-2.55
X2.7415Y-2.65
X2.7415Y-2.75
X2.7417Y-2.85
X2.7417Y-2.95
X2.7419Y-3.05
X2.7419Y-3.15
X2.7419Y-3.25
X2.7419Y-3.35
X2.7419Y-3.45
X2.7419Y-3.55
X2.7419Y-3.65
X2.7419Y-3.75
X2.7419Y-3.85
X2.7419Y-3.95
X2.8413Y-2.25
X2.8413Y-2.35
X2.8413Y-2.45
X2.8415Y-2.55
X2.8415Y-2.65
X2.8415Y-2.75
X2.8417Y-2.85
X2.8417Y-2.95
X2.8419Y-3.05
X2.8419Y-3.15
X2.8419Y-3.25
X2.8419Y-3.35
X2.8419Y-3.45
X2.8419Y-3.55
X2.8419Y-3.65
X2.8419Y-3.75
X2.8419Y-3.85
X2.8419Y-3.95
X2.9413Y-2.25
X2.9413Y-2.35
X2.9413Y-2.45
X2.9415Y-2.55
X2.9415Y-2.65
X2.9415Y-2.75
X2.9417Y-2.85
X2.9417Y-2.95
X2.9419Y-3.05
X2.9419Y-3.15
X2.9419Y-3.25
X2.9419Y-3.35
X2.9419Y-3.45
X2.9419Y-3.55
X2.9419Y-3.65
X2.9419Y-3.75
X2.9419Y-3.85
X2.9419Y-3.95
X3.0413Y-2.25
X3.0413Y-2.35
X3.0413Y-2.45
X3.0415Y-2.55
X3.0415Y-2.65
X3.0415Y-2.75
X3.0417Y-2.85
X3.0417Y-2.95
X3.0419Y-3.05
X3.0419Y-3.15
X3.0419Y-3.25
X3.0419Y-3.35
X3.0419Y-3.45
X3.0419Y-3.55
X3.0419Y-3.65
X3.0419Y-3.75
X3.0419Y-3.85
X3.0419Y-3.95
X3.1413Y-2.25
X3.1413Y-2.35
X3.1413Y-2.45
X3.1415Y-2.55
X3.1415Y-2.65
X3.1415Y-2.75
X3.1417Y-2.85
X3.1417Y-2.95
X3.1419Y-3.05
X3.1419Y-3.15
X3.1419Y-3.25
X3.1419Y-3.35
X3.1419Y-3.45
X3.1419Y-3.55
X3.1419Y-3.65
X3.1419Y-3.75
X3.1419Y-4.0492
X3.1419Y-4.1492
X3.2413Y-2.25
X3.2413Y-2.35
X3.2413Y-2.45
X3.2415Y-2.55
X3.2415Y-2.65
X3.2415Y-2.75
X3.2417Y-2.85
X3.2417Y-2.95
X3.2419Y-3.05
X3.2419Y-3.15
X3.2419Y-3.25
X3.2419Y-3.35
X3.2419Y-3.45
X3.2419Y-3.55
X3.2419Y-3.65
X3.2419Y-3.75
X3.2419Y-4.0492
X3.2419Y-4.1492
X3.3413Y-2.25
X3.3413Y-2.35
X3.3413Y-2.45
X3.3415Y-2.55
X3.3415Y-2.65
X3.3415Y-2.75
X3.3417Y-2.85
X3.3417Y-2.95
X3.3419Y-3.05
X3.3419Y-3.15
X3.3419Y-3.25
X3.3419Y-3.35
X3.3419Y-3.45
X3.3419Y-3.55
X3.3419Y-3.65
X3.3419Y-3.75
X3.3419Y-4.0492
X3.3419Y-4.1492
X3.4413Y-2.25
X3.4413Y-2.35
X3.4413Y-2.45
X3.4415Y-2.55
X3.4415Y-2.65
X3.4415Y-2.75
X3.4417Y-2.85
X3.4417Y-2.95
X3.4419Y-3.05
X3.4419Y-3.15
X3.4419Y-3.25
X3.4419Y-3.35
X3.4419Y-3.45
X3.4419Y-3.55
X3.4419Y-3.65
X3.4419Y-3.75
X3.4419Y-4.0492
X3.4419Y-4.1492
X3.5413Y-2.25
X3.5413Y-2.35
X3.5413Y-2.45
X3.5415Y-2.55
X3.5415Y-2.65
X3.5415Y-2.75
X3.5417Y-2.85
X3.5417Y-2.95
X3.5419Y-3.05
X3.5419Y-3.15
X3.5419Y-3.25
X3.5419Y-3.35
X3.5419Y-3.45
X3.5419Y-3.55
X3.5419Y-3.65
X3.5419Y-3.75
X3.5419Y-4.0492
X3.5419Y-4.1492
X3.6413Y-2.25
X3.6413Y-2.35
X3.6413Y-2.45
X3.6415Y-2.55
X3.6415Y-2.65
X3.6415Y-2.75
X3.6417Y-2.85
X3.6417Y-2.95
X3.6419Y-3.05
X3.6419Y-3.15
X3.6419Y-3.25
X3.6419Y-3.35
X3.6419Y-3.45
X3.6419Y-3.55
X3.6419Y-3.65
X3.6419Y-3.75
X3.6419Y-4.0492
X3.6419Y-4.1492
X3.7413Y-2.25
X3.7413Y-2.35
X3.7413Y-2.45
X3.7415Y-2.55
X3.7415Y-2.65
X3.7415Y-2.75
X3.7417Y-2.85
X3.7417Y-2.95
X3.7419Y-3.05
X3.7419Y-3.15
X3.7419Y-3.25
X3.7419Y-3.35
X3.7419Y-3.45
X3.7419Y-3.55
X3.7419Y-3.65
X3.7419Y-3.75
X3.7419Y-4.0492
X3.7419Y-4.1492
X3.8413Y-2.25
X3.8413Y-2.35
X3.8413Y-2.45
X3.8415Y-2.55
X3.8415Y-2.65
X3.8415Y-2.75
X3.8417Y-2.85
X3.8417Y-2.95
X3.8419Y-3.05
X3.8419Y-3.15
X3.8419Y-3.25
X3.8419Y-3.35
X3.8419Y-3.45
X3.8419Y-3.55
X3.8419Y-3.65
X3.8419Y-3.75
X3.8419Y-4.0492
X3.8419Y-4.1492
X3.9413Y-2.25
X3.9413Y-2.35
X3.9413Y-2.45
X3.9415Y-2.55
X3.9415Y-2.65
X3.9415Y-2.75
X3.9417Y-2.85
X3.9417Y-2.95
X3.9419Y-3.05
X3.9419Y-3.15
X3.9419Y-3.25
X3.9419Y-3.35
X3.9419Y-3.45
X3.9419Y-3.55
X3.9419Y-3.65
X3.9419Y-3.75
X3.9419Y-4.0492
X3.9419Y-4.1492
X4.0413Y-2.25
X4.0413Y-2.35
X4.0413Y-2.45
X4.0415Y-2.55
X4.0415Y-2.65
X4.0415Y-2.75
X4.0417Y-2.85
X4.0417Y-2.95
X4.0419Y-3.05
X4.0419Y-3.15
X4.0419Y-3.25
X4.0419Y-3.35
X4.0419Y-3.45
X4.0419Y-3.55
X4.0419Y-3.65
X4.0419Y-3.75
X4.0419Y-4.0492
X4.0419Y-4.1492
X4.1415Y-2.4504
X4.1417Y-2.5504
X4.1417Y-2.6504
X4.1417Y-2.7504
X4.1419Y-2.8504
X4.1419Y-2.9504
X4.1419Y-3.35
X4.1419Y-3.45
X4.1419Y-3.55
X4.1419Y-3.65
X4.1419Y-3.75
X4.1419Y-3.85
X4.1421Y-3.0504
X4.1421Y-3.1504
X4.1421Y-3.2504
X4.2415Y-2.4504
X4.2417Y-2.5504
X4.2417Y-2.6504
X4.2417Y-2.7504
X4.2419Y-2.8504
X4.2419Y-2.9504
X4.2419Y-3.35
X4.2419Y-3.45
X4.2419Y-3.55
X4.2419Y-3.65
X4.2419Y-3.75
X4.2419Y-3.85
X4.2421Y-3.0504
X4.2421Y-3.1504
X4.2421Y-3.2504
X4.3415Y-2.4504
X4.3417Y-2.5504
X4.3417Y-2.6504
X4.3417Y-2.7504
X4.3419Y-2.8504
X4.3419Y-2.9504
X4.3419Y-3.35
X4.3419Y-3.45
X4.3419Y-3.55
X4.3419Y-3.65
X4.3419Y-3.75
X4.3419Y-3.85
X4.3421Y-3.0504
X4.3421Y-3.1504
X4.3421Y-3.2504
T2
X1.5419Y-2.2772
X1.5419Y-4.0492
X4.2419Y-2.2772
X4.2419Y-4.0492
M30
