%TF.GenerationSoftware,KiCad,Pcbnew,8.0.4*%
%TF.CreationDate,2024-10-07T01:35:34+03:00*%
%TF.ProjectId,Flipper Zero Protoboard max,466c6970-7065-4722-905a-65726f205072,rev?*%
%TF.SameCoordinates,Original*%
%TF.FileFunction,Legend,Bot*%
%TF.FilePolarity,Positive*%
%FSLAX46Y46*%
G04 Gerber Fmt 4.6, Leading zero omitted, Abs format (unit mm)*
G04 Created by KiCad (PCBNEW 8.0.4) date 2024-10-07 01:35:34*
%MOMM*%
%LPD*%
G01*
G04 APERTURE LIST*
%ADD10C,0.150000*%
%ADD11C,0.250000*%
%ADD12C,0.000000*%
G04 APERTURE END LIST*
D10*
X103094649Y-98129572D02*
X102694649Y-98129572D01*
X102894649Y-98829572D02*
X102894649Y-98129572D01*
X102461316Y-98829572D02*
X102461316Y-98129572D01*
X102161316Y-98829572D02*
X102161316Y-98462905D01*
X102161316Y-98462905D02*
X102194649Y-98396239D01*
X102194649Y-98396239D02*
X102261316Y-98362905D01*
X102261316Y-98362905D02*
X102361316Y-98362905D01*
X102361316Y-98362905D02*
X102427983Y-98396239D01*
X102427983Y-98396239D02*
X102461316Y-98429572D01*
X101561316Y-98796239D02*
X101627983Y-98829572D01*
X101627983Y-98829572D02*
X101761316Y-98829572D01*
X101761316Y-98829572D02*
X101827983Y-98796239D01*
X101827983Y-98796239D02*
X101861316Y-98729572D01*
X101861316Y-98729572D02*
X101861316Y-98462905D01*
X101861316Y-98462905D02*
X101827983Y-98396239D01*
X101827983Y-98396239D02*
X101761316Y-98362905D01*
X101761316Y-98362905D02*
X101627983Y-98362905D01*
X101627983Y-98362905D02*
X101561316Y-98396239D01*
X101561316Y-98396239D02*
X101527983Y-98462905D01*
X101527983Y-98462905D02*
X101527983Y-98529572D01*
X101527983Y-98529572D02*
X101861316Y-98596239D01*
X101227983Y-98829572D02*
X101227983Y-98362905D01*
X101227983Y-98496239D02*
X101194650Y-98429572D01*
X101194650Y-98429572D02*
X101161316Y-98396239D01*
X101161316Y-98396239D02*
X101094650Y-98362905D01*
X101094650Y-98362905D02*
X101027983Y-98362905D01*
X100527983Y-98796239D02*
X100594650Y-98829572D01*
X100594650Y-98829572D02*
X100727983Y-98829572D01*
X100727983Y-98829572D02*
X100794650Y-98796239D01*
X100794650Y-98796239D02*
X100827983Y-98729572D01*
X100827983Y-98729572D02*
X100827983Y-98462905D01*
X100827983Y-98462905D02*
X100794650Y-98396239D01*
X100794650Y-98396239D02*
X100727983Y-98362905D01*
X100727983Y-98362905D02*
X100594650Y-98362905D01*
X100594650Y-98362905D02*
X100527983Y-98396239D01*
X100527983Y-98396239D02*
X100494650Y-98462905D01*
X100494650Y-98462905D02*
X100494650Y-98529572D01*
X100494650Y-98529572D02*
X100827983Y-98596239D01*
X99661317Y-98829572D02*
X99661317Y-98362905D01*
X99661317Y-98129572D02*
X99694650Y-98162905D01*
X99694650Y-98162905D02*
X99661317Y-98196239D01*
X99661317Y-98196239D02*
X99627984Y-98162905D01*
X99627984Y-98162905D02*
X99661317Y-98129572D01*
X99661317Y-98129572D02*
X99661317Y-98196239D01*
X99361317Y-98796239D02*
X99294651Y-98829572D01*
X99294651Y-98829572D02*
X99161317Y-98829572D01*
X99161317Y-98829572D02*
X99094651Y-98796239D01*
X99094651Y-98796239D02*
X99061317Y-98729572D01*
X99061317Y-98729572D02*
X99061317Y-98696239D01*
X99061317Y-98696239D02*
X99094651Y-98629572D01*
X99094651Y-98629572D02*
X99161317Y-98596239D01*
X99161317Y-98596239D02*
X99261317Y-98596239D01*
X99261317Y-98596239D02*
X99327984Y-98562905D01*
X99327984Y-98562905D02*
X99361317Y-98496239D01*
X99361317Y-98496239D02*
X99361317Y-98462905D01*
X99361317Y-98462905D02*
X99327984Y-98396239D01*
X99327984Y-98396239D02*
X99261317Y-98362905D01*
X99261317Y-98362905D02*
X99161317Y-98362905D01*
X99161317Y-98362905D02*
X99094651Y-98396239D01*
X98227984Y-98829572D02*
X98227984Y-98129572D01*
X98227984Y-98396239D02*
X98161317Y-98362905D01*
X98161317Y-98362905D02*
X98027984Y-98362905D01*
X98027984Y-98362905D02*
X97961317Y-98396239D01*
X97961317Y-98396239D02*
X97927984Y-98429572D01*
X97927984Y-98429572D02*
X97894651Y-98496239D01*
X97894651Y-98496239D02*
X97894651Y-98696239D01*
X97894651Y-98696239D02*
X97927984Y-98762905D01*
X97927984Y-98762905D02*
X97961317Y-98796239D01*
X97961317Y-98796239D02*
X98027984Y-98829572D01*
X98027984Y-98829572D02*
X98161317Y-98829572D01*
X98161317Y-98829572D02*
X98227984Y-98796239D01*
X97327984Y-98796239D02*
X97394651Y-98829572D01*
X97394651Y-98829572D02*
X97527984Y-98829572D01*
X97527984Y-98829572D02*
X97594651Y-98796239D01*
X97594651Y-98796239D02*
X97627984Y-98729572D01*
X97627984Y-98729572D02*
X97627984Y-98462905D01*
X97627984Y-98462905D02*
X97594651Y-98396239D01*
X97594651Y-98396239D02*
X97527984Y-98362905D01*
X97527984Y-98362905D02*
X97394651Y-98362905D01*
X97394651Y-98362905D02*
X97327984Y-98396239D01*
X97327984Y-98396239D02*
X97294651Y-98462905D01*
X97294651Y-98462905D02*
X97294651Y-98529572D01*
X97294651Y-98529572D02*
X97627984Y-98596239D01*
X96694651Y-98829572D02*
X96694651Y-98462905D01*
X96694651Y-98462905D02*
X96727984Y-98396239D01*
X96727984Y-98396239D02*
X96794651Y-98362905D01*
X96794651Y-98362905D02*
X96927984Y-98362905D01*
X96927984Y-98362905D02*
X96994651Y-98396239D01*
X96694651Y-98796239D02*
X96761318Y-98829572D01*
X96761318Y-98829572D02*
X96927984Y-98829572D01*
X96927984Y-98829572D02*
X96994651Y-98796239D01*
X96994651Y-98796239D02*
X97027984Y-98729572D01*
X97027984Y-98729572D02*
X97027984Y-98662905D01*
X97027984Y-98662905D02*
X96994651Y-98596239D01*
X96994651Y-98596239D02*
X96927984Y-98562905D01*
X96927984Y-98562905D02*
X96761318Y-98562905D01*
X96761318Y-98562905D02*
X96694651Y-98529572D01*
X96061318Y-98362905D02*
X96061318Y-98829572D01*
X96361318Y-98362905D02*
X96361318Y-98729572D01*
X96361318Y-98729572D02*
X96327985Y-98796239D01*
X96327985Y-98796239D02*
X96261318Y-98829572D01*
X96261318Y-98829572D02*
X96161318Y-98829572D01*
X96161318Y-98829572D02*
X96094651Y-98796239D01*
X96094651Y-98796239D02*
X96061318Y-98762905D01*
X95827985Y-98362905D02*
X95561318Y-98362905D01*
X95727985Y-98129572D02*
X95727985Y-98729572D01*
X95727985Y-98729572D02*
X95694652Y-98796239D01*
X95694652Y-98796239D02*
X95627985Y-98829572D01*
X95627985Y-98829572D02*
X95561318Y-98829572D01*
X95394652Y-98362905D02*
X95227985Y-98829572D01*
X95061318Y-98362905D02*
X95227985Y-98829572D01*
X95227985Y-98829572D02*
X95294652Y-98996239D01*
X95294652Y-98996239D02*
X95327985Y-99029572D01*
X95327985Y-99029572D02*
X95394652Y-99062905D01*
X94261319Y-98829572D02*
X94261319Y-98362905D01*
X94261319Y-98129572D02*
X94294652Y-98162905D01*
X94294652Y-98162905D02*
X94261319Y-98196239D01*
X94261319Y-98196239D02*
X94227986Y-98162905D01*
X94227986Y-98162905D02*
X94261319Y-98129572D01*
X94261319Y-98129572D02*
X94261319Y-98196239D01*
X93927986Y-98362905D02*
X93927986Y-98829572D01*
X93927986Y-98429572D02*
X93894653Y-98396239D01*
X93894653Y-98396239D02*
X93827986Y-98362905D01*
X93827986Y-98362905D02*
X93727986Y-98362905D01*
X93727986Y-98362905D02*
X93661319Y-98396239D01*
X93661319Y-98396239D02*
X93627986Y-98462905D01*
X93627986Y-98462905D02*
X93627986Y-98829572D01*
X92861320Y-98362905D02*
X92594653Y-98362905D01*
X92761320Y-98129572D02*
X92761320Y-98729572D01*
X92761320Y-98729572D02*
X92727987Y-98796239D01*
X92727987Y-98796239D02*
X92661320Y-98829572D01*
X92661320Y-98829572D02*
X92594653Y-98829572D01*
X92361320Y-98829572D02*
X92361320Y-98129572D01*
X92061320Y-98829572D02*
X92061320Y-98462905D01*
X92061320Y-98462905D02*
X92094653Y-98396239D01*
X92094653Y-98396239D02*
X92161320Y-98362905D01*
X92161320Y-98362905D02*
X92261320Y-98362905D01*
X92261320Y-98362905D02*
X92327987Y-98396239D01*
X92327987Y-98396239D02*
X92361320Y-98429572D01*
X91727987Y-98829572D02*
X91727987Y-98362905D01*
X91727987Y-98129572D02*
X91761320Y-98162905D01*
X91761320Y-98162905D02*
X91727987Y-98196239D01*
X91727987Y-98196239D02*
X91694654Y-98162905D01*
X91694654Y-98162905D02*
X91727987Y-98129572D01*
X91727987Y-98129572D02*
X91727987Y-98196239D01*
X91427987Y-98796239D02*
X91361321Y-98829572D01*
X91361321Y-98829572D02*
X91227987Y-98829572D01*
X91227987Y-98829572D02*
X91161321Y-98796239D01*
X91161321Y-98796239D02*
X91127987Y-98729572D01*
X91127987Y-98729572D02*
X91127987Y-98696239D01*
X91127987Y-98696239D02*
X91161321Y-98629572D01*
X91161321Y-98629572D02*
X91227987Y-98596239D01*
X91227987Y-98596239D02*
X91327987Y-98596239D01*
X91327987Y-98596239D02*
X91394654Y-98562905D01*
X91394654Y-98562905D02*
X91427987Y-98496239D01*
X91427987Y-98496239D02*
X91427987Y-98462905D01*
X91427987Y-98462905D02*
X91394654Y-98396239D01*
X91394654Y-98396239D02*
X91327987Y-98362905D01*
X91327987Y-98362905D02*
X91227987Y-98362905D01*
X91227987Y-98362905D02*
X91161321Y-98396239D01*
X89994654Y-98829572D02*
X89994654Y-98129572D01*
X89994654Y-98796239D02*
X90061321Y-98829572D01*
X90061321Y-98829572D02*
X90194654Y-98829572D01*
X90194654Y-98829572D02*
X90261321Y-98796239D01*
X90261321Y-98796239D02*
X90294654Y-98762905D01*
X90294654Y-98762905D02*
X90327987Y-98696239D01*
X90327987Y-98696239D02*
X90327987Y-98496239D01*
X90327987Y-98496239D02*
X90294654Y-98429572D01*
X90294654Y-98429572D02*
X90261321Y-98396239D01*
X90261321Y-98396239D02*
X90194654Y-98362905D01*
X90194654Y-98362905D02*
X90061321Y-98362905D01*
X90061321Y-98362905D02*
X89994654Y-98396239D01*
X89361321Y-98829572D02*
X89361321Y-98462905D01*
X89361321Y-98462905D02*
X89394654Y-98396239D01*
X89394654Y-98396239D02*
X89461321Y-98362905D01*
X89461321Y-98362905D02*
X89594654Y-98362905D01*
X89594654Y-98362905D02*
X89661321Y-98396239D01*
X89361321Y-98796239D02*
X89427988Y-98829572D01*
X89427988Y-98829572D02*
X89594654Y-98829572D01*
X89594654Y-98829572D02*
X89661321Y-98796239D01*
X89661321Y-98796239D02*
X89694654Y-98729572D01*
X89694654Y-98729572D02*
X89694654Y-98662905D01*
X89694654Y-98662905D02*
X89661321Y-98596239D01*
X89661321Y-98596239D02*
X89594654Y-98562905D01*
X89594654Y-98562905D02*
X89427988Y-98562905D01*
X89427988Y-98562905D02*
X89361321Y-98529572D01*
X89027988Y-98829572D02*
X89027988Y-98362905D01*
X89027988Y-98496239D02*
X88994655Y-98429572D01*
X88994655Y-98429572D02*
X88961321Y-98396239D01*
X88961321Y-98396239D02*
X88894655Y-98362905D01*
X88894655Y-98362905D02*
X88827988Y-98362905D01*
X88594655Y-98829572D02*
X88594655Y-98129572D01*
X88527988Y-98562905D02*
X88327988Y-98829572D01*
X88327988Y-98362905D02*
X88594655Y-98629572D01*
X88027988Y-98362905D02*
X88027988Y-98829572D01*
X88027988Y-98429572D02*
X87994655Y-98396239D01*
X87994655Y-98396239D02*
X87927988Y-98362905D01*
X87927988Y-98362905D02*
X87827988Y-98362905D01*
X87827988Y-98362905D02*
X87761321Y-98396239D01*
X87761321Y-98396239D02*
X87727988Y-98462905D01*
X87727988Y-98462905D02*
X87727988Y-98829572D01*
X87127988Y-98796239D02*
X87194655Y-98829572D01*
X87194655Y-98829572D02*
X87327988Y-98829572D01*
X87327988Y-98829572D02*
X87394655Y-98796239D01*
X87394655Y-98796239D02*
X87427988Y-98729572D01*
X87427988Y-98729572D02*
X87427988Y-98462905D01*
X87427988Y-98462905D02*
X87394655Y-98396239D01*
X87394655Y-98396239D02*
X87327988Y-98362905D01*
X87327988Y-98362905D02*
X87194655Y-98362905D01*
X87194655Y-98362905D02*
X87127988Y-98396239D01*
X87127988Y-98396239D02*
X87094655Y-98462905D01*
X87094655Y-98462905D02*
X87094655Y-98529572D01*
X87094655Y-98529572D02*
X87427988Y-98596239D01*
X86827988Y-98796239D02*
X86761322Y-98829572D01*
X86761322Y-98829572D02*
X86627988Y-98829572D01*
X86627988Y-98829572D02*
X86561322Y-98796239D01*
X86561322Y-98796239D02*
X86527988Y-98729572D01*
X86527988Y-98729572D02*
X86527988Y-98696239D01*
X86527988Y-98696239D02*
X86561322Y-98629572D01*
X86561322Y-98629572D02*
X86627988Y-98596239D01*
X86627988Y-98596239D02*
X86727988Y-98596239D01*
X86727988Y-98596239D02*
X86794655Y-98562905D01*
X86794655Y-98562905D02*
X86827988Y-98496239D01*
X86827988Y-98496239D02*
X86827988Y-98462905D01*
X86827988Y-98462905D02*
X86794655Y-98396239D01*
X86794655Y-98396239D02*
X86727988Y-98362905D01*
X86727988Y-98362905D02*
X86627988Y-98362905D01*
X86627988Y-98362905D02*
X86561322Y-98396239D01*
X86261321Y-98796239D02*
X86194655Y-98829572D01*
X86194655Y-98829572D02*
X86061321Y-98829572D01*
X86061321Y-98829572D02*
X85994655Y-98796239D01*
X85994655Y-98796239D02*
X85961321Y-98729572D01*
X85961321Y-98729572D02*
X85961321Y-98696239D01*
X85961321Y-98696239D02*
X85994655Y-98629572D01*
X85994655Y-98629572D02*
X86061321Y-98596239D01*
X86061321Y-98596239D02*
X86161321Y-98596239D01*
X86161321Y-98596239D02*
X86227988Y-98562905D01*
X86227988Y-98562905D02*
X86261321Y-98496239D01*
X86261321Y-98496239D02*
X86261321Y-98462905D01*
X86261321Y-98462905D02*
X86227988Y-98396239D01*
X86227988Y-98396239D02*
X86161321Y-98362905D01*
X86161321Y-98362905D02*
X86061321Y-98362905D01*
X86061321Y-98362905D02*
X85994655Y-98396239D01*
X85227988Y-98362905D02*
X84961321Y-98362905D01*
X85127988Y-98129572D02*
X85127988Y-98729572D01*
X85127988Y-98729572D02*
X85094655Y-98796239D01*
X85094655Y-98796239D02*
X85027988Y-98829572D01*
X85027988Y-98829572D02*
X84961321Y-98829572D01*
X84727988Y-98829572D02*
X84727988Y-98129572D01*
X84427988Y-98829572D02*
X84427988Y-98462905D01*
X84427988Y-98462905D02*
X84461321Y-98396239D01*
X84461321Y-98396239D02*
X84527988Y-98362905D01*
X84527988Y-98362905D02*
X84627988Y-98362905D01*
X84627988Y-98362905D02*
X84694655Y-98396239D01*
X84694655Y-98396239D02*
X84727988Y-98429572D01*
X83794655Y-98829572D02*
X83794655Y-98462905D01*
X83794655Y-98462905D02*
X83827988Y-98396239D01*
X83827988Y-98396239D02*
X83894655Y-98362905D01*
X83894655Y-98362905D02*
X84027988Y-98362905D01*
X84027988Y-98362905D02*
X84094655Y-98396239D01*
X83794655Y-98796239D02*
X83861322Y-98829572D01*
X83861322Y-98829572D02*
X84027988Y-98829572D01*
X84027988Y-98829572D02*
X84094655Y-98796239D01*
X84094655Y-98796239D02*
X84127988Y-98729572D01*
X84127988Y-98729572D02*
X84127988Y-98662905D01*
X84127988Y-98662905D02*
X84094655Y-98596239D01*
X84094655Y-98596239D02*
X84027988Y-98562905D01*
X84027988Y-98562905D02*
X83861322Y-98562905D01*
X83861322Y-98562905D02*
X83794655Y-98529572D01*
X83561322Y-98362905D02*
X83294655Y-98362905D01*
X83461322Y-98129572D02*
X83461322Y-98729572D01*
X83461322Y-98729572D02*
X83427989Y-98796239D01*
X83427989Y-98796239D02*
X83361322Y-98829572D01*
X83361322Y-98829572D02*
X83294655Y-98829572D01*
X82227989Y-98796239D02*
X82294656Y-98829572D01*
X82294656Y-98829572D02*
X82427989Y-98829572D01*
X82427989Y-98829572D02*
X82494656Y-98796239D01*
X82494656Y-98796239D02*
X82527989Y-98762905D01*
X82527989Y-98762905D02*
X82561322Y-98696239D01*
X82561322Y-98696239D02*
X82561322Y-98496239D01*
X82561322Y-98496239D02*
X82527989Y-98429572D01*
X82527989Y-98429572D02*
X82494656Y-98396239D01*
X82494656Y-98396239D02*
X82427989Y-98362905D01*
X82427989Y-98362905D02*
X82294656Y-98362905D01*
X82294656Y-98362905D02*
X82227989Y-98396239D01*
X81627989Y-98829572D02*
X81627989Y-98462905D01*
X81627989Y-98462905D02*
X81661322Y-98396239D01*
X81661322Y-98396239D02*
X81727989Y-98362905D01*
X81727989Y-98362905D02*
X81861322Y-98362905D01*
X81861322Y-98362905D02*
X81927989Y-98396239D01*
X81627989Y-98796239D02*
X81694656Y-98829572D01*
X81694656Y-98829572D02*
X81861322Y-98829572D01*
X81861322Y-98829572D02*
X81927989Y-98796239D01*
X81927989Y-98796239D02*
X81961322Y-98729572D01*
X81961322Y-98729572D02*
X81961322Y-98662905D01*
X81961322Y-98662905D02*
X81927989Y-98596239D01*
X81927989Y-98596239D02*
X81861322Y-98562905D01*
X81861322Y-98562905D02*
X81694656Y-98562905D01*
X81694656Y-98562905D02*
X81627989Y-98529572D01*
X81294656Y-98362905D02*
X81294656Y-98829572D01*
X81294656Y-98429572D02*
X81261323Y-98396239D01*
X81261323Y-98396239D02*
X81194656Y-98362905D01*
X81194656Y-98362905D02*
X81094656Y-98362905D01*
X81094656Y-98362905D02*
X81027989Y-98396239D01*
X81027989Y-98396239D02*
X80994656Y-98462905D01*
X80994656Y-98462905D02*
X80994656Y-98829572D01*
X80127990Y-98829572D02*
X80127990Y-98129572D01*
X80127990Y-98396239D02*
X80061323Y-98362905D01*
X80061323Y-98362905D02*
X79927990Y-98362905D01*
X79927990Y-98362905D02*
X79861323Y-98396239D01*
X79861323Y-98396239D02*
X79827990Y-98429572D01*
X79827990Y-98429572D02*
X79794657Y-98496239D01*
X79794657Y-98496239D02*
X79794657Y-98696239D01*
X79794657Y-98696239D02*
X79827990Y-98762905D01*
X79827990Y-98762905D02*
X79861323Y-98796239D01*
X79861323Y-98796239D02*
X79927990Y-98829572D01*
X79927990Y-98829572D02*
X80061323Y-98829572D01*
X80061323Y-98829572D02*
X80127990Y-98796239D01*
X79227990Y-98796239D02*
X79294657Y-98829572D01*
X79294657Y-98829572D02*
X79427990Y-98829572D01*
X79427990Y-98829572D02*
X79494657Y-98796239D01*
X79494657Y-98796239D02*
X79527990Y-98729572D01*
X79527990Y-98729572D02*
X79527990Y-98462905D01*
X79527990Y-98462905D02*
X79494657Y-98396239D01*
X79494657Y-98396239D02*
X79427990Y-98362905D01*
X79427990Y-98362905D02*
X79294657Y-98362905D01*
X79294657Y-98362905D02*
X79227990Y-98396239D01*
X79227990Y-98396239D02*
X79194657Y-98462905D01*
X79194657Y-98462905D02*
X79194657Y-98529572D01*
X79194657Y-98529572D02*
X79527990Y-98596239D01*
X102994649Y-99956533D02*
X102994649Y-99256533D01*
X102694649Y-99956533D02*
X102694649Y-99589866D01*
X102694649Y-99589866D02*
X102727982Y-99523200D01*
X102727982Y-99523200D02*
X102794649Y-99489866D01*
X102794649Y-99489866D02*
X102894649Y-99489866D01*
X102894649Y-99489866D02*
X102961316Y-99523200D01*
X102961316Y-99523200D02*
X102994649Y-99556533D01*
X102061316Y-99956533D02*
X102061316Y-99589866D01*
X102061316Y-99589866D02*
X102094649Y-99523200D01*
X102094649Y-99523200D02*
X102161316Y-99489866D01*
X102161316Y-99489866D02*
X102294649Y-99489866D01*
X102294649Y-99489866D02*
X102361316Y-99523200D01*
X102061316Y-99923200D02*
X102127983Y-99956533D01*
X102127983Y-99956533D02*
X102294649Y-99956533D01*
X102294649Y-99956533D02*
X102361316Y-99923200D01*
X102361316Y-99923200D02*
X102394649Y-99856533D01*
X102394649Y-99856533D02*
X102394649Y-99789866D01*
X102394649Y-99789866D02*
X102361316Y-99723200D01*
X102361316Y-99723200D02*
X102294649Y-99689866D01*
X102294649Y-99689866D02*
X102127983Y-99689866D01*
X102127983Y-99689866D02*
X102061316Y-99656533D01*
X101727983Y-99956533D02*
X101727983Y-99489866D01*
X101727983Y-99623200D02*
X101694650Y-99556533D01*
X101694650Y-99556533D02*
X101661316Y-99523200D01*
X101661316Y-99523200D02*
X101594650Y-99489866D01*
X101594650Y-99489866D02*
X101527983Y-99489866D01*
X101294650Y-99489866D02*
X101294650Y-99956533D01*
X101294650Y-99556533D02*
X101261317Y-99523200D01*
X101261317Y-99523200D02*
X101194650Y-99489866D01*
X101194650Y-99489866D02*
X101094650Y-99489866D01*
X101094650Y-99489866D02*
X101027983Y-99523200D01*
X101027983Y-99523200D02*
X100994650Y-99589866D01*
X100994650Y-99589866D02*
X100994650Y-99956533D01*
X100394650Y-99923200D02*
X100461317Y-99956533D01*
X100461317Y-99956533D02*
X100594650Y-99956533D01*
X100594650Y-99956533D02*
X100661317Y-99923200D01*
X100661317Y-99923200D02*
X100694650Y-99856533D01*
X100694650Y-99856533D02*
X100694650Y-99589866D01*
X100694650Y-99589866D02*
X100661317Y-99523200D01*
X100661317Y-99523200D02*
X100594650Y-99489866D01*
X100594650Y-99489866D02*
X100461317Y-99489866D01*
X100461317Y-99489866D02*
X100394650Y-99523200D01*
X100394650Y-99523200D02*
X100361317Y-99589866D01*
X100361317Y-99589866D02*
X100361317Y-99656533D01*
X100361317Y-99656533D02*
X100694650Y-99723200D01*
X100094650Y-99923200D02*
X100027984Y-99956533D01*
X100027984Y-99956533D02*
X99894650Y-99956533D01*
X99894650Y-99956533D02*
X99827984Y-99923200D01*
X99827984Y-99923200D02*
X99794650Y-99856533D01*
X99794650Y-99856533D02*
X99794650Y-99823200D01*
X99794650Y-99823200D02*
X99827984Y-99756533D01*
X99827984Y-99756533D02*
X99894650Y-99723200D01*
X99894650Y-99723200D02*
X99994650Y-99723200D01*
X99994650Y-99723200D02*
X100061317Y-99689866D01*
X100061317Y-99689866D02*
X100094650Y-99623200D01*
X100094650Y-99623200D02*
X100094650Y-99589866D01*
X100094650Y-99589866D02*
X100061317Y-99523200D01*
X100061317Y-99523200D02*
X99994650Y-99489866D01*
X99994650Y-99489866D02*
X99894650Y-99489866D01*
X99894650Y-99489866D02*
X99827984Y-99523200D01*
X99527983Y-99923200D02*
X99461317Y-99956533D01*
X99461317Y-99956533D02*
X99327983Y-99956533D01*
X99327983Y-99956533D02*
X99261317Y-99923200D01*
X99261317Y-99923200D02*
X99227983Y-99856533D01*
X99227983Y-99856533D02*
X99227983Y-99823200D01*
X99227983Y-99823200D02*
X99261317Y-99756533D01*
X99261317Y-99756533D02*
X99327983Y-99723200D01*
X99327983Y-99723200D02*
X99427983Y-99723200D01*
X99427983Y-99723200D02*
X99494650Y-99689866D01*
X99494650Y-99689866D02*
X99527983Y-99623200D01*
X99527983Y-99623200D02*
X99527983Y-99589866D01*
X99527983Y-99589866D02*
X99494650Y-99523200D01*
X99494650Y-99523200D02*
X99427983Y-99489866D01*
X99427983Y-99489866D02*
X99327983Y-99489866D01*
X99327983Y-99489866D02*
X99261317Y-99523200D01*
X98661316Y-99923200D02*
X98727983Y-99956533D01*
X98727983Y-99956533D02*
X98861316Y-99956533D01*
X98861316Y-99956533D02*
X98927983Y-99923200D01*
X98927983Y-99923200D02*
X98961316Y-99856533D01*
X98961316Y-99856533D02*
X98961316Y-99589866D01*
X98961316Y-99589866D02*
X98927983Y-99523200D01*
X98927983Y-99523200D02*
X98861316Y-99489866D01*
X98861316Y-99489866D02*
X98727983Y-99489866D01*
X98727983Y-99489866D02*
X98661316Y-99523200D01*
X98661316Y-99523200D02*
X98627983Y-99589866D01*
X98627983Y-99589866D02*
X98627983Y-99656533D01*
X98627983Y-99656533D02*
X98961316Y-99723200D01*
X98027983Y-99956533D02*
X98027983Y-99256533D01*
X98027983Y-99923200D02*
X98094650Y-99956533D01*
X98094650Y-99956533D02*
X98227983Y-99956533D01*
X98227983Y-99956533D02*
X98294650Y-99923200D01*
X98294650Y-99923200D02*
X98327983Y-99889866D01*
X98327983Y-99889866D02*
X98361316Y-99823200D01*
X98361316Y-99823200D02*
X98361316Y-99623200D01*
X98361316Y-99623200D02*
X98327983Y-99556533D01*
X98327983Y-99556533D02*
X98294650Y-99523200D01*
X98294650Y-99523200D02*
X98227983Y-99489866D01*
X98227983Y-99489866D02*
X98094650Y-99489866D01*
X98094650Y-99489866D02*
X98027983Y-99523200D01*
X96861317Y-99956533D02*
X96861317Y-99589866D01*
X96861317Y-99589866D02*
X96894650Y-99523200D01*
X96894650Y-99523200D02*
X96961317Y-99489866D01*
X96961317Y-99489866D02*
X97094650Y-99489866D01*
X97094650Y-99489866D02*
X97161317Y-99523200D01*
X96861317Y-99923200D02*
X96927984Y-99956533D01*
X96927984Y-99956533D02*
X97094650Y-99956533D01*
X97094650Y-99956533D02*
X97161317Y-99923200D01*
X97161317Y-99923200D02*
X97194650Y-99856533D01*
X97194650Y-99856533D02*
X97194650Y-99789866D01*
X97194650Y-99789866D02*
X97161317Y-99723200D01*
X97161317Y-99723200D02*
X97094650Y-99689866D01*
X97094650Y-99689866D02*
X96927984Y-99689866D01*
X96927984Y-99689866D02*
X96861317Y-99656533D01*
X96527984Y-99489866D02*
X96527984Y-99956533D01*
X96527984Y-99556533D02*
X96494651Y-99523200D01*
X96494651Y-99523200D02*
X96427984Y-99489866D01*
X96427984Y-99489866D02*
X96327984Y-99489866D01*
X96327984Y-99489866D02*
X96261317Y-99523200D01*
X96261317Y-99523200D02*
X96227984Y-99589866D01*
X96227984Y-99589866D02*
X96227984Y-99956533D01*
X95594651Y-99956533D02*
X95594651Y-99256533D01*
X95594651Y-99923200D02*
X95661318Y-99956533D01*
X95661318Y-99956533D02*
X95794651Y-99956533D01*
X95794651Y-99956533D02*
X95861318Y-99923200D01*
X95861318Y-99923200D02*
X95894651Y-99889866D01*
X95894651Y-99889866D02*
X95927984Y-99823200D01*
X95927984Y-99823200D02*
X95927984Y-99623200D01*
X95927984Y-99623200D02*
X95894651Y-99556533D01*
X95894651Y-99556533D02*
X95861318Y-99523200D01*
X95861318Y-99523200D02*
X95794651Y-99489866D01*
X95794651Y-99489866D02*
X95661318Y-99489866D01*
X95661318Y-99489866D02*
X95594651Y-99523200D01*
X94427985Y-99489866D02*
X94427985Y-99956533D01*
X94727985Y-99489866D02*
X94727985Y-99856533D01*
X94727985Y-99856533D02*
X94694652Y-99923200D01*
X94694652Y-99923200D02*
X94627985Y-99956533D01*
X94627985Y-99956533D02*
X94527985Y-99956533D01*
X94527985Y-99956533D02*
X94461318Y-99923200D01*
X94461318Y-99923200D02*
X94427985Y-99889866D01*
X94127985Y-99923200D02*
X94061319Y-99956533D01*
X94061319Y-99956533D02*
X93927985Y-99956533D01*
X93927985Y-99956533D02*
X93861319Y-99923200D01*
X93861319Y-99923200D02*
X93827985Y-99856533D01*
X93827985Y-99856533D02*
X93827985Y-99823200D01*
X93827985Y-99823200D02*
X93861319Y-99756533D01*
X93861319Y-99756533D02*
X93927985Y-99723200D01*
X93927985Y-99723200D02*
X94027985Y-99723200D01*
X94027985Y-99723200D02*
X94094652Y-99689866D01*
X94094652Y-99689866D02*
X94127985Y-99623200D01*
X94127985Y-99623200D02*
X94127985Y-99589866D01*
X94127985Y-99589866D02*
X94094652Y-99523200D01*
X94094652Y-99523200D02*
X94027985Y-99489866D01*
X94027985Y-99489866D02*
X93927985Y-99489866D01*
X93927985Y-99489866D02*
X93861319Y-99523200D01*
X93261318Y-99923200D02*
X93327985Y-99956533D01*
X93327985Y-99956533D02*
X93461318Y-99956533D01*
X93461318Y-99956533D02*
X93527985Y-99923200D01*
X93527985Y-99923200D02*
X93561318Y-99856533D01*
X93561318Y-99856533D02*
X93561318Y-99589866D01*
X93561318Y-99589866D02*
X93527985Y-99523200D01*
X93527985Y-99523200D02*
X93461318Y-99489866D01*
X93461318Y-99489866D02*
X93327985Y-99489866D01*
X93327985Y-99489866D02*
X93261318Y-99523200D01*
X93261318Y-99523200D02*
X93227985Y-99589866D01*
X93227985Y-99589866D02*
X93227985Y-99656533D01*
X93227985Y-99656533D02*
X93561318Y-99723200D01*
X92627985Y-99956533D02*
X92627985Y-99256533D01*
X92627985Y-99923200D02*
X92694652Y-99956533D01*
X92694652Y-99956533D02*
X92827985Y-99956533D01*
X92827985Y-99956533D02*
X92894652Y-99923200D01*
X92894652Y-99923200D02*
X92927985Y-99889866D01*
X92927985Y-99889866D02*
X92961318Y-99823200D01*
X92961318Y-99823200D02*
X92961318Y-99623200D01*
X92961318Y-99623200D02*
X92927985Y-99556533D01*
X92927985Y-99556533D02*
X92894652Y-99523200D01*
X92894652Y-99523200D02*
X92827985Y-99489866D01*
X92827985Y-99489866D02*
X92694652Y-99489866D01*
X92694652Y-99489866D02*
X92627985Y-99523200D01*
X91861319Y-99489866D02*
X91594652Y-99489866D01*
X91761319Y-99256533D02*
X91761319Y-99856533D01*
X91761319Y-99856533D02*
X91727986Y-99923200D01*
X91727986Y-99923200D02*
X91661319Y-99956533D01*
X91661319Y-99956533D02*
X91594652Y-99956533D01*
X91261319Y-99956533D02*
X91327986Y-99923200D01*
X91327986Y-99923200D02*
X91361319Y-99889866D01*
X91361319Y-99889866D02*
X91394652Y-99823200D01*
X91394652Y-99823200D02*
X91394652Y-99623200D01*
X91394652Y-99623200D02*
X91361319Y-99556533D01*
X91361319Y-99556533D02*
X91327986Y-99523200D01*
X91327986Y-99523200D02*
X91261319Y-99489866D01*
X91261319Y-99489866D02*
X91161319Y-99489866D01*
X91161319Y-99489866D02*
X91094652Y-99523200D01*
X91094652Y-99523200D02*
X91061319Y-99556533D01*
X91061319Y-99556533D02*
X91027986Y-99623200D01*
X91027986Y-99623200D02*
X91027986Y-99823200D01*
X91027986Y-99823200D02*
X91061319Y-99889866D01*
X91061319Y-99889866D02*
X91094652Y-99923200D01*
X91094652Y-99923200D02*
X91161319Y-99956533D01*
X91161319Y-99956533D02*
X91261319Y-99956533D01*
X89894653Y-99489866D02*
X89894653Y-99956533D01*
X90194653Y-99489866D02*
X90194653Y-99856533D01*
X90194653Y-99856533D02*
X90161320Y-99923200D01*
X90161320Y-99923200D02*
X90094653Y-99956533D01*
X90094653Y-99956533D02*
X89994653Y-99956533D01*
X89994653Y-99956533D02*
X89927986Y-99923200D01*
X89927986Y-99923200D02*
X89894653Y-99889866D01*
X89594653Y-99923200D02*
X89527987Y-99956533D01*
X89527987Y-99956533D02*
X89394653Y-99956533D01*
X89394653Y-99956533D02*
X89327987Y-99923200D01*
X89327987Y-99923200D02*
X89294653Y-99856533D01*
X89294653Y-99856533D02*
X89294653Y-99823200D01*
X89294653Y-99823200D02*
X89327987Y-99756533D01*
X89327987Y-99756533D02*
X89394653Y-99723200D01*
X89394653Y-99723200D02*
X89494653Y-99723200D01*
X89494653Y-99723200D02*
X89561320Y-99689866D01*
X89561320Y-99689866D02*
X89594653Y-99623200D01*
X89594653Y-99623200D02*
X89594653Y-99589866D01*
X89594653Y-99589866D02*
X89561320Y-99523200D01*
X89561320Y-99523200D02*
X89494653Y-99489866D01*
X89494653Y-99489866D02*
X89394653Y-99489866D01*
X89394653Y-99489866D02*
X89327987Y-99523200D01*
X88994653Y-99956533D02*
X88994653Y-99256533D01*
X88694653Y-99956533D02*
X88694653Y-99589866D01*
X88694653Y-99589866D02*
X88727986Y-99523200D01*
X88727986Y-99523200D02*
X88794653Y-99489866D01*
X88794653Y-99489866D02*
X88894653Y-99489866D01*
X88894653Y-99489866D02*
X88961320Y-99523200D01*
X88961320Y-99523200D02*
X88994653Y-99556533D01*
X88094653Y-99923200D02*
X88161320Y-99956533D01*
X88161320Y-99956533D02*
X88294653Y-99956533D01*
X88294653Y-99956533D02*
X88361320Y-99923200D01*
X88361320Y-99923200D02*
X88394653Y-99856533D01*
X88394653Y-99856533D02*
X88394653Y-99589866D01*
X88394653Y-99589866D02*
X88361320Y-99523200D01*
X88361320Y-99523200D02*
X88294653Y-99489866D01*
X88294653Y-99489866D02*
X88161320Y-99489866D01*
X88161320Y-99489866D02*
X88094653Y-99523200D01*
X88094653Y-99523200D02*
X88061320Y-99589866D01*
X88061320Y-99589866D02*
X88061320Y-99656533D01*
X88061320Y-99656533D02*
X88394653Y-99723200D01*
X87761320Y-99956533D02*
X87761320Y-99489866D01*
X87761320Y-99623200D02*
X87727987Y-99556533D01*
X87727987Y-99556533D02*
X87694653Y-99523200D01*
X87694653Y-99523200D02*
X87627987Y-99489866D01*
X87627987Y-99489866D02*
X87561320Y-99489866D01*
X86827987Y-99923200D02*
X86761321Y-99956533D01*
X86761321Y-99956533D02*
X86627987Y-99956533D01*
X86627987Y-99956533D02*
X86561321Y-99923200D01*
X86561321Y-99923200D02*
X86527987Y-99856533D01*
X86527987Y-99856533D02*
X86527987Y-99823200D01*
X86527987Y-99823200D02*
X86561321Y-99756533D01*
X86561321Y-99756533D02*
X86627987Y-99723200D01*
X86627987Y-99723200D02*
X86727987Y-99723200D01*
X86727987Y-99723200D02*
X86794654Y-99689866D01*
X86794654Y-99689866D02*
X86827987Y-99623200D01*
X86827987Y-99623200D02*
X86827987Y-99589866D01*
X86827987Y-99589866D02*
X86794654Y-99523200D01*
X86794654Y-99523200D02*
X86727987Y-99489866D01*
X86727987Y-99489866D02*
X86627987Y-99489866D01*
X86627987Y-99489866D02*
X86561321Y-99523200D01*
X86127987Y-99956533D02*
X86194654Y-99923200D01*
X86194654Y-99923200D02*
X86227987Y-99889866D01*
X86227987Y-99889866D02*
X86261320Y-99823200D01*
X86261320Y-99823200D02*
X86261320Y-99623200D01*
X86261320Y-99623200D02*
X86227987Y-99556533D01*
X86227987Y-99556533D02*
X86194654Y-99523200D01*
X86194654Y-99523200D02*
X86127987Y-99489866D01*
X86127987Y-99489866D02*
X86027987Y-99489866D01*
X86027987Y-99489866D02*
X85961320Y-99523200D01*
X85961320Y-99523200D02*
X85927987Y-99556533D01*
X85927987Y-99556533D02*
X85894654Y-99623200D01*
X85894654Y-99623200D02*
X85894654Y-99823200D01*
X85894654Y-99823200D02*
X85927987Y-99889866D01*
X85927987Y-99889866D02*
X85961320Y-99923200D01*
X85961320Y-99923200D02*
X86027987Y-99956533D01*
X86027987Y-99956533D02*
X86127987Y-99956533D01*
X85594654Y-99956533D02*
X85594654Y-99489866D01*
X85594654Y-99556533D02*
X85561321Y-99523200D01*
X85561321Y-99523200D02*
X85494654Y-99489866D01*
X85494654Y-99489866D02*
X85394654Y-99489866D01*
X85394654Y-99489866D02*
X85327987Y-99523200D01*
X85327987Y-99523200D02*
X85294654Y-99589866D01*
X85294654Y-99589866D02*
X85294654Y-99956533D01*
X85294654Y-99589866D02*
X85261321Y-99523200D01*
X85261321Y-99523200D02*
X85194654Y-99489866D01*
X85194654Y-99489866D02*
X85094654Y-99489866D01*
X85094654Y-99489866D02*
X85027987Y-99523200D01*
X85027987Y-99523200D02*
X84994654Y-99589866D01*
X84994654Y-99589866D02*
X84994654Y-99956533D01*
X84394654Y-99923200D02*
X84461321Y-99956533D01*
X84461321Y-99956533D02*
X84594654Y-99956533D01*
X84594654Y-99956533D02*
X84661321Y-99923200D01*
X84661321Y-99923200D02*
X84694654Y-99856533D01*
X84694654Y-99856533D02*
X84694654Y-99589866D01*
X84694654Y-99589866D02*
X84661321Y-99523200D01*
X84661321Y-99523200D02*
X84594654Y-99489866D01*
X84594654Y-99489866D02*
X84461321Y-99489866D01*
X84461321Y-99489866D02*
X84394654Y-99523200D01*
X84394654Y-99523200D02*
X84361321Y-99589866D01*
X84361321Y-99589866D02*
X84361321Y-99656533D01*
X84361321Y-99656533D02*
X84694654Y-99723200D01*
X84161321Y-99489866D02*
X83894654Y-99489866D01*
X84061321Y-99256533D02*
X84061321Y-99856533D01*
X84061321Y-99856533D02*
X84027988Y-99923200D01*
X84027988Y-99923200D02*
X83961321Y-99956533D01*
X83961321Y-99956533D02*
X83894654Y-99956533D01*
X83661321Y-99956533D02*
X83661321Y-99256533D01*
X83361321Y-99956533D02*
X83361321Y-99589866D01*
X83361321Y-99589866D02*
X83394654Y-99523200D01*
X83394654Y-99523200D02*
X83461321Y-99489866D01*
X83461321Y-99489866D02*
X83561321Y-99489866D01*
X83561321Y-99489866D02*
X83627988Y-99523200D01*
X83627988Y-99523200D02*
X83661321Y-99556533D01*
X83027988Y-99956533D02*
X83027988Y-99489866D01*
X83027988Y-99256533D02*
X83061321Y-99289866D01*
X83061321Y-99289866D02*
X83027988Y-99323200D01*
X83027988Y-99323200D02*
X82994655Y-99289866D01*
X82994655Y-99289866D02*
X83027988Y-99256533D01*
X83027988Y-99256533D02*
X83027988Y-99323200D01*
X82694655Y-99489866D02*
X82694655Y-99956533D01*
X82694655Y-99556533D02*
X82661322Y-99523200D01*
X82661322Y-99523200D02*
X82594655Y-99489866D01*
X82594655Y-99489866D02*
X82494655Y-99489866D01*
X82494655Y-99489866D02*
X82427988Y-99523200D01*
X82427988Y-99523200D02*
X82394655Y-99589866D01*
X82394655Y-99589866D02*
X82394655Y-99956533D01*
X81761322Y-99489866D02*
X81761322Y-100056533D01*
X81761322Y-100056533D02*
X81794655Y-100123200D01*
X81794655Y-100123200D02*
X81827989Y-100156533D01*
X81827989Y-100156533D02*
X81894655Y-100189866D01*
X81894655Y-100189866D02*
X81994655Y-100189866D01*
X81994655Y-100189866D02*
X82061322Y-100156533D01*
X81761322Y-99923200D02*
X81827989Y-99956533D01*
X81827989Y-99956533D02*
X81961322Y-99956533D01*
X81961322Y-99956533D02*
X82027989Y-99923200D01*
X82027989Y-99923200D02*
X82061322Y-99889866D01*
X82061322Y-99889866D02*
X82094655Y-99823200D01*
X82094655Y-99823200D02*
X82094655Y-99623200D01*
X82094655Y-99623200D02*
X82061322Y-99556533D01*
X82061322Y-99556533D02*
X82027989Y-99523200D01*
X82027989Y-99523200D02*
X81961322Y-99489866D01*
X81961322Y-99489866D02*
X81827989Y-99489866D01*
X81827989Y-99489866D02*
X81761322Y-99523200D01*
X80894656Y-99489866D02*
X80894656Y-99956533D01*
X80894656Y-99556533D02*
X80861323Y-99523200D01*
X80861323Y-99523200D02*
X80794656Y-99489866D01*
X80794656Y-99489866D02*
X80694656Y-99489866D01*
X80694656Y-99489866D02*
X80627989Y-99523200D01*
X80627989Y-99523200D02*
X80594656Y-99589866D01*
X80594656Y-99589866D02*
X80594656Y-99956533D01*
X79994656Y-99923200D02*
X80061323Y-99956533D01*
X80061323Y-99956533D02*
X80194656Y-99956533D01*
X80194656Y-99956533D02*
X80261323Y-99923200D01*
X80261323Y-99923200D02*
X80294656Y-99856533D01*
X80294656Y-99856533D02*
X80294656Y-99589866D01*
X80294656Y-99589866D02*
X80261323Y-99523200D01*
X80261323Y-99523200D02*
X80194656Y-99489866D01*
X80194656Y-99489866D02*
X80061323Y-99489866D01*
X80061323Y-99489866D02*
X79994656Y-99523200D01*
X79994656Y-99523200D02*
X79961323Y-99589866D01*
X79961323Y-99589866D02*
X79961323Y-99656533D01*
X79961323Y-99656533D02*
X80294656Y-99723200D01*
X79727990Y-99489866D02*
X79594656Y-99956533D01*
X79594656Y-99956533D02*
X79461323Y-99623200D01*
X79461323Y-99623200D02*
X79327990Y-99956533D01*
X79327990Y-99956533D02*
X79194656Y-99489866D01*
D11*
X73500000Y-104130000D02*
X71000000Y-105630000D01*
X71000000Y-105630000D02*
X68500000Y-104130000D01*
X68500000Y-106630000D02*
X68500000Y-101630000D01*
X73500000Y-104130000D02*
X68500000Y-104130000D01*
X68500000Y-101630000D02*
X71000000Y-104130000D01*
X71000000Y-104130000D02*
X73500000Y-101630000D01*
X73500000Y-106630000D02*
X73500000Y-101630000D01*
D12*
%TO.C,G\u002A\u002A\u002A*%
G36*
X45520226Y-99232579D02*
G01*
X45481029Y-99271777D01*
X45441831Y-99232579D01*
X45481029Y-99193382D01*
X45520226Y-99232579D01*
G37*
G36*
X46696152Y-100094925D02*
G01*
X46656955Y-100134122D01*
X46617757Y-100094925D01*
X46656955Y-100055727D01*
X46696152Y-100094925D01*
G37*
G36*
X46852942Y-100016530D02*
G01*
X46813745Y-100055727D01*
X46774547Y-100016530D01*
X46813745Y-99977332D01*
X46852942Y-100016530D01*
G37*
G36*
X47793683Y-98213443D02*
G01*
X47754486Y-98252641D01*
X47715288Y-98213443D01*
X47754486Y-98174246D01*
X47793683Y-98213443D01*
G37*
G36*
X47793683Y-99310974D02*
G01*
X47754486Y-99350172D01*
X47715288Y-99310974D01*
X47754486Y-99271777D01*
X47793683Y-99310974D01*
G37*
G36*
X48185659Y-98056653D02*
G01*
X48146461Y-98095851D01*
X48107263Y-98056653D01*
X48146461Y-98017456D01*
X48185659Y-98056653D01*
G37*
G36*
X55398004Y-98135048D02*
G01*
X55358807Y-98174246D01*
X55319609Y-98135048D01*
X55358807Y-98095851D01*
X55398004Y-98135048D01*
G37*
G36*
X55868375Y-97743073D02*
G01*
X55829177Y-97782271D01*
X55789980Y-97743073D01*
X55829177Y-97703876D01*
X55868375Y-97743073D01*
G37*
G36*
X56103560Y-97743073D02*
G01*
X56064362Y-97782271D01*
X56025165Y-97743073D01*
X56064362Y-97703876D01*
X56103560Y-97743073D01*
G37*
G36*
X58063436Y-97664678D02*
G01*
X58024239Y-97703876D01*
X57985041Y-97664678D01*
X58024239Y-97625480D01*
X58063436Y-97664678D01*
G37*
G36*
X58298621Y-97586283D02*
G01*
X58259424Y-97625480D01*
X58220226Y-97586283D01*
X58259424Y-97547085D01*
X58298621Y-97586283D01*
G37*
G36*
X59474547Y-99859740D02*
G01*
X59435350Y-99898937D01*
X59396152Y-99859740D01*
X59435350Y-99820542D01*
X59474547Y-99859740D01*
G37*
G36*
X60493683Y-99154184D02*
G01*
X60454486Y-99193382D01*
X60415288Y-99154184D01*
X60454486Y-99114987D01*
X60493683Y-99154184D01*
G37*
G36*
X60964054Y-99781345D02*
G01*
X60924856Y-99820542D01*
X60885659Y-99781345D01*
X60924856Y-99742147D01*
X60964054Y-99781345D01*
G37*
G36*
X49021873Y-98121983D02*
G01*
X49034137Y-98145562D01*
X48969609Y-98174246D01*
X48928107Y-98168588D01*
X48917346Y-98121983D01*
X48928836Y-98112600D01*
X49021873Y-98121983D01*
G37*
G36*
X50746564Y-100081859D02*
G01*
X50758829Y-100105439D01*
X50694301Y-100134122D01*
X50652798Y-100128465D01*
X50642037Y-100081859D01*
X50653527Y-100072477D01*
X50746564Y-100081859D01*
G37*
G36*
X54509527Y-97494822D02*
G01*
X54521791Y-97518402D01*
X54457263Y-97547085D01*
X54415761Y-97541428D01*
X54405000Y-97494822D01*
X54416490Y-97485440D01*
X54509527Y-97494822D01*
G37*
G36*
X55616440Y-98133473D02*
G01*
X55607058Y-98226509D01*
X55583478Y-98238774D01*
X55554794Y-98174246D01*
X55560452Y-98132744D01*
X55607058Y-98121983D01*
X55616440Y-98133473D01*
G37*
G36*
X59410851Y-100315755D02*
G01*
X59447138Y-100343973D01*
X59363488Y-100363119D01*
X59283975Y-100357575D01*
X59260594Y-100321944D01*
X59288329Y-100306409D01*
X59410851Y-100315755D01*
G37*
G36*
X60859527Y-99454699D02*
G01*
X60871791Y-99478278D01*
X60807263Y-99506962D01*
X60765761Y-99501304D01*
X60755000Y-99454699D01*
X60766490Y-99445316D01*
X60859527Y-99454699D01*
G37*
G36*
X60532326Y-99507860D02*
G01*
X60516967Y-99528420D01*
X60410662Y-99585357D01*
X60366696Y-99581218D01*
X60348211Y-99540311D01*
X60458557Y-99477050D01*
X60519707Y-99463312D01*
X60532326Y-99507860D01*
G37*
G36*
X47094845Y-97853457D02*
G01*
X47284115Y-97929122D01*
X47081595Y-97934092D01*
X46936745Y-97923615D01*
X46821911Y-97881898D01*
X46807823Y-97865914D01*
X46813269Y-97810640D01*
X46922054Y-97805122D01*
X47094845Y-97853457D01*
G37*
G36*
X50380720Y-97733820D02*
G01*
X50377193Y-97747603D01*
X50302325Y-97821468D01*
X50274569Y-97836070D01*
X50223930Y-97830721D01*
X50227458Y-97816938D01*
X50302325Y-97743073D01*
X50330081Y-97728471D01*
X50380720Y-97733820D01*
G37*
G36*
X51635041Y-97777644D02*
G01*
X51632029Y-97800399D01*
X51556646Y-97860666D01*
X51538905Y-97859767D01*
X51478251Y-97826095D01*
X51481859Y-97813519D01*
X51556646Y-97743073D01*
X51587013Y-97730824D01*
X51635041Y-97777644D01*
G37*
G36*
X56528525Y-99055731D02*
G01*
X56526399Y-99147633D01*
X56492806Y-99208962D01*
X56402220Y-99271777D01*
X56396407Y-99271578D01*
X56350683Y-99220857D01*
X56386869Y-99126351D01*
X56480889Y-99054539D01*
X56528525Y-99055731D01*
G37*
G36*
X57373637Y-97474592D02*
G01*
X57436276Y-97538698D01*
X57427075Y-97570868D01*
X57331749Y-97648816D01*
X57282028Y-97654553D01*
X57227222Y-97578809D01*
X57237601Y-97531112D01*
X57331749Y-97468690D01*
X57373637Y-97474592D01*
G37*
G36*
X60140905Y-99742147D02*
G01*
X60078558Y-99787526D01*
X59920692Y-99815032D01*
X59839758Y-99811560D01*
X59798175Y-99794170D01*
X59905720Y-99742147D01*
X60022934Y-99696127D01*
X60145713Y-99675648D01*
X60140905Y-99742147D01*
G37*
G36*
X60305644Y-98805014D02*
G01*
X60376091Y-98879801D01*
X60388340Y-98910169D01*
X60341520Y-98958197D01*
X60318764Y-98955184D01*
X60258498Y-98879801D01*
X60259397Y-98862060D01*
X60293069Y-98801406D01*
X60305644Y-98805014D01*
G37*
G36*
X48812819Y-98086712D02*
G01*
X48764032Y-98141638D01*
X48616831Y-98193433D01*
X48597533Y-98196836D01*
X48452785Y-98193215D01*
X48429390Y-98138879D01*
X48544848Y-98065041D01*
X48576873Y-98053272D01*
X48752432Y-98021403D01*
X48812819Y-98086712D01*
G37*
G36*
X55524146Y-98369922D02*
G01*
X55549284Y-98507425D01*
X55545647Y-98591421D01*
X55527932Y-98632824D01*
X55476399Y-98527024D01*
X55434827Y-98428913D01*
X55403514Y-98350635D01*
X55404411Y-98346041D01*
X55476399Y-98331036D01*
X55524146Y-98369922D01*
G37*
G36*
X46880777Y-98863862D02*
G01*
X46812860Y-98987742D01*
X46808387Y-98994542D01*
X46706198Y-99135207D01*
X46645180Y-99193382D01*
X46638846Y-99155732D01*
X46692012Y-99045581D01*
X46777927Y-98919412D01*
X46861496Y-98835318D01*
X46869999Y-98830775D01*
X46880777Y-98863862D01*
G37*
G36*
X46539176Y-98664732D02*
G01*
X46461011Y-98719881D01*
X46323655Y-98789365D01*
X46176513Y-98848838D01*
X46068992Y-98873955D01*
X46049648Y-98871103D01*
X46075752Y-98831144D01*
X46215184Y-98759140D01*
X46252218Y-98743297D01*
X46430347Y-98674062D01*
X46528764Y-98647394D01*
X46539176Y-98664732D01*
G37*
G36*
X46550191Y-99368772D02*
G01*
X46496209Y-99471556D01*
X46488934Y-99623556D01*
X46501453Y-99684607D01*
X46458507Y-99742147D01*
X46409380Y-99721312D01*
X46383369Y-99613435D01*
X46423225Y-99466300D01*
X46519763Y-99340172D01*
X46576228Y-99296635D01*
X46617248Y-99276764D01*
X46550191Y-99368772D01*
G37*
G36*
X50557412Y-99005211D02*
G01*
X50570303Y-99132365D01*
X50557118Y-99251671D01*
X50544043Y-99369771D01*
X50543693Y-99372379D01*
X50476125Y-99428567D01*
X50470801Y-99428057D01*
X50429362Y-99355393D01*
X50426099Y-99209165D01*
X50455395Y-99060341D01*
X50511634Y-98979888D01*
X50557412Y-99005211D01*
G37*
G36*
X55475721Y-98918182D02*
G01*
X55498852Y-98946616D01*
X55532420Y-99011275D01*
X55445370Y-98989681D01*
X55330632Y-98986265D01*
X55159899Y-99078432D01*
X55050785Y-99167959D01*
X55009173Y-99179217D01*
X55057500Y-99106369D01*
X55190250Y-98969250D01*
X55300705Y-98874042D01*
X55392128Y-98846510D01*
X55475721Y-98918182D01*
G37*
G36*
X48992621Y-99591144D02*
G01*
X49017177Y-99602812D01*
X49041561Y-99635563D01*
X48932040Y-99643543D01*
X48677965Y-99627999D01*
X48587446Y-99621824D01*
X48148854Y-99637278D01*
X47698027Y-99742582D01*
X47450518Y-99817367D01*
X47239850Y-99875351D01*
X47131245Y-99897926D01*
X47100108Y-99896260D01*
X47088666Y-99864113D01*
X47196343Y-99800095D01*
X47399897Y-99715918D01*
X47676091Y-99623297D01*
X47790082Y-99591147D01*
X48244667Y-99511587D01*
X48661552Y-99511195D01*
X48992621Y-99591144D01*
G37*
G36*
X49576180Y-97798151D02*
G01*
X49760918Y-97819164D01*
X49831955Y-97852826D01*
X49831235Y-97858137D01*
X49750627Y-97904588D01*
X49577171Y-97924001D01*
X49572626Y-97924014D01*
X49372248Y-97929387D01*
X49243992Y-97941124D01*
X49179116Y-97946381D01*
X48988158Y-97948260D01*
X48734424Y-97942834D01*
X48710873Y-97941990D01*
X48487979Y-97926725D01*
X48408472Y-97900846D01*
X48460041Y-97860666D01*
X48551377Y-97835724D01*
X48765340Y-97808573D01*
X49035833Y-97793099D01*
X49320299Y-97789544D01*
X49576180Y-97798151D01*
G37*
G36*
X49655671Y-99539905D02*
G01*
X49949547Y-99741655D01*
X50105383Y-99843183D01*
X50331174Y-99931662D01*
X50335081Y-99932594D01*
X50480357Y-99980505D01*
X50519637Y-100021337D01*
X50480369Y-100028098D01*
X50330946Y-100001039D01*
X50123045Y-99940579D01*
X49909336Y-99864486D01*
X49742486Y-99790526D01*
X49675165Y-99736467D01*
X49674251Y-99731156D01*
X49592992Y-99674014D01*
X49420381Y-99619688D01*
X49279202Y-99583755D01*
X49237317Y-99548550D01*
X49322387Y-99505715D01*
X49406475Y-99486846D01*
X49655671Y-99539905D01*
G37*
G36*
X45991330Y-97811262D02*
G01*
X46079354Y-97819556D01*
X46029794Y-97834253D01*
X45907441Y-97855009D01*
X45628942Y-97934462D01*
X45435744Y-98037471D01*
X45363436Y-98147317D01*
X45397277Y-98274201D01*
X45490045Y-98451387D01*
X45557290Y-98590369D01*
X45531746Y-98644616D01*
X45530147Y-98644579D01*
X45435634Y-98579958D01*
X45328047Y-98429030D01*
X45252225Y-98230001D01*
X45227549Y-98017456D01*
X45229861Y-97994581D01*
X45254582Y-97898084D01*
X45325934Y-97844955D01*
X45480638Y-97820864D01*
X45755412Y-97811486D01*
X45784858Y-97810957D01*
X45991330Y-97811262D01*
G37*
G36*
X52199468Y-100114488D02*
G01*
X52266075Y-100145611D01*
X52523553Y-100247981D01*
X52801135Y-100340146D01*
X53163745Y-100446546D01*
X52757473Y-100405930D01*
X52532464Y-100385510D01*
X52170523Y-100357143D01*
X51816732Y-100333410D01*
X51538547Y-100310535D01*
X51284142Y-100277398D01*
X51129437Y-100242625D01*
X51085649Y-100224213D01*
X51027217Y-100176732D01*
X51090309Y-100155495D01*
X51248884Y-100163436D01*
X51476904Y-100203487D01*
X51574795Y-100223246D01*
X51833689Y-100244261D01*
X51980387Y-100199929D01*
X51998219Y-100093758D01*
X51991652Y-100067763D01*
X52039075Y-100047632D01*
X52199468Y-100114488D01*
G37*
G36*
X60144538Y-99141707D02*
G01*
X60140399Y-99252178D01*
X60110594Y-99329070D01*
X60044473Y-99526561D01*
X59997181Y-99611279D01*
X59982556Y-99637478D01*
X59904227Y-99652135D01*
X59866523Y-99546159D01*
X59852864Y-99491320D01*
X59748930Y-99428567D01*
X59715571Y-99426222D01*
X59692778Y-99384532D01*
X59788128Y-99271777D01*
X59944918Y-99271777D01*
X59950575Y-99313279D01*
X59997181Y-99324040D01*
X60006564Y-99312550D01*
X59997181Y-99219513D01*
X59973601Y-99207249D01*
X59944918Y-99271777D01*
X59788128Y-99271777D01*
X59913079Y-99171976D01*
X60056062Y-99115680D01*
X60144538Y-99141707D01*
G37*
G36*
X50067140Y-99021055D02*
G01*
X50053401Y-99038115D01*
X49924781Y-99080550D01*
X49689117Y-99120898D01*
X49381183Y-99152497D01*
X49272385Y-99161314D01*
X48938027Y-99195898D01*
X48656493Y-99235454D01*
X48479640Y-99273049D01*
X48328524Y-99303489D01*
X48264054Y-99266205D01*
X48202962Y-99225504D01*
X48048467Y-99232889D01*
X47966032Y-99248095D01*
X47907971Y-99249007D01*
X47989671Y-99206645D01*
X48057664Y-99186868D01*
X48273090Y-99150067D01*
X48577366Y-99114083D01*
X48927836Y-99084470D01*
X49134489Y-99069239D01*
X49468780Y-99039883D01*
X49734700Y-99010671D01*
X49888175Y-98986116D01*
X50003748Y-98976056D01*
X50067140Y-99021055D01*
G37*
G36*
X52786158Y-98610424D02*
G01*
X52701693Y-98690034D01*
X52538877Y-98809696D01*
X52471160Y-98858041D01*
X52322346Y-98984858D01*
X52262737Y-99070223D01*
X52278970Y-99109587D01*
X52381213Y-99238291D01*
X52546438Y-99403402D01*
X52687494Y-99536942D01*
X52767300Y-99631453D01*
X52731886Y-99644463D01*
X52574623Y-99576618D01*
X52288882Y-99428567D01*
X52281971Y-99424882D01*
X51967293Y-99269283D01*
X51770350Y-99202782D01*
X51681207Y-99223754D01*
X51689925Y-99330573D01*
X51683051Y-99359394D01*
X51599448Y-99303577D01*
X51453357Y-99159640D01*
X51342572Y-99033777D01*
X51232512Y-98886012D01*
X51205849Y-98812492D01*
X51237366Y-98800999D01*
X51389972Y-98787810D01*
X51616346Y-98790020D01*
X51723553Y-98790363D01*
X52058629Y-98757828D01*
X52376136Y-98689271D01*
X52523060Y-98647262D01*
X52707079Y-98603484D01*
X52789467Y-98596985D01*
X52786158Y-98610424D01*
G37*
G36*
X55199752Y-99399348D02*
G01*
X55254571Y-99431281D01*
X55279473Y-99508481D01*
X55279373Y-99508644D01*
X55315385Y-99575591D01*
X55456312Y-99647391D01*
X55672387Y-99722816D01*
X55465771Y-99777926D01*
X55390745Y-99803480D01*
X55295618Y-99879957D01*
X55229084Y-100030983D01*
X55167845Y-100297160D01*
X55112656Y-100542017D01*
X55057793Y-100710787D01*
X55020681Y-100749385D01*
X55009660Y-100650921D01*
X55033071Y-100408505D01*
X55045902Y-100300546D01*
X55055330Y-100125018D01*
X55040604Y-100055727D01*
X55021802Y-100060256D01*
X54896095Y-100113121D01*
X54704662Y-100206287D01*
X54687708Y-100214754D01*
X54419823Y-100319021D01*
X54098089Y-100406146D01*
X53772665Y-100466642D01*
X53493714Y-100491022D01*
X53311395Y-100469799D01*
X53255624Y-100432319D01*
X53314811Y-100395337D01*
X53516523Y-100356396D01*
X53865991Y-100295910D01*
X54390070Y-100170503D01*
X54789920Y-100024706D01*
X55057412Y-99862715D01*
X55184416Y-99688725D01*
X55162802Y-99506930D01*
X55145908Y-99474408D01*
X55122202Y-99388600D01*
X55199752Y-99399348D01*
G37*
G36*
X56453485Y-99423951D02*
G01*
X56472846Y-99472274D01*
X56465745Y-99628309D01*
X56444434Y-99736281D01*
X56518741Y-99931437D01*
X56740220Y-100099838D01*
X56776125Y-100120130D01*
X56903665Y-100228307D01*
X56966650Y-100336110D01*
X56951491Y-100404949D01*
X56844598Y-100396232D01*
X56839315Y-100394455D01*
X56696215Y-100386835D01*
X56452804Y-100406648D01*
X56158641Y-100450010D01*
X55593992Y-100550339D01*
X55573810Y-100890996D01*
X55553628Y-101231653D01*
X56333535Y-101231653D01*
X56533059Y-101229257D01*
X56845364Y-101213939D01*
X57066094Y-101187137D01*
X57162683Y-101151979D01*
X57189395Y-101124850D01*
X57299298Y-101126305D01*
X57336841Y-101163597D01*
X57284703Y-101219752D01*
X57092026Y-101263196D01*
X56768935Y-101292076D01*
X56325558Y-101304538D01*
X55970166Y-101304838D01*
X55669187Y-101292933D01*
X55515597Y-101265438D01*
X55478558Y-101258807D01*
X55373048Y-101193079D01*
X55327429Y-101086365D01*
X55316470Y-100929284D01*
X55313332Y-100643690D01*
X55196374Y-100859277D01*
X55192655Y-100866098D01*
X55101392Y-101013774D01*
X55042723Y-101074863D01*
X55022469Y-101070916D01*
X55014542Y-101032449D01*
X55055879Y-100933131D01*
X55157693Y-100748887D01*
X55331203Y-100455644D01*
X55369886Y-100391753D01*
X55410920Y-100330110D01*
X55476399Y-100330110D01*
X55515597Y-100369308D01*
X55554794Y-100330110D01*
X55515597Y-100290913D01*
X55476399Y-100330110D01*
X55410920Y-100330110D01*
X55549355Y-100122146D01*
X55680626Y-99981853D01*
X55774956Y-99958259D01*
X55796236Y-99967037D01*
X55831720Y-100011482D01*
X55724164Y-100066416D01*
X55627994Y-100115924D01*
X55556133Y-100222297D01*
X55620948Y-100322544D01*
X55641415Y-100329168D01*
X55784653Y-100322607D01*
X55993324Y-100277604D01*
X56010693Y-100272712D01*
X56183254Y-100216233D01*
X56221406Y-100174244D01*
X56142757Y-100129263D01*
X56069434Y-100098613D01*
X56045890Y-100070367D01*
X56171081Y-100061237D01*
X56279533Y-100046806D01*
X56328429Y-99975615D01*
X56309568Y-99800943D01*
X56296725Y-99605846D01*
X56325454Y-99450591D01*
X56382453Y-99377526D01*
X56453485Y-99423951D01*
G37*
G36*
X46265921Y-96859952D02*
G01*
X46459960Y-96916143D01*
X46701540Y-96961140D01*
X46936945Y-96957263D01*
X47244918Y-96908411D01*
X47594089Y-96854233D01*
X48359832Y-96828993D01*
X49087202Y-96943653D01*
X49467041Y-97033012D01*
X50332512Y-97178361D01*
X51194004Y-97248707D01*
X52008398Y-97241556D01*
X52732572Y-97154416D01*
X53371901Y-97062624D01*
X53997991Y-97056241D01*
X54565039Y-97153716D01*
X55106240Y-97357893D01*
X55111519Y-97360418D01*
X55284665Y-97431880D01*
X55448052Y-97460987D01*
X55655979Y-97450645D01*
X55962746Y-97403762D01*
X56024484Y-97390295D01*
X56887510Y-97390295D01*
X56893168Y-97431797D01*
X56939774Y-97442559D01*
X56949156Y-97431069D01*
X56939774Y-97338032D01*
X56916194Y-97325767D01*
X56887510Y-97390295D01*
X56024484Y-97390295D01*
X56270617Y-97336606D01*
X56565427Y-97246348D01*
X56769885Y-97155131D01*
X57027254Y-97028361D01*
X57407599Y-96917300D01*
X57783908Y-96876632D01*
X58094865Y-96917361D01*
X58196669Y-96960095D01*
X58344807Y-97077967D01*
X58466517Y-97272994D01*
X58576189Y-97571420D01*
X58688216Y-97999494D01*
X58726958Y-98148057D01*
X58828061Y-98383977D01*
X58974523Y-98499331D01*
X59197619Y-98510248D01*
X59461157Y-98448629D01*
X60572078Y-98448629D01*
X60611276Y-98487826D01*
X60650473Y-98448629D01*
X60611276Y-98409431D01*
X60572078Y-98448629D01*
X59461157Y-98448629D01*
X59528625Y-98432854D01*
X59927277Y-98341233D01*
X60373869Y-98303105D01*
X60750690Y-98343779D01*
X61024471Y-98462591D01*
X61076723Y-98505830D01*
X61274444Y-98778583D01*
X61384805Y-99126367D01*
X61404086Y-99501180D01*
X61328565Y-99855021D01*
X61154519Y-100139887D01*
X61000419Y-100258606D01*
X60719534Y-100408400D01*
X60390671Y-100542564D01*
X60158061Y-100612142D01*
X60072217Y-100637819D01*
X59822556Y-100670891D01*
X59763039Y-100672075D01*
X59551644Y-100690635D01*
X59395644Y-100711481D01*
X59295363Y-100724882D01*
X59251303Y-100731562D01*
X59023565Y-100750768D01*
X58873711Y-100715160D01*
X58737463Y-100611697D01*
X58554734Y-100440033D01*
X58211092Y-100793062D01*
X58051149Y-100941260D01*
X57819565Y-101109629D01*
X57632263Y-101194209D01*
X57584713Y-101203596D01*
X57498764Y-101212525D01*
X57540714Y-101177624D01*
X57718414Y-101089335D01*
X57804389Y-101041920D01*
X58057902Y-100833015D01*
X58286470Y-100555141D01*
X58410804Y-100341781D01*
X58886584Y-100341781D01*
X59149117Y-100402673D01*
X59180853Y-100409405D01*
X59395644Y-100415931D01*
X59527467Y-100351374D01*
X59542163Y-100230682D01*
X59533389Y-100218731D01*
X59416924Y-100203666D01*
X59200165Y-100249256D01*
X58886584Y-100341781D01*
X58410804Y-100341781D01*
X58464896Y-100248957D01*
X58567983Y-99955123D01*
X58570331Y-99733444D01*
X58933934Y-99733444D01*
X59043375Y-99749047D01*
X59138642Y-99753903D01*
X59258961Y-99751431D01*
X59273584Y-99751592D01*
X59317757Y-99820542D01*
X59288357Y-99866107D01*
X59160967Y-99898937D01*
X59069535Y-99920763D01*
X59004177Y-100016530D01*
X59052647Y-100099063D01*
X59239362Y-100134122D01*
X59242122Y-100134118D01*
X59406370Y-100114831D01*
X59474547Y-100069305D01*
X59474618Y-100067715D01*
X59545321Y-100033389D01*
X59708933Y-100038888D01*
X59719479Y-100040521D01*
X59863158Y-100087611D01*
X59895460Y-100150724D01*
X59910929Y-100178059D01*
X60023313Y-100134122D01*
X60074149Y-100107724D01*
X60157171Y-100080288D01*
X60137506Y-100139623D01*
X60121776Y-100203322D01*
X60221644Y-100183269D01*
X60308173Y-100154365D01*
X60313611Y-100182399D01*
X60214905Y-100301015D01*
X60204040Y-100313535D01*
X60134068Y-100410022D01*
X60158061Y-100418864D01*
X60165968Y-100414636D01*
X60315959Y-100371164D01*
X60529723Y-100341330D01*
X60630306Y-100323058D01*
X60833939Y-100240591D01*
X61017791Y-100121168D01*
X61139411Y-99995166D01*
X61156346Y-99892959D01*
X61148156Y-99868893D01*
X61197960Y-99782135D01*
X61248994Y-99704662D01*
X61277634Y-99536250D01*
X61275334Y-99469086D01*
X61232213Y-99376601D01*
X61101245Y-99389222D01*
X61088287Y-99392816D01*
X60990610Y-99409149D01*
X61032405Y-99364374D01*
X61040501Y-99358515D01*
X61100547Y-99251983D01*
X61065987Y-99065257D01*
X61028228Y-98976575D01*
X60895301Y-98836828D01*
X60807263Y-98798629D01*
X60652079Y-98731296D01*
X60617740Y-98720352D01*
X60611276Y-98718631D01*
X60414573Y-98666260D01*
X60300783Y-98671211D01*
X60226522Y-98735726D01*
X60104745Y-98809705D01*
X59884645Y-98795837D01*
X59876124Y-98794079D01*
X59670936Y-98780814D01*
X59566168Y-98853384D01*
X59513631Y-98907393D01*
X59363534Y-98910676D01*
X59298043Y-98876291D01*
X59316250Y-98827588D01*
X59468070Y-98753796D01*
X59480008Y-98748885D01*
X59680868Y-98693218D01*
X59828972Y-98695293D01*
X59899940Y-98701673D01*
X59944918Y-98605307D01*
X59942581Y-98568387D01*
X59916501Y-98537538D01*
X60742735Y-98537538D01*
X60807263Y-98566221D01*
X60848766Y-98560564D01*
X60859527Y-98513958D01*
X60848037Y-98504575D01*
X60755000Y-98513958D01*
X60742735Y-98537538D01*
X59916501Y-98537538D01*
X59888879Y-98504865D01*
X59733672Y-98523848D01*
X59535885Y-98578253D01*
X59230098Y-98698085D01*
X59058059Y-98834282D01*
X59004177Y-98996957D01*
X59026630Y-99124428D01*
X59160042Y-99346924D01*
X59370520Y-99518756D01*
X59608175Y-99590867D01*
X59713324Y-99595585D01*
X59760437Y-99614259D01*
X59670535Y-99658088D01*
X59546210Y-99679764D01*
X59345914Y-99643894D01*
X59245674Y-99612539D01*
X59032333Y-99652684D01*
X58967477Y-99691477D01*
X58933934Y-99733444D01*
X58570331Y-99733444D01*
X58570534Y-99714300D01*
X58570127Y-99712842D01*
X58552250Y-99611372D01*
X58596157Y-99650726D01*
X58662213Y-99710709D01*
X58716424Y-99631128D01*
X58754933Y-99570653D01*
X58884124Y-99506962D01*
X58925597Y-99505753D01*
X58991795Y-99477895D01*
X58978782Y-99385876D01*
X58886872Y-99193938D01*
X58822078Y-99020744D01*
X58847674Y-98918821D01*
X58927573Y-98835634D01*
X58901223Y-98772372D01*
X58778037Y-98796565D01*
X58725416Y-98821653D01*
X58662474Y-98817283D01*
X58635814Y-98718318D01*
X58630293Y-98493719D01*
X58628780Y-98439657D01*
X58598065Y-98187206D01*
X58536548Y-97892392D01*
X58455799Y-97594575D01*
X58367385Y-97333116D01*
X58282874Y-97147375D01*
X58213835Y-97076715D01*
X58196798Y-97078946D01*
X58141831Y-97155110D01*
X58126873Y-97192575D01*
X58019612Y-97233505D01*
X57963616Y-97222224D01*
X57945844Y-97155110D01*
X57953760Y-97115351D01*
X57874536Y-97076715D01*
X57812528Y-97093435D01*
X57799901Y-97194308D01*
X57808060Y-97263698D01*
X57719046Y-97311900D01*
X57656632Y-97324505D01*
X57586877Y-97409894D01*
X57576566Y-97467664D01*
X57541146Y-97409894D01*
X57511315Y-97363605D01*
X57382683Y-97312194D01*
X57236818Y-97350773D01*
X57145410Y-97468690D01*
X57089349Y-97567052D01*
X56939774Y-97617358D01*
X56915624Y-97625480D01*
X56780110Y-97656737D01*
X56655221Y-97813853D01*
X56617842Y-97895935D01*
X56529477Y-98023156D01*
X56451008Y-98077462D01*
X56417140Y-98027682D01*
X56393039Y-97957720D01*
X56293948Y-97827068D01*
X56247190Y-97778954D01*
X56212298Y-97716174D01*
X56293948Y-97703876D01*
X56353266Y-97694125D01*
X56417140Y-97625480D01*
X56383279Y-97560644D01*
X56251576Y-97531776D01*
X56062065Y-97559493D01*
X55859621Y-97631197D01*
X55689114Y-97734290D01*
X55595417Y-97856175D01*
X55590918Y-97869730D01*
X55511353Y-97997304D01*
X55433244Y-97995709D01*
X55398004Y-97863424D01*
X55397090Y-97843805D01*
X55316492Y-97686205D01*
X55148240Y-97592952D01*
X54952912Y-97599908D01*
X54809239Y-97671808D01*
X54623080Y-97795615D01*
X54452727Y-97890205D01*
X54270302Y-97929967D01*
X54200978Y-97925662D01*
X54154491Y-97912607D01*
X54259286Y-97881630D01*
X54285578Y-97873697D01*
X54466467Y-97790638D01*
X54675016Y-97665080D01*
X54935946Y-97487774D01*
X54716204Y-97435312D01*
X54538692Y-97390923D01*
X54356206Y-97341120D01*
X54297195Y-97328617D01*
X54243135Y-97367801D01*
X54256498Y-97521231D01*
X54297044Y-97743073D01*
X54205499Y-97528250D01*
X54126567Y-97404612D01*
X53963501Y-97300314D01*
X53711087Y-97251350D01*
X53349075Y-97254383D01*
X52857216Y-97306078D01*
X52741681Y-97321272D01*
X52371608Y-97368052D01*
X52034618Y-97408156D01*
X51791831Y-97434231D01*
X51747790Y-97438478D01*
X51412129Y-97479605D01*
X51209625Y-97527644D01*
X51118906Y-97590239D01*
X51118600Y-97675035D01*
X51134814Y-97739530D01*
X51118748Y-97871547D01*
X51077583Y-97903694D01*
X50985290Y-97874495D01*
X50910713Y-97776633D01*
X50903335Y-97658946D01*
X50912507Y-97603436D01*
X50854851Y-97547085D01*
X50822801Y-97540719D01*
X50811893Y-97468690D01*
X50816854Y-97454668D01*
X50750771Y-97408583D01*
X50561736Y-97392779D01*
X50263128Y-97395262D01*
X50478714Y-97556108D01*
X50629779Y-97716413D01*
X50689331Y-97886803D01*
X50686084Y-97970016D01*
X50669726Y-98008267D01*
X50619706Y-97897141D01*
X50547007Y-97766255D01*
X50427712Y-97633088D01*
X50314555Y-97564611D01*
X50247889Y-97593752D01*
X50217290Y-97624559D01*
X50106338Y-97628857D01*
X50077670Y-97629967D01*
X49812381Y-97574153D01*
X49792757Y-97569991D01*
X49676534Y-97545339D01*
X49410986Y-97508986D01*
X49397773Y-97507888D01*
X50067140Y-97507888D01*
X50106338Y-97547085D01*
X50145535Y-97507888D01*
X50106338Y-97468690D01*
X50067140Y-97507888D01*
X49397773Y-97507888D01*
X49109655Y-97483946D01*
X48804522Y-97470753D01*
X48695226Y-97470431D01*
X48527573Y-97469938D01*
X48310790Y-97482034D01*
X48186157Y-97507572D01*
X48185659Y-97547085D01*
X48293292Y-97592608D01*
X48492706Y-97624280D01*
X48511558Y-97624473D01*
X48640853Y-97635546D01*
X48625156Y-97660343D01*
X48474371Y-97695102D01*
X48198400Y-97736063D01*
X48039540Y-97752241D01*
X47866556Y-97751011D01*
X47825573Y-97715700D01*
X47831569Y-97670780D01*
X47749964Y-97595396D01*
X47689244Y-97581782D01*
X47676646Y-97626378D01*
X47685773Y-97642554D01*
X47688055Y-97684155D01*
X47625120Y-97696506D01*
X47475285Y-97677260D01*
X47216863Y-97624072D01*
X46828171Y-97534596D01*
X46436130Y-97427994D01*
X46414770Y-97420096D01*
X46228162Y-97351098D01*
X49753560Y-97351098D01*
X49792757Y-97390295D01*
X49831955Y-97351098D01*
X49792757Y-97311900D01*
X49753560Y-97351098D01*
X46228162Y-97351098D01*
X46099724Y-97303608D01*
X46045639Y-97272703D01*
X48656029Y-97272703D01*
X48695226Y-97311900D01*
X48734424Y-97272703D01*
X48695226Y-97233505D01*
X48656029Y-97272703D01*
X46045639Y-97272703D01*
X45886588Y-97181818D01*
X45718181Y-97060672D01*
X45591942Y-97001174D01*
X45538855Y-97012698D01*
X45587800Y-97102874D01*
X45625575Y-97219287D01*
X45587212Y-97399461D01*
X45483889Y-97557011D01*
X45346596Y-97624869D01*
X45252238Y-97654232D01*
X45131009Y-97777117D01*
X45085399Y-97917880D01*
X45054820Y-98190949D01*
X45058099Y-98501687D01*
X45093695Y-98786189D01*
X45160064Y-98980553D01*
X45174363Y-99007561D01*
X45232903Y-99197036D01*
X45286637Y-99479997D01*
X45325464Y-99806027D01*
X45357154Y-100123326D01*
X45391947Y-100319270D01*
X45435910Y-100407707D01*
X45496050Y-100413589D01*
X45565980Y-100393100D01*
X45756224Y-100369308D01*
X45840765Y-100355795D01*
X46005372Y-100264938D01*
X46140254Y-100177676D01*
X46343990Y-100101775D01*
X46360021Y-100097794D01*
X46503033Y-100070907D01*
X46517563Y-100094578D01*
X46398925Y-100173724D01*
X46142432Y-100313261D01*
X46038598Y-100362849D01*
X45756456Y-100464276D01*
X45512272Y-100512498D01*
X45229936Y-100529441D01*
X45179391Y-99931503D01*
X45177008Y-99904400D01*
X45136092Y-99584447D01*
X45079694Y-99305867D01*
X45019273Y-99126282D01*
X44965575Y-98959564D01*
X44921699Y-98661176D01*
X44902806Y-98291838D01*
X44895914Y-97664678D01*
X45346204Y-97189921D01*
X45556686Y-96968001D01*
X45990597Y-96968001D01*
X45993890Y-96980223D01*
X46083464Y-97049910D01*
X46246005Y-97120451D01*
X46414770Y-97167126D01*
X46523016Y-97165212D01*
X46538104Y-97148052D01*
X46482573Y-97089452D01*
X46302794Y-97025038D01*
X46225999Y-97005350D01*
X46057712Y-96969675D01*
X45990597Y-96968001D01*
X45556686Y-96968001D01*
X45796493Y-96715163D01*
X46265921Y-96859952D01*
G37*
%TD*%
M02*
